<svg xmlns="http://www.w3.org/2000/svg" xmlns:xlink="http://www.w3.org/1999/xlink" width="1862" height="919" version="1.1">
<style type="text/css">
.l0{
 fill: #000000;
  stroke: #000000;
  stroke-linecap:round;
  stroke-linejoin:round;
  stroke-width: 1.11744;
}
.l1{
 fill: #00ccee;
  stroke: #00ccee;
  stroke-linecap:round;
  stroke-linejoin:round;
  stroke-width: 1.11744;
}
.l2{
  fill: none;
  stroke: #3f3f3f;
  stroke-linecap:round;
  stroke-linejoin:round;
  stroke-width: 1.11744;
}
.l3{
 fill: #cccccc; fill-opacity: 0.5;
  stroke: #cccccc;
  stroke-linecap:round;
  stroke-linejoin:round;
  stroke-width: 1.11744;
}
.l4{
 fill: #88dd00;
  stroke: #88dd00;
  stroke-linecap:round;
  stroke-linejoin:round;
  stroke-width: 1.11744;
}
.l5{
 fill: #bb2200;
  stroke: #bb2200;
  stroke-linecap:round;
  stroke-linejoin:round;
  stroke-width: 1.11744;
}
.l6{
 fill: #00ccee; fill-opacity: 0.5;
  stroke: #00ccee;
  stroke-linecap:round;
  stroke-linejoin:round;
  stroke-width: 1.11744;
}
.l7{
 fill: #ff0000; fill-opacity: 0.5;
  stroke: #ff0000;
  stroke-linecap:round;
  stroke-linejoin:round;
  stroke-width: 1.11744;
}
.l8{
 fill: #ffff00; fill-opacity: 0.5;
  stroke: #ffff00;
  stroke-linecap:round;
  stroke-linejoin:round;
  stroke-width: 1.11744;
}
.l9{
 fill: #ffffff; fill-opacity: 0.5;
  stroke: #ffffff;
  stroke-linecap:round;
  stroke-linejoin:round;
  stroke-width: 1.11744;
}
.l10{
 fill: #ff00ff;
  stroke: #ff00ff;
  stroke-linecap:round;
  stroke-linejoin:round;
  stroke-width: 1.11744;
}
.l11{
 fill: #00ff00; fill-opacity: 0.5;
  stroke: #00ff00;
  stroke-linecap:round;
  stroke-linejoin:round;
  stroke-width: 1.11744;
}
.l12{
 fill: #0044dd; fill-opacity: 0.5;
  stroke: #0044dd;
  stroke-linecap:round;
  stroke-linejoin:round;
  stroke-width: 1.11744;
}
.l13{
 fill: #aaaa00; fill-opacity: 0.5;
  stroke: #aaaa00;
  stroke-linecap:round;
  stroke-linejoin:round;
  stroke-width: 1.11744;
}
.l14{
  fill: none;
  stroke: #aaccaa;
  stroke-linecap:round;
  stroke-linejoin:round;
  stroke-width: 1.11744;
}
.l15{
 fill: #ff7777; fill-opacity: 0.5;
  stroke: #ff7777;
  stroke-linecap:round;
  stroke-linejoin:round;
  stroke-width: 1.11744;
}
.l16{
 fill: #bfff81; fill-opacity: 0.5;
  stroke: #bfff81;
  stroke-linecap:round;
  stroke-linejoin:round;
  stroke-width: 1.11744;
}
.l17{
  fill: none;
  stroke: #00ffcc;
  stroke-linecap:round;
  stroke-linejoin:round;
  stroke-width: 1.11744;
}
.l18{
 fill: #ce0097; fill-opacity: 0.5;
  stroke: #ce0097;
  stroke-linecap:round;
  stroke-linejoin:round;
  stroke-width: 1.11744;
}
.l19{
  fill: none;
  stroke: #d2d46b;
  stroke-linecap:round;
  stroke-linejoin:round;
  stroke-width: 1.11744;
}
.l20{
  fill: none;
  stroke: #ef6158;
  stroke-linecap:round;
  stroke-linejoin:round;
  stroke-width: 1.11744;
}
.l21{
  fill: none;
  stroke: #fdb200;
  stroke-linecap:round;
  stroke-linejoin:round;
  stroke-width: 1.11744;
}
text {font-family: Sans-Serif;}
</style>
<rect class="l0" x="0" y="0" width="1862" height="919"/>
<text fill="#00ccee"  xml:space="preserve" font-size="10.7605" transform="translate(538.805, 610.915)" >VDD</text>
<text fill="#00ccee"  xml:space="preserve" font-size="10.7605" transform="translate(1459.66, 610.915)" >VDD</text>
<text fill="#00ccee"  xml:space="preserve" font-size="17.7549" transform="translate(411.838, 595.608)" >VBP</text>
<text fill="#00ccee"  xml:space="preserve" font-size="17.7549" transform="translate(409.838, 792.195)" >VCN</text>
<text fill="#00ccee"  xml:space="preserve" font-size="10.7605" transform="translate(993.558, 821.082)" >GND</text>
<text fill="#00ccee"  xml:space="preserve" font-size="10.7605" transform="translate(527.958, 324.442)" >GND</text>
<text fill="#00ccee"  xml:space="preserve" font-size="10.7605" transform="translate(994.058, 72.8888)" >VDD</text>
<text fill="#00ccee"  xml:space="preserve" font-size="10.7605" transform="translate(1469.5, 324.442)" >GND</text>
<text fill="#00ccee"  xml:space="preserve" font-size="17.7549" transform="translate(411.838, 109.315)" >VCP</text>
<text fill="#00ccee"  xml:space="preserve" font-size="17.7549" transform="translate(409.838, 336.942)" >VBN</text>
<text fill="#00ccee"  xml:space="preserve" font-size="10.7605" transform="translate(269.791, 372.942)" >VDD</text>
<text fill="#00ccee"  xml:space="preserve" font-size="10.7605" transform="translate(186.518, 531.375)" >GND</text>
<text fill="#00ccee"  xml:space="preserve" font-size="10.7605" transform="translate(372.758, 531.375)" >GND</text>
<text fill="#cccccc"  xml:space="preserve" font-size="10.7605" transform="translate(525.779, 660.358) rotate(270)" >M14</text>
<text fill="#cccccc"  xml:space="preserve" font-size="10.7605" transform="translate(510.259, 691.358) rotate(270)" >pfet_01v8</text>
<text fill="#aaaa00"  xml:space="preserve" font-size="10.7605" transform="translate(494.739, 697.358) rotate(270)" >1 x 12 / 0.5</text>
<text fill="#cccccc"  xml:space="preserve" font-size="10.7605" transform="translate(898.259, 660.358) rotate(270)" >M16</text>
<text fill="#cccccc"  xml:space="preserve" font-size="10.7605" transform="translate(882.739, 691.358) rotate(270)" >pfet_01v8</text>
<text fill="#aaaa00"  xml:space="preserve" font-size="10.7605" transform="translate(867.219, 697.358) rotate(270)" >1 x 12 / 0.5</text>
<text fill="#cccccc"  xml:space="preserve" font-size="10.7605" transform="translate(712.019, 660.358) rotate(270)" >M17</text>
<text fill="#cccccc"  xml:space="preserve" font-size="10.7605" transform="translate(696.499, 691.358) rotate(270)" >pfet_01v8</text>
<text fill="#aaaa00"  xml:space="preserve" font-size="10.7605" transform="translate(680.979, 697.358) rotate(270)" >1 x 12 / 0.5</text>
<text fill="#cccccc"  xml:space="preserve" font-size="10.7605" transform="translate(805.139, 660.358) rotate(270)" >M18</text>
<text fill="#cccccc"  xml:space="preserve" font-size="10.7605" transform="translate(789.619, 691.358) rotate(270)" >pfet_01v8</text>
<text fill="#aaaa00"  xml:space="preserve" font-size="10.7605" transform="translate(774.099, 697.358) rotate(270)" >1 x 12 / 0.5</text>
<text fill="#cccccc"  xml:space="preserve" font-size="10.7605" transform="translate(618.899, 660.358) rotate(270)" >M15</text>
<text fill="#cccccc"  xml:space="preserve" font-size="10.7605" transform="translate(603.379, 691.358) rotate(270)" >pfet_01v8</text>
<text fill="#aaaa00"  xml:space="preserve" font-size="10.7605" transform="translate(587.859, 697.358) rotate(270)" >1 x 12 / 0.5</text>
<text fill="#cccccc"  xml:space="preserve" font-size="10.7605" transform="translate(991.379, 660.358) rotate(270)" >M19</text>
<text fill="#cccccc"  xml:space="preserve" font-size="10.7605" transform="translate(975.859, 691.358) rotate(270)" >pfet_01v8</text>
<text fill="#aaaa00"  xml:space="preserve" font-size="10.7605" transform="translate(960.339, 697.358) rotate(270)" >1 x 12 / 0.5</text>
<text fill="#cccccc"  xml:space="preserve" font-size="10.7605" transform="translate(494.082, 815.558) rotate(270)" >M20</text>
<text fill="#cccccc"  xml:space="preserve" font-size="10.7605" transform="translate(509.602, 846.558) rotate(270)" >nfet_01v8</text>
<text fill="#aaaa00"  xml:space="preserve" font-size="10.7605" transform="translate(525.122, 852.558) rotate(270)" >1 x 12 / 0.5</text>
<text fill="#cccccc"  xml:space="preserve" font-size="10.7605" transform="translate(587.202, 815.558) rotate(270)" >M21</text>
<text fill="#cccccc"  xml:space="preserve" font-size="10.7605" transform="translate(602.722, 846.558) rotate(270)" >nfet_01v8</text>
<text fill="#aaaa00"  xml:space="preserve" font-size="10.7605" transform="translate(618.242, 852.558) rotate(270)" >1 x 12 / 0.5</text>
<text fill="#cccccc"  xml:space="preserve" font-size="10.7605" transform="translate(680.322, 815.558) rotate(270)" >M22</text>
<text fill="#cccccc"  xml:space="preserve" font-size="10.7605" transform="translate(695.842, 846.558) rotate(270)" >nfet_01v8</text>
<text fill="#aaaa00"  xml:space="preserve" font-size="10.7605" transform="translate(711.362, 852.558) rotate(270)" >1 x 12 / 0.5</text>
<text fill="#cccccc"  xml:space="preserve" font-size="10.7605" transform="translate(773.442, 815.558) rotate(270)" >M23</text>
<text fill="#cccccc"  xml:space="preserve" font-size="10.7605" transform="translate(788.962, 846.558) rotate(270)" >nfet_01v8</text>
<text fill="#aaaa00"  xml:space="preserve" font-size="10.7605" transform="translate(804.482, 852.558) rotate(270)" >1 x 12 / 0.5</text>
<text fill="#cccccc"  xml:space="preserve" font-size="10.7605" transform="translate(866.562, 815.558) rotate(270)" >M24</text>
<text fill="#cccccc"  xml:space="preserve" font-size="10.7605" transform="translate(882.082, 846.558) rotate(270)" >nfet_01v8</text>
<text fill="#aaaa00"  xml:space="preserve" font-size="10.7605" transform="translate(897.602, 852.558) rotate(270)" >1 x 12 / 0.5</text>
<text fill="#cccccc"  xml:space="preserve" font-size="10.7605" transform="translate(959.682, 815.558) rotate(270)" >M25</text>
<text fill="#cccccc"  xml:space="preserve" font-size="10.7605" transform="translate(975.202, 846.558) rotate(270)" >nfet_01v8</text>
<text fill="#aaaa00"  xml:space="preserve" font-size="10.7605" transform="translate(990.722, 852.558) rotate(270)" >1 x 12 / 0.5</text>
<text fill="#cccccc"  xml:space="preserve" font-size="10.7605" transform="translate(1502.88, 660.358) rotate(270)" >M26</text>
<text fill="#cccccc"  xml:space="preserve" font-size="10.7605" transform="translate(1518.4, 691.358) rotate(270)" >pfet_01v8</text>
<text fill="#aaaa00"  xml:space="preserve" font-size="10.7605" transform="translate(1533.92, 697.358) rotate(270)" >1 x 12 / 0.5</text>
<text fill="#cccccc"  xml:space="preserve" font-size="10.7605" transform="translate(1130.4, 660.358) rotate(270)" >M27</text>
<text fill="#cccccc"  xml:space="preserve" font-size="10.7605" transform="translate(1145.92, 691.358) rotate(270)" >pfet_01v8</text>
<text fill="#aaaa00"  xml:space="preserve" font-size="10.7605" transform="translate(1161.44, 697.358) rotate(270)" >1 x 12 / 0.5</text>
<text fill="#cccccc"  xml:space="preserve" font-size="10.7605" transform="translate(1316.64, 660.358) rotate(270)" >M28</text>
<text fill="#cccccc"  xml:space="preserve" font-size="10.7605" transform="translate(1332.16, 691.358) rotate(270)" >pfet_01v8</text>
<text fill="#aaaa00"  xml:space="preserve" font-size="10.7605" transform="translate(1347.68, 697.358) rotate(270)" >1 x 12 / 0.5</text>
<text fill="#cccccc"  xml:space="preserve" font-size="10.7605" transform="translate(1223.52, 660.358) rotate(270)" >M29</text>
<text fill="#cccccc"  xml:space="preserve" font-size="10.7605" transform="translate(1239.04, 691.358) rotate(270)" >pfet_01v8</text>
<text fill="#aaaa00"  xml:space="preserve" font-size="10.7605" transform="translate(1254.56, 697.358) rotate(270)" >1 x 12 / 0.5</text>
<text fill="#cccccc"  xml:space="preserve" font-size="10.7605" transform="translate(1409.76, 660.358) rotate(270)" >M30</text>
<text fill="#cccccc"  xml:space="preserve" font-size="10.7605" transform="translate(1425.28, 691.358) rotate(270)" >pfet_01v8</text>
<text fill="#aaaa00"  xml:space="preserve" font-size="10.7605" transform="translate(1440.8, 697.358) rotate(270)" >1 x 12 / 0.5</text>
<text fill="#cccccc"  xml:space="preserve" font-size="10.7605" transform="translate(1037.28, 660.358) rotate(270)" >M31</text>
<text fill="#cccccc"  xml:space="preserve" font-size="10.7605" transform="translate(1052.8, 691.358) rotate(270)" >pfet_01v8</text>
<text fill="#aaaa00"  xml:space="preserve" font-size="10.7605" transform="translate(1068.32, 697.358) rotate(270)" >1 x 12 / 0.5</text>
<text fill="#cccccc"  xml:space="preserve" font-size="10.7605" transform="translate(1534.58, 815.558) rotate(270)" >M32</text>
<text fill="#cccccc"  xml:space="preserve" font-size="10.7605" transform="translate(1519.06, 846.558) rotate(270)" >nfet_01v8</text>
<text fill="#aaaa00"  xml:space="preserve" font-size="10.7605" transform="translate(1503.54, 852.558) rotate(270)" >1 x 12 / 0.5</text>
<text fill="#cccccc"  xml:space="preserve" font-size="10.7605" transform="translate(1441.46, 815.558) rotate(270)" >M33</text>
<text fill="#cccccc"  xml:space="preserve" font-size="10.7605" transform="translate(1425.94, 846.558) rotate(270)" >nfet_01v8</text>
<text fill="#aaaa00"  xml:space="preserve" font-size="10.7605" transform="translate(1410.42, 852.558) rotate(270)" >1 x 12 / 0.5</text>
<text fill="#cccccc"  xml:space="preserve" font-size="10.7605" transform="translate(1348.34, 815.558) rotate(270)" >M34</text>
<text fill="#cccccc"  xml:space="preserve" font-size="10.7605" transform="translate(1332.82, 846.558) rotate(270)" >nfet_01v8</text>
<text fill="#aaaa00"  xml:space="preserve" font-size="10.7605" transform="translate(1317.3, 852.558) rotate(270)" >1 x 12 / 0.5</text>
<text fill="#cccccc"  xml:space="preserve" font-size="10.7605" transform="translate(1255.22, 815.558) rotate(270)" >M35</text>
<text fill="#cccccc"  xml:space="preserve" font-size="10.7605" transform="translate(1239.7, 846.558) rotate(270)" >nfet_01v8</text>
<text fill="#aaaa00"  xml:space="preserve" font-size="10.7605" transform="translate(1224.18, 852.558) rotate(270)" >1 x 12 / 0.5</text>
<text fill="#cccccc"  xml:space="preserve" font-size="10.7605" transform="translate(1162.1, 815.558) rotate(270)" >M36</text>
<text fill="#cccccc"  xml:space="preserve" font-size="10.7605" transform="translate(1146.58, 846.558) rotate(270)" >nfet_01v8</text>
<text fill="#aaaa00"  xml:space="preserve" font-size="10.7605" transform="translate(1131.06, 852.558) rotate(270)" >1 x 12 / 0.5</text>
<text fill="#cccccc"  xml:space="preserve" font-size="10.7605" transform="translate(1068.98, 815.558) rotate(270)" >M37</text>
<text fill="#cccccc"  xml:space="preserve" font-size="10.7605" transform="translate(1053.46, 846.558) rotate(270)" >nfet_01v8</text>
<text fill="#aaaa00"  xml:space="preserve" font-size="10.7605" transform="translate(1037.94, 852.558) rotate(270)" >1 x 12 / 0.5</text>
<text fill="#cccccc"  xml:space="preserve" font-size="10.7605" transform="translate(959.682, 285.572) rotate(270)" >M44</text>
<text fill="#cccccc"  xml:space="preserve" font-size="10.7605" transform="translate(975.202, 285.572) rotate(270)" >nfet_01v8</text>
<text fill="#aaaa00"  xml:space="preserve" font-size="10.7605" transform="translate(990.722, 285.572) rotate(270)" >1 x 12 / 0.5</text>
<text fill="#cccccc"  xml:space="preserve" font-size="10.7605" transform="translate(866.562, 285.572) rotate(270)" >M45</text>
<text fill="#cccccc"  xml:space="preserve" font-size="10.7605" transform="translate(882.082, 285.572) rotate(270)" >nfet_01v8</text>
<text fill="#aaaa00"  xml:space="preserve" font-size="10.7605" transform="translate(897.602, 285.572) rotate(270)" >1 x 12 / 0.5</text>
<text fill="#cccccc"  xml:space="preserve" font-size="10.7605" transform="translate(773.442, 285.572) rotate(270)" >M46</text>
<text fill="#cccccc"  xml:space="preserve" font-size="10.7605" transform="translate(788.962, 285.572) rotate(270)" >nfet_01v8</text>
<text fill="#aaaa00"  xml:space="preserve" font-size="10.7605" transform="translate(804.482, 285.572) rotate(270)" >1 x 12 / 0.5</text>
<text fill="#cccccc"  xml:space="preserve" font-size="10.7605" transform="translate(680.322, 285.572) rotate(270)" >M47</text>
<text fill="#cccccc"  xml:space="preserve" font-size="10.7605" transform="translate(695.842, 285.572) rotate(270)" >nfet_01v8</text>
<text fill="#aaaa00"  xml:space="preserve" font-size="10.7605" transform="translate(711.362, 285.572) rotate(270)" >1 x 12 / 0.5</text>
<text fill="#cccccc"  xml:space="preserve" font-size="10.7605" transform="translate(587.202, 285.572) rotate(270)" >M48</text>
<text fill="#cccccc"  xml:space="preserve" font-size="10.7605" transform="translate(602.722, 285.572) rotate(270)" >nfet_01v8</text>
<text fill="#aaaa00"  xml:space="preserve" font-size="10.7605" transform="translate(618.242, 285.572) rotate(270)" >1 x 12 / 0.5</text>
<text fill="#cccccc"  xml:space="preserve" font-size="10.7605" transform="translate(494.082, 285.572) rotate(270)" >M49</text>
<text fill="#cccccc"  xml:space="preserve" font-size="10.7605" transform="translate(509.602, 285.572) rotate(270)" >nfet_01v8</text>
<text fill="#aaaa00"  xml:space="preserve" font-size="10.7605" transform="translate(525.122, 285.572) rotate(270)" >1 x 12 / 0.5</text>
<text fill="#cccccc"  xml:space="preserve" font-size="10.7605" transform="translate(944.162, 99.3316) rotate(270)" >M50</text>
<text fill="#cccccc"  xml:space="preserve" font-size="10.7605" transform="translate(959.682, 99.3316) rotate(270)" >pfet_01v8</text>
<text fill="#aaaa00"  xml:space="preserve" font-size="10.7605" transform="translate(975.202, 99.3316) rotate(270)" >1 x 12 / 0.5</text>
<text fill="#cccccc"  xml:space="preserve" font-size="10.7605" transform="translate(571.682, 99.3316) rotate(270)" >M51</text>
<text fill="#cccccc"  xml:space="preserve" font-size="10.7605" transform="translate(587.202, 99.3316) rotate(270)" >pfet_01v8</text>
<text fill="#aaaa00"  xml:space="preserve" font-size="10.7605" transform="translate(602.722, 99.3316) rotate(270)" >1 x 12 / 0.5</text>
<text fill="#cccccc"  xml:space="preserve" font-size="10.7605" transform="translate(757.922, 99.3316) rotate(270)" >M52</text>
<text fill="#cccccc"  xml:space="preserve" font-size="10.7605" transform="translate(773.442, 99.3316) rotate(270)" >pfet_01v8</text>
<text fill="#aaaa00"  xml:space="preserve" font-size="10.7605" transform="translate(788.962, 99.3316) rotate(270)" >1 x 12 / 0.5</text>
<text fill="#cccccc"  xml:space="preserve" font-size="10.7605" transform="translate(664.802, 99.3316) rotate(270)" >M53</text>
<text fill="#cccccc"  xml:space="preserve" font-size="10.7605" transform="translate(680.322, 99.3316) rotate(270)" >pfet_01v8</text>
<text fill="#aaaa00"  xml:space="preserve" font-size="10.7605" transform="translate(695.842, 99.3316) rotate(270)" >1 x 12 / 0.5</text>
<text fill="#cccccc"  xml:space="preserve" font-size="10.7605" transform="translate(851.042, 99.3316) rotate(270)" >M54</text>
<text fill="#cccccc"  xml:space="preserve" font-size="10.7605" transform="translate(866.562, 99.3316) rotate(270)" >pfet_01v8</text>
<text fill="#aaaa00"  xml:space="preserve" font-size="10.7605" transform="translate(882.082, 99.3316) rotate(270)" >1 x 12 / 0.5</text>
<text fill="#cccccc"  xml:space="preserve" font-size="10.7605" transform="translate(478.562, 99.3316) rotate(270)" >M55</text>
<text fill="#cccccc"  xml:space="preserve" font-size="10.7605" transform="translate(494.082, 99.3316) rotate(270)" >pfet_01v8</text>
<text fill="#aaaa00"  xml:space="preserve" font-size="10.7605" transform="translate(509.602, 99.3316) rotate(270)" >1 x 12 / 0.5</text>
<text fill="#cccccc"  xml:space="preserve" font-size="10.7605" transform="translate(1068.98, 285.572) rotate(270)" >M38</text>
<text fill="#cccccc"  xml:space="preserve" font-size="10.7605" transform="translate(1053.46, 285.572) rotate(270)" >nfet_01v8</text>
<text fill="#aaaa00"  xml:space="preserve" font-size="10.7605" transform="translate(1037.94, 285.572) rotate(270)" >1 x 12 / 0.5</text>
<text fill="#cccccc"  xml:space="preserve" font-size="10.7605" transform="translate(1162.1, 285.572) rotate(270)" >M39</text>
<text fill="#cccccc"  xml:space="preserve" font-size="10.7605" transform="translate(1146.58, 285.572) rotate(270)" >nfet_01v8</text>
<text fill="#aaaa00"  xml:space="preserve" font-size="10.7605" transform="translate(1131.06, 285.572) rotate(270)" >1 x 12 / 0.5</text>
<text fill="#cccccc"  xml:space="preserve" font-size="10.7605" transform="translate(1255.22, 285.572) rotate(270)" >M40</text>
<text fill="#cccccc"  xml:space="preserve" font-size="10.7605" transform="translate(1239.7, 285.572) rotate(270)" >nfet_01v8</text>
<text fill="#aaaa00"  xml:space="preserve" font-size="10.7605" transform="translate(1224.18, 285.572) rotate(270)" >1 x 12 / 0.5</text>
<text fill="#cccccc"  xml:space="preserve" font-size="10.7605" transform="translate(1348.34, 285.572) rotate(270)" >M41</text>
<text fill="#cccccc"  xml:space="preserve" font-size="10.7605" transform="translate(1332.82, 285.572) rotate(270)" >nfet_01v8</text>
<text fill="#aaaa00"  xml:space="preserve" font-size="10.7605" transform="translate(1317.3, 285.572) rotate(270)" >1 x 12 / 0.5</text>
<text fill="#cccccc"  xml:space="preserve" font-size="10.7605" transform="translate(1441.46, 285.572) rotate(270)" >M42</text>
<text fill="#cccccc"  xml:space="preserve" font-size="10.7605" transform="translate(1425.94, 285.572) rotate(270)" >nfet_01v8</text>
<text fill="#aaaa00"  xml:space="preserve" font-size="10.7605" transform="translate(1410.42, 285.572) rotate(270)" >1 x 12 / 0.5</text>
<text fill="#cccccc"  xml:space="preserve" font-size="10.7605" transform="translate(1534.58, 285.572) rotate(270)" >M43</text>
<text fill="#cccccc"  xml:space="preserve" font-size="10.7605" transform="translate(1519.06, 285.572) rotate(270)" >nfet_01v8</text>
<text fill="#aaaa00"  xml:space="preserve" font-size="10.7605" transform="translate(1503.54, 285.572) rotate(270)" >1 x 12 / 0.5</text>
<text fill="#cccccc"  xml:space="preserve" font-size="10.7605" transform="translate(1084.5, 99.3316) rotate(270)" >M56</text>
<text fill="#cccccc"  xml:space="preserve" font-size="10.7605" transform="translate(1068.98, 99.3316) rotate(270)" >pfet_01v8</text>
<text fill="#aaaa00"  xml:space="preserve" font-size="10.7605" transform="translate(1053.46, 99.3316) rotate(270)" >1 x 12 / 0.5</text>
<text fill="#cccccc"  xml:space="preserve" font-size="10.7605" transform="translate(1456.98, 99.3316) rotate(270)" >M57</text>
<text fill="#cccccc"  xml:space="preserve" font-size="10.7605" transform="translate(1441.46, 99.3316) rotate(270)" >pfet_01v8</text>
<text fill="#aaaa00"  xml:space="preserve" font-size="10.7605" transform="translate(1425.94, 99.3316) rotate(270)" >1 x 12 / 0.5</text>
<text fill="#cccccc"  xml:space="preserve" font-size="10.7605" transform="translate(1270.74, 99.3316) rotate(270)" >M58</text>
<text fill="#cccccc"  xml:space="preserve" font-size="10.7605" transform="translate(1255.22, 99.3316) rotate(270)" >pfet_01v8</text>
<text fill="#aaaa00"  xml:space="preserve" font-size="10.7605" transform="translate(1239.7, 99.3316) rotate(270)" >1 x 12 / 0.5</text>
<text fill="#cccccc"  xml:space="preserve" font-size="10.7605" transform="translate(1363.86, 99.3316) rotate(270)" >M59</text>
<text fill="#cccccc"  xml:space="preserve" font-size="10.7605" transform="translate(1348.34, 99.3316) rotate(270)" >pfet_01v8</text>
<text fill="#aaaa00"  xml:space="preserve" font-size="10.7605" transform="translate(1332.82, 99.3316) rotate(270)" >1 x 12 / 0.5</text>
<text fill="#cccccc"  xml:space="preserve" font-size="10.7605" transform="translate(1177.62, 99.3316) rotate(270)" >M60</text>
<text fill="#cccccc"  xml:space="preserve" font-size="10.7605" transform="translate(1162.1, 99.3316) rotate(270)" >pfet_01v8</text>
<text fill="#aaaa00"  xml:space="preserve" font-size="10.7605" transform="translate(1146.58, 99.3316) rotate(270)" >1 x 12 / 0.5</text>
<text fill="#cccccc"  xml:space="preserve" font-size="10.7605" transform="translate(1550.1, 99.3316) rotate(270)" >M61</text>
<text fill="#cccccc"  xml:space="preserve" font-size="10.7605" transform="translate(1534.58, 99.3316) rotate(270)" >pfet_01v8</text>
<text fill="#aaaa00"  xml:space="preserve" font-size="10.7605" transform="translate(1519.06, 99.3316) rotate(270)" >1 x 12 / 0.5</text>
<text fill="#cccccc"  xml:space="preserve" font-size="10.7605" transform="translate(437.833, 492.505) rotate(270)" >M62</text>
<text fill="#cccccc"  xml:space="preserve" font-size="10.7605" transform="translate(422.313, 492.505) rotate(270)" >nfet_01v8</text>
<text fill="#aaaa00"  xml:space="preserve" font-size="10.7605" transform="translate(406.793, 492.505) rotate(270)" >1 x 12 / 0.5</text>
<text fill="#cccccc"  xml:space="preserve" font-size="10.7605" transform="translate(328.535, 492.505) rotate(270)" >M64</text>
<text fill="#cccccc"  xml:space="preserve" font-size="10.7605" transform="translate(344.055, 492.505) rotate(270)" >nfet_01v8</text>
<text fill="#aaaa00"  xml:space="preserve" font-size="10.7605" transform="translate(359.575, 492.505) rotate(270)" >1 x 12 / 0.5</text>
<text fill="#cccccc"  xml:space="preserve" font-size="10.7605" transform="translate(142.295, 492.505) rotate(270)" >M65</text>
<text fill="#cccccc"  xml:space="preserve" font-size="10.7605" transform="translate(157.815, 492.505) rotate(270)" >nfet_01v8</text>
<text fill="#aaaa00"  xml:space="preserve" font-size="10.7605" transform="translate(173.335, 492.505) rotate(270)" >1 x 12 / 0.5</text>
<text fill="#cccccc"  xml:space="preserve" font-size="10.7605" transform="translate(251.593, 492.505) rotate(270)" >M66</text>
<text fill="#cccccc"  xml:space="preserve" font-size="10.7605" transform="translate(236.073, 492.505) rotate(270)" >nfet_01v8</text>
<text fill="#aaaa00"  xml:space="preserve" font-size="10.7605" transform="translate(220.553, 492.505) rotate(270)" >1 x 12 / 0.5</text>
<text fill="#cccccc"  xml:space="preserve" font-size="10.7605" transform="translate(267.113, 422.385) rotate(270)" >M63</text>
<text fill="#cccccc"  xml:space="preserve" font-size="10.7605" transform="translate(251.593, 453.385) rotate(270)" >pfet_01v8</text>
<text fill="#aaaa00"  xml:space="preserve" font-size="10.7605" transform="translate(236.073, 459.385) rotate(270)" >1 x 12 / 0.5</text>
<text fill="#cccccc"  xml:space="preserve" font-size="10.7605" transform="translate(360.233, 422.385) rotate(270)" >M67</text>
<text fill="#cccccc"  xml:space="preserve" font-size="10.7605" transform="translate(344.713, 453.385) rotate(270)" >pfet_01v8</text>
<text fill="#aaaa00"  xml:space="preserve" font-size="10.7605" transform="translate(329.193, 459.385) rotate(270)" >1 x 12 / 0.5</text>
<path class="l4" d="M514.091 632.185L529.611 632.185"/>
<path class="l4" d="M514.091 616.665L514.091 632.185"/>
<path class="l4" d="M477.231 616.665L519.911 616.665"/>
<path class="l4" d="M483.051 616.665L483.051 632.185"/>
<path class="l4" d="M467.531 632.185L483.051 632.185"/>
<path class="l4" d="M483.051 612.785L514.091 612.785"/>
<path class="l4" d="M498.571 601.145L498.571 606.965"/>
<circle class="l4" cx="498.571" cy="609.875" r="2.91" style="fill:none;"/>
<path class="l4" d="M886.571 632.185L902.091 632.185"/>
<path class="l4" d="M886.571 616.665L886.571 632.185"/>
<path class="l4" d="M849.711 616.665L892.391 616.665"/>
<path class="l4" d="M855.531 616.665L855.531 632.185"/>
<path class="l4" d="M840.011 632.185L855.531 632.185"/>
<path class="l4" d="M855.531 612.785L886.571 612.785"/>
<path class="l4" d="M871.051 601.145L871.051 606.965"/>
<circle class="l4" cx="871.051" cy="609.875" r="2.91" style="fill:none;"/>
<path class="l4" d="M700.331 632.185L715.851 632.185"/>
<path class="l4" d="M700.331 616.665L700.331 632.185"/>
<path class="l4" d="M663.471 616.665L706.151 616.665"/>
<path class="l4" d="M669.291 616.665L669.291 632.185"/>
<path class="l4" d="M653.771 632.185L669.291 632.185"/>
<path class="l4" d="M669.291 612.785L700.331 612.785"/>
<path class="l4" d="M684.811 601.145L684.811 606.965"/>
<circle class="l4" cx="684.811" cy="609.875" r="2.91" style="fill:none;"/>
<path class="l4" d="M793.451 632.185L808.971 632.185"/>
<path class="l4" d="M793.451 616.665L793.451 632.185"/>
<path class="l4" d="M756.591 616.665L799.271 616.665"/>
<path class="l4" d="M762.411 616.665L762.411 632.185"/>
<path class="l4" d="M746.891 632.185L762.411 632.185"/>
<path class="l4" d="M762.411 612.785L793.451 612.785"/>
<path class="l4" d="M777.931 601.145L777.931 606.965"/>
<circle class="l4" cx="777.931" cy="609.875" r="2.91" style="fill:none;"/>
<path class="l4" d="M607.211 632.185L622.731 632.185"/>
<path class="l4" d="M607.211 616.665L607.211 632.185"/>
<path class="l4" d="M570.351 616.665L613.031 616.665"/>
<path class="l4" d="M576.171 616.665L576.171 632.185"/>
<path class="l4" d="M560.651 632.185L576.171 632.185"/>
<path class="l4" d="M576.171 612.785L607.211 612.785"/>
<path class="l4" d="M591.691 601.145L591.691 606.965"/>
<circle class="l4" cx="591.691" cy="609.875" r="2.91" style="fill:none;"/>
<path class="l4" d="M979.691 632.185L995.211 632.185"/>
<path class="l4" d="M979.691 616.665L979.691 632.185"/>
<path class="l4" d="M942.831 616.665L985.511 616.665"/>
<path class="l4" d="M948.651 616.665L948.651 632.185"/>
<path class="l4" d="M933.131 632.185L948.651 632.185"/>
<path class="l4" d="M948.651 612.785L979.691 612.785"/>
<path class="l4" d="M964.171 601.145L964.171 606.965"/>
<circle class="l4" cx="964.171" cy="609.875" r="2.91" style="fill:none;"/>
<path class="l4" d="M550.305 621.838L550.305 632.185"/>
<path class="l4" d="M540.605 621.838L560.005 621.838"/>
<circle class="l4" cx="550.305" cy="621.838" r="3.62133" />
<path class="l4" d="M467.531 787.385L483.051 787.385"/>
<path class="l4" d="M483.051 771.865L483.051 787.385"/>
<path class="l4" d="M477.231 771.865L519.911 771.865"/>
<path class="l4" d="M514.091 771.865L514.091 787.385"/>
<path class="l4" d="M514.091 787.385L529.611 787.385"/>
<path class="l4" d="M483.051 767.985L514.091 767.985"/>
<path class="l4" d="M498.571 756.345L498.571 767.985"/>
<path class="l4" d="M560.651 787.385L576.171 787.385"/>
<path class="l4" d="M576.171 771.865L576.171 787.385"/>
<path class="l4" d="M570.351 771.865L613.031 771.865"/>
<path class="l4" d="M607.211 771.865L607.211 787.385"/>
<path class="l4" d="M607.211 787.385L622.731 787.385"/>
<path class="l4" d="M576.171 767.985L607.211 767.985"/>
<path class="l4" d="M591.691 756.345L591.691 767.985"/>
<path class="l4" d="M653.771 787.385L669.291 787.385"/>
<path class="l4" d="M669.291 771.865L669.291 787.385"/>
<path class="l4" d="M663.471 771.865L706.151 771.865"/>
<path class="l4" d="M700.331 771.865L700.331 787.385"/>
<path class="l4" d="M700.331 787.385L715.851 787.385"/>
<path class="l4" d="M669.291 767.985L700.331 767.985"/>
<path class="l4" d="M684.811 756.345L684.811 767.985"/>
<path class="l4" d="M746.891 787.385L762.411 787.385"/>
<path class="l4" d="M762.411 771.865L762.411 787.385"/>
<path class="l4" d="M756.591 771.865L799.271 771.865"/>
<path class="l4" d="M793.451 771.865L793.451 787.385"/>
<path class="l4" d="M793.451 787.385L808.971 787.385"/>
<path class="l4" d="M762.411 767.985L793.451 767.985"/>
<path class="l4" d="M777.931 756.345L777.931 767.985"/>
<path class="l4" d="M840.011 787.385L855.531 787.385"/>
<path class="l4" d="M855.531 771.865L855.531 787.385"/>
<path class="l4" d="M849.711 771.865L892.391 771.865"/>
<path class="l4" d="M886.571 771.865L886.571 787.385"/>
<path class="l4" d="M886.571 787.385L902.091 787.385"/>
<path class="l4" d="M855.531 767.985L886.571 767.985"/>
<path class="l4" d="M871.051 756.345L871.051 767.985"/>
<path class="l4" d="M933.131 787.385L948.651 787.385"/>
<path class="l4" d="M948.651 771.865L948.651 787.385"/>
<path class="l4" d="M942.831 771.865L985.511 771.865"/>
<path class="l4" d="M979.691 771.865L979.691 787.385"/>
<path class="l4" d="M979.691 787.385L995.211 787.385"/>
<path class="l4" d="M948.651 767.985L979.691 767.985"/>
<path class="l4" d="M964.171 756.345L964.171 767.985"/>
<path class="l4" d="M1491.85 632.185L1507.37 632.185"/>
<path class="l4" d="M1507.37 616.665L1507.37 632.185"/>
<path class="l4" d="M1501.55 616.665L1544.23 616.665"/>
<path class="l4" d="M1538.41 616.665L1538.41 632.185"/>
<path class="l4" d="M1538.41 632.185L1553.93 632.185"/>
<path class="l4" d="M1507.37 612.785L1538.41 612.785"/>
<path class="l4" d="M1522.89 601.145L1522.89 606.965"/>
<circle class="l4" cx="1522.89" cy="609.875" r="2.91" style="fill:none;"/>
<path class="l4" d="M1119.37 632.185L1134.89 632.185"/>
<path class="l4" d="M1134.89 616.665L1134.89 632.185"/>
<path class="l4" d="M1129.07 616.665L1171.75 616.665"/>
<path class="l4" d="M1165.93 616.665L1165.93 632.185"/>
<path class="l4" d="M1165.93 632.185L1181.45 632.185"/>
<path class="l4" d="M1134.89 612.785L1165.93 612.785"/>
<path class="l4" d="M1150.41 601.145L1150.41 606.965"/>
<circle class="l4" cx="1150.41" cy="609.875" r="2.91" style="fill:none;"/>
<path class="l4" d="M1305.61 632.185L1321.13 632.185"/>
<path class="l4" d="M1321.13 616.665L1321.13 632.185"/>
<path class="l4" d="M1315.31 616.665L1357.99 616.665"/>
<path class="l4" d="M1352.17 616.665L1352.17 632.185"/>
<path class="l4" d="M1352.17 632.185L1367.69 632.185"/>
<path class="l4" d="M1321.13 612.785L1352.17 612.785"/>
<path class="l4" d="M1336.65 601.145L1336.65 606.965"/>
<circle class="l4" cx="1336.65" cy="609.875" r="2.91" style="fill:none;"/>
<path class="l4" d="M1212.49 632.185L1228.01 632.185"/>
<path class="l4" d="M1228.01 616.665L1228.01 632.185"/>
<path class="l4" d="M1222.19 616.665L1264.87 616.665"/>
<path class="l4" d="M1259.05 616.665L1259.05 632.185"/>
<path class="l4" d="M1259.05 632.185L1274.57 632.185"/>
<path class="l4" d="M1228.01 612.785L1259.05 612.785"/>
<path class="l4" d="M1243.53 601.145L1243.53 606.965"/>
<circle class="l4" cx="1243.53" cy="609.875" r="2.91" style="fill:none;"/>
<path class="l4" d="M1398.73 632.185L1414.25 632.185"/>
<path class="l4" d="M1414.25 616.665L1414.25 632.185"/>
<path class="l4" d="M1408.43 616.665L1451.11 616.665"/>
<path class="l4" d="M1445.29 616.665L1445.29 632.185"/>
<path class="l4" d="M1445.29 632.185L1460.81 632.185"/>
<path class="l4" d="M1414.25 612.785L1445.29 612.785"/>
<path class="l4" d="M1429.77 601.145L1429.77 606.965"/>
<circle class="l4" cx="1429.77" cy="609.875" r="2.91" style="fill:none;"/>
<path class="l4" d="M1026.25 632.185L1041.77 632.185"/>
<path class="l4" d="M1041.77 616.665L1041.77 632.185"/>
<path class="l4" d="M1035.95 616.665L1078.63 616.665"/>
<path class="l4" d="M1072.81 616.665L1072.81 632.185"/>
<path class="l4" d="M1072.81 632.185L1088.33 632.185"/>
<path class="l4" d="M1041.77 612.785L1072.81 612.785"/>
<path class="l4" d="M1057.29 601.145L1057.29 606.965"/>
<circle class="l4" cx="1057.29" cy="609.875" r="2.91" style="fill:none;"/>
<path class="l4" d="M1471.16 621.838L1471.16 632.185"/>
<path class="l4" d="M1461.46 621.838L1480.86 621.838"/>
<circle class="l4" cx="1471.16" cy="621.838" r="3.62133" />
<path class="l4" d="M1538.41 787.385L1553.93 787.385"/>
<path class="l4" d="M1538.41 771.865L1538.41 787.385"/>
<path class="l4" d="M1501.55 771.865L1544.23 771.865"/>
<path class="l4" d="M1507.37 771.865L1507.37 787.385"/>
<path class="l4" d="M1491.85 787.385L1507.37 787.385"/>
<path class="l4" d="M1507.37 767.985L1538.41 767.985"/>
<path class="l4" d="M1522.89 756.345L1522.89 767.985"/>
<path class="l4" d="M1445.29 787.385L1460.81 787.385"/>
<path class="l4" d="M1445.29 771.865L1445.29 787.385"/>
<path class="l4" d="M1408.43 771.865L1451.11 771.865"/>
<path class="l4" d="M1414.25 771.865L1414.25 787.385"/>
<path class="l4" d="M1398.73 787.385L1414.25 787.385"/>
<path class="l4" d="M1414.25 767.985L1445.29 767.985"/>
<path class="l4" d="M1429.77 756.345L1429.77 767.985"/>
<path class="l4" d="M1352.17 787.385L1367.69 787.385"/>
<path class="l4" d="M1352.17 771.865L1352.17 787.385"/>
<path class="l4" d="M1315.31 771.865L1357.99 771.865"/>
<path class="l4" d="M1321.13 771.865L1321.13 787.385"/>
<path class="l4" d="M1305.61 787.385L1321.13 787.385"/>
<path class="l4" d="M1321.13 767.985L1352.17 767.985"/>
<path class="l4" d="M1336.65 756.345L1336.65 767.985"/>
<path class="l4" d="M1259.05 787.385L1274.57 787.385"/>
<path class="l4" d="M1259.05 771.865L1259.05 787.385"/>
<path class="l4" d="M1222.19 771.865L1264.87 771.865"/>
<path class="l4" d="M1228.01 771.865L1228.01 787.385"/>
<path class="l4" d="M1212.49 787.385L1228.01 787.385"/>
<path class="l4" d="M1228.01 767.985L1259.05 767.985"/>
<path class="l4" d="M1243.53 756.345L1243.53 767.985"/>
<path class="l4" d="M1165.93 787.385L1181.45 787.385"/>
<path class="l4" d="M1165.93 771.865L1165.93 787.385"/>
<path class="l4" d="M1129.07 771.865L1171.75 771.865"/>
<path class="l4" d="M1134.89 771.865L1134.89 787.385"/>
<path class="l4" d="M1119.37 787.385L1134.89 787.385"/>
<path class="l4" d="M1134.89 767.985L1165.93 767.985"/>
<path class="l4" d="M1150.41 756.345L1150.41 767.985"/>
<path class="l4" d="M1072.81 787.385L1088.33 787.385"/>
<path class="l4" d="M1072.81 771.865L1072.81 787.385"/>
<path class="l4" d="M1035.95 771.865L1078.63 771.865"/>
<path class="l4" d="M1041.77 771.865L1041.77 787.385"/>
<path class="l4" d="M1026.25 787.385L1041.77 787.385"/>
<path class="l4" d="M1041.77 767.985L1072.81 767.985"/>
<path class="l4" d="M1057.29 756.345L1057.29 767.985"/>
<path class="l4" d="M1005.56 787.385L1005.56 792.558"/>
<path class="l4" d="M995.858 792.558L1015.26 792.558"/>
<path class="l4" d="M1005.56 806.138L1015.26 792.558"/>
<path class="l4" d="M995.858 792.558L1005.56 806.138"/>
<path class="l4" d="M933.131 290.745L948.651 290.745"/>
<path class="l4" d="M948.651 290.745L948.651 306.265"/>
<path class="l4" d="M942.831 306.265L985.511 306.265"/>
<path class="l4" d="M979.691 290.745L979.691 306.265"/>
<path class="l4" d="M979.691 290.745L995.211 290.745"/>
<path class="l4" d="M948.651 310.145L979.691 310.145"/>
<path class="l4" d="M964.171 310.145L964.171 321.785"/>
<path class="l4" d="M840.011 290.745L855.531 290.745"/>
<path class="l4" d="M855.531 290.745L855.531 306.265"/>
<path class="l4" d="M849.711 306.265L892.391 306.265"/>
<path class="l4" d="M886.571 290.745L886.571 306.265"/>
<path class="l4" d="M886.571 290.745L902.091 290.745"/>
<path class="l4" d="M855.531 310.145L886.571 310.145"/>
<path class="l4" d="M871.051 310.145L871.051 321.785"/>
<path class="l4" d="M746.891 290.745L762.411 290.745"/>
<path class="l4" d="M762.411 290.745L762.411 306.265"/>
<path class="l4" d="M756.591 306.265L799.271 306.265"/>
<path class="l4" d="M793.451 290.745L793.451 306.265"/>
<path class="l4" d="M793.451 290.745L808.971 290.745"/>
<path class="l4" d="M762.411 310.145L793.451 310.145"/>
<path class="l4" d="M777.931 310.145L777.931 321.785"/>
<path class="l4" d="M653.771 290.745L669.291 290.745"/>
<path class="l4" d="M669.291 290.745L669.291 306.265"/>
<path class="l4" d="M663.471 306.265L706.151 306.265"/>
<path class="l4" d="M700.331 290.745L700.331 306.265"/>
<path class="l4" d="M700.331 290.745L715.851 290.745"/>
<path class="l4" d="M669.291 310.145L700.331 310.145"/>
<path class="l4" d="M684.811 310.145L684.811 321.785"/>
<path class="l4" d="M560.651 290.745L576.171 290.745"/>
<path class="l4" d="M576.171 290.745L576.171 306.265"/>
<path class="l4" d="M570.351 306.265L613.031 306.265"/>
<path class="l4" d="M607.211 290.745L607.211 306.265"/>
<path class="l4" d="M607.211 290.745L622.731 290.745"/>
<path class="l4" d="M576.171 310.145L607.211 310.145"/>
<path class="l4" d="M591.691 310.145L591.691 321.785"/>
<path class="l4" d="M467.531 290.745L483.051 290.745"/>
<path class="l4" d="M483.051 290.745L483.051 306.265"/>
<path class="l4" d="M477.231 306.265L519.911 306.265"/>
<path class="l4" d="M514.091 290.745L514.091 306.265"/>
<path class="l4" d="M514.091 290.745L529.611 290.745"/>
<path class="l4" d="M483.051 310.145L514.091 310.145"/>
<path class="l4" d="M498.571 310.145L498.571 321.785"/>
<path class="l4" d="M933.131 104.505L948.651 104.505"/>
<path class="l4" d="M948.651 104.505L948.651 120.025"/>
<path class="l4" d="M942.831 120.025L985.511 120.025"/>
<path class="l4" d="M979.691 104.505L979.691 120.025"/>
<path class="l4" d="M979.691 104.505L995.211 104.505"/>
<path class="l4" d="M948.651 123.905L979.691 123.905"/>
<path class="l4" d="M964.171 129.725L964.171 135.545"/>
<circle class="l4" cx="964.171" cy="126.815" r="2.91" style="fill:none;"/>
<path class="l4" d="M560.651 104.505L576.171 104.505"/>
<path class="l4" d="M576.171 104.505L576.171 120.025"/>
<path class="l4" d="M570.351 120.025L613.031 120.025"/>
<path class="l4" d="M607.211 104.505L607.211 120.025"/>
<path class="l4" d="M607.211 104.505L622.731 104.505"/>
<path class="l4" d="M576.171 123.905L607.211 123.905"/>
<path class="l4" d="M591.691 129.725L591.691 135.545"/>
<circle class="l4" cx="591.691" cy="126.815" r="2.91" style="fill:none;"/>
<path class="l4" d="M746.891 104.505L762.411 104.505"/>
<path class="l4" d="M762.411 104.505L762.411 120.025"/>
<path class="l4" d="M756.591 120.025L799.271 120.025"/>
<path class="l4" d="M793.451 104.505L793.451 120.025"/>
<path class="l4" d="M793.451 104.505L808.971 104.505"/>
<path class="l4" d="M762.411 123.905L793.451 123.905"/>
<path class="l4" d="M777.931 129.725L777.931 135.545"/>
<circle class="l4" cx="777.931" cy="126.815" r="2.91" style="fill:none;"/>
<path class="l4" d="M653.771 104.505L669.291 104.505"/>
<path class="l4" d="M669.291 104.505L669.291 120.025"/>
<path class="l4" d="M663.471 120.025L706.151 120.025"/>
<path class="l4" d="M700.331 104.505L700.331 120.025"/>
<path class="l4" d="M700.331 104.505L715.851 104.505"/>
<path class="l4" d="M669.291 123.905L700.331 123.905"/>
<path class="l4" d="M684.811 129.725L684.811 135.545"/>
<circle class="l4" cx="684.811" cy="126.815" r="2.91" style="fill:none;"/>
<path class="l4" d="M840.011 104.505L855.531 104.505"/>
<path class="l4" d="M855.531 104.505L855.531 120.025"/>
<path class="l4" d="M849.711 120.025L892.391 120.025"/>
<path class="l4" d="M886.571 104.505L886.571 120.025"/>
<path class="l4" d="M886.571 104.505L902.091 104.505"/>
<path class="l4" d="M855.531 123.905L886.571 123.905"/>
<path class="l4" d="M871.051 129.725L871.051 135.545"/>
<circle class="l4" cx="871.051" cy="126.815" r="2.91" style="fill:none;"/>
<path class="l4" d="M467.531 104.505L483.051 104.505"/>
<path class="l4" d="M483.051 104.505L483.051 120.025"/>
<path class="l4" d="M477.231 120.025L519.911 120.025"/>
<path class="l4" d="M514.091 104.505L514.091 120.025"/>
<path class="l4" d="M514.091 104.505L529.611 104.505"/>
<path class="l4" d="M483.051 123.905L514.091 123.905"/>
<path class="l4" d="M498.571 129.725L498.571 135.545"/>
<circle class="l4" cx="498.571" cy="126.815" r="2.91" style="fill:none;"/>
<path class="l4" d="M539.958 290.745L539.958 295.918"/>
<path class="l4" d="M530.258 295.918L549.658 295.918"/>
<path class="l4" d="M539.958 309.498L549.658 295.918"/>
<path class="l4" d="M530.258 295.918L539.958 309.498"/>
<path class="l4" d="M1005.56 83.8116L1005.56 94.1583"/>
<path class="l4" d="M995.858 83.8116L1015.26 83.8116"/>
<circle class="l4" cx="1005.56" cy="83.8116" r="3.62133" />
<path class="l4" d="M1072.81 290.745L1088.33 290.745"/>
<path class="l4" d="M1072.81 290.745L1072.81 306.265"/>
<path class="l4" d="M1035.95 306.265L1078.63 306.265"/>
<path class="l4" d="M1041.77 290.745L1041.77 306.265"/>
<path class="l4" d="M1026.25 290.745L1041.77 290.745"/>
<path class="l4" d="M1041.77 310.145L1072.81 310.145"/>
<path class="l4" d="M1057.29 310.145L1057.29 321.785"/>
<path class="l4" d="M1165.93 290.745L1181.45 290.745"/>
<path class="l4" d="M1165.93 290.745L1165.93 306.265"/>
<path class="l4" d="M1129.07 306.265L1171.75 306.265"/>
<path class="l4" d="M1134.89 290.745L1134.89 306.265"/>
<path class="l4" d="M1119.37 290.745L1134.89 290.745"/>
<path class="l4" d="M1134.89 310.145L1165.93 310.145"/>
<path class="l4" d="M1150.41 310.145L1150.41 321.785"/>
<path class="l4" d="M1259.05 290.745L1274.57 290.745"/>
<path class="l4" d="M1259.05 290.745L1259.05 306.265"/>
<path class="l4" d="M1222.19 306.265L1264.87 306.265"/>
<path class="l4" d="M1228.01 290.745L1228.01 306.265"/>
<path class="l4" d="M1212.49 290.745L1228.01 290.745"/>
<path class="l4" d="M1228.01 310.145L1259.05 310.145"/>
<path class="l4" d="M1243.53 310.145L1243.53 321.785"/>
<path class="l4" d="M1352.17 290.745L1367.69 290.745"/>
<path class="l4" d="M1352.17 290.745L1352.17 306.265"/>
<path class="l4" d="M1315.31 306.265L1357.99 306.265"/>
<path class="l4" d="M1321.13 290.745L1321.13 306.265"/>
<path class="l4" d="M1305.61 290.745L1321.13 290.745"/>
<path class="l4" d="M1321.13 310.145L1352.17 310.145"/>
<path class="l4" d="M1336.65 310.145L1336.65 321.785"/>
<path class="l4" d="M1445.29 290.745L1460.81 290.745"/>
<path class="l4" d="M1445.29 290.745L1445.29 306.265"/>
<path class="l4" d="M1408.43 306.265L1451.11 306.265"/>
<path class="l4" d="M1414.25 290.745L1414.25 306.265"/>
<path class="l4" d="M1398.73 290.745L1414.25 290.745"/>
<path class="l4" d="M1414.25 310.145L1445.29 310.145"/>
<path class="l4" d="M1429.77 310.145L1429.77 321.785"/>
<path class="l4" d="M1538.41 290.745L1553.93 290.745"/>
<path class="l4" d="M1538.41 290.745L1538.41 306.265"/>
<path class="l4" d="M1501.55 306.265L1544.23 306.265"/>
<path class="l4" d="M1507.37 290.745L1507.37 306.265"/>
<path class="l4" d="M1491.85 290.745L1507.37 290.745"/>
<path class="l4" d="M1507.37 310.145L1538.41 310.145"/>
<path class="l4" d="M1522.89 310.145L1522.89 321.785"/>
<path class="l4" d="M1072.81 104.505L1088.33 104.505"/>
<path class="l4" d="M1072.81 104.505L1072.81 120.025"/>
<path class="l4" d="M1035.95 120.025L1078.63 120.025"/>
<path class="l4" d="M1041.77 104.505L1041.77 120.025"/>
<path class="l4" d="M1026.25 104.505L1041.77 104.505"/>
<path class="l4" d="M1041.77 123.905L1072.81 123.905"/>
<path class="l4" d="M1057.29 129.725L1057.29 135.545"/>
<circle class="l4" cx="1057.29" cy="126.815" r="2.91" style="fill:none;"/>
<path class="l4" d="M1445.29 104.505L1460.81 104.505"/>
<path class="l4" d="M1445.29 104.505L1445.29 120.025"/>
<path class="l4" d="M1408.43 120.025L1451.11 120.025"/>
<path class="l4" d="M1414.25 104.505L1414.25 120.025"/>
<path class="l4" d="M1398.73 104.505L1414.25 104.505"/>
<path class="l4" d="M1414.25 123.905L1445.29 123.905"/>
<path class="l4" d="M1429.77 129.725L1429.77 135.545"/>
<circle class="l4" cx="1429.77" cy="126.815" r="2.91" style="fill:none;"/>
<path class="l4" d="M1259.05 104.505L1274.57 104.505"/>
<path class="l4" d="M1259.05 104.505L1259.05 120.025"/>
<path class="l4" d="M1222.19 120.025L1264.87 120.025"/>
<path class="l4" d="M1228.01 104.505L1228.01 120.025"/>
<path class="l4" d="M1212.49 104.505L1228.01 104.505"/>
<path class="l4" d="M1228.01 123.905L1259.05 123.905"/>
<path class="l4" d="M1243.53 129.725L1243.53 135.545"/>
<circle class="l4" cx="1243.53" cy="126.815" r="2.91" style="fill:none;"/>
<path class="l4" d="M1352.17 104.505L1367.69 104.505"/>
<path class="l4" d="M1352.17 104.505L1352.17 120.025"/>
<path class="l4" d="M1315.31 120.025L1357.99 120.025"/>
<path class="l4" d="M1321.13 104.505L1321.13 120.025"/>
<path class="l4" d="M1305.61 104.505L1321.13 104.505"/>
<path class="l4" d="M1321.13 123.905L1352.17 123.905"/>
<path class="l4" d="M1336.65 129.725L1336.65 135.545"/>
<circle class="l4" cx="1336.65" cy="126.815" r="2.91" style="fill:none;"/>
<path class="l4" d="M1165.93 104.505L1181.45 104.505"/>
<path class="l4" d="M1165.93 104.505L1165.93 120.025"/>
<path class="l4" d="M1129.07 120.025L1171.75 120.025"/>
<path class="l4" d="M1134.89 104.505L1134.89 120.025"/>
<path class="l4" d="M1119.37 104.505L1134.89 104.505"/>
<path class="l4" d="M1134.89 123.905L1165.93 123.905"/>
<path class="l4" d="M1150.41 129.725L1150.41 135.545"/>
<circle class="l4" cx="1150.41" cy="126.815" r="2.91" style="fill:none;"/>
<path class="l4" d="M1538.41 104.505L1553.93 104.505"/>
<path class="l4" d="M1538.41 104.505L1538.41 120.025"/>
<path class="l4" d="M1501.55 120.025L1544.23 120.025"/>
<path class="l4" d="M1507.37 104.505L1507.37 120.025"/>
<path class="l4" d="M1491.85 104.505L1507.37 104.505"/>
<path class="l4" d="M1507.37 123.905L1538.41 123.905"/>
<path class="l4" d="M1522.89 129.725L1522.89 135.545"/>
<circle class="l4" cx="1522.89" cy="126.815" r="2.91" style="fill:none;"/>
<path class="l4" d="M1481.5 290.745L1481.5 295.918"/>
<path class="l4" d="M1471.8 295.918L1491.2 295.918"/>
<path class="l4" d="M1471.8 295.918L1481.5 309.498"/>
<path class="l4" d="M1481.5 309.498L1491.2 295.918"/>
<path class="l4" d="M441.665 497.678L457.185 497.678"/>
<path class="l4" d="M441.665 497.678L441.665 513.198"/>
<path class="l4" d="M404.805 513.198L447.485 513.198"/>
<path class="l4" d="M410.625 497.678L410.625 513.198"/>
<path class="l4" d="M395.105 497.678L410.625 497.678"/>
<path class="l4" d="M410.625 517.078L441.665 517.078"/>
<path class="l4" d="M426.145 517.078L426.145 528.718"/>
<path class="l4" d="M301.985 497.678L317.505 497.678"/>
<path class="l4" d="M317.505 497.678L317.505 513.198"/>
<path class="l4" d="M311.685 513.198L354.365 513.198"/>
<path class="l4" d="M348.545 497.678L348.545 513.198"/>
<path class="l4" d="M348.545 497.678L364.065 497.678"/>
<path class="l4" d="M317.505 517.078L348.545 517.078"/>
<path class="l4" d="M333.025 517.078L333.025 528.718"/>
<path class="l4" d="M115.745 497.678L131.265 497.678"/>
<path class="l4" d="M131.265 497.678L131.265 513.198"/>
<path class="l4" d="M125.445 513.198L168.125 513.198"/>
<path class="l4" d="M162.305 497.678L162.305 513.198"/>
<path class="l4" d="M162.305 497.678L177.825 497.678"/>
<path class="l4" d="M131.265 517.078L162.305 517.078"/>
<path class="l4" d="M146.785 517.078L146.785 528.718"/>
<path class="l4" d="M255.425 497.678L270.945 497.678"/>
<path class="l4" d="M255.425 497.678L255.425 513.198"/>
<path class="l4" d="M218.565 513.198L261.245 513.198"/>
<path class="l4" d="M224.385 497.678L224.385 513.198"/>
<path class="l4" d="M208.865 497.678L224.385 497.678"/>
<path class="l4" d="M224.385 517.078L255.425 517.078"/>
<path class="l4" d="M239.905 517.078L239.905 528.718"/>
<path class="l4" d="M255.425 394.212L270.945 394.212"/>
<path class="l4" d="M255.425 378.692L255.425 394.212"/>
<path class="l4" d="M218.565 378.692L261.245 378.692"/>
<path class="l4" d="M224.385 378.692L224.385 394.212"/>
<path class="l4" d="M208.865 394.212L224.385 394.212"/>
<path class="l4" d="M224.385 374.812L255.425 374.812"/>
<path class="l4" d="M239.905 363.172L239.905 368.992"/>
<circle class="l4" cx="239.905" cy="371.902" r="2.91" style="fill:none;"/>
<path class="l4" d="M348.545 394.212L364.065 394.212"/>
<path class="l4" d="M348.545 378.692L348.545 394.212"/>
<path class="l4" d="M311.685 378.692L354.365 378.692"/>
<path class="l4" d="M317.505 378.692L317.505 394.212"/>
<path class="l4" d="M301.985 394.212L317.505 394.212"/>
<path class="l4" d="M317.505 374.812L348.545 374.812"/>
<path class="l4" d="M333.025 363.172L333.025 368.992"/>
<circle class="l4" cx="333.025" cy="371.902" r="2.91" style="fill:none;"/>
<path class="l4" d="M281.291 383.865L281.291 394.212"/>
<path class="l4" d="M271.591 383.865L290.991 383.865"/>
<circle class="l4" cx="281.291" cy="383.865" r="3.62133" />
<path class="l4" d="M198.518 497.678L198.518 502.852"/>
<path class="l4" d="M188.818 502.852L208.218 502.852"/>
<path class="l4" d="M188.818 502.852L198.518 516.432"/>
<path class="l4" d="M198.518 516.432L208.218 502.852"/>
<path class="l4" d="M384.758 497.678L384.758 502.852"/>
<path class="l4" d="M375.058 502.852L394.458 502.852"/>
<path class="l4" d="M375.058 502.852L384.758 516.432"/>
<path class="l4" d="M384.758 516.432L394.458 502.852"/>
<path class="l5" d="M467.014 631.668L468.049 631.668L468.049 632.702L467.014 632.702L467.014 631.668z"/>
<path class="l5" d="M498.054 600.628L499.089 600.628L499.089 601.662L498.054 601.662L498.054 600.628z"/>
<path class="l5" d="M529.094 631.668L530.129 631.668L530.129 632.702L529.094 632.702L529.094 631.668z"/>
<path class="l5" d="M839.494 631.668L840.529 631.668L840.529 632.702L839.494 632.702L839.494 631.668z"/>
<path class="l5" d="M870.534 600.628L871.569 600.628L871.569 601.662L870.534 601.662L870.534 600.628z"/>
<path class="l5" d="M901.574 631.668L902.609 631.668L902.609 632.702L901.574 632.702L901.574 631.668z"/>
<path class="l5" d="M653.254 631.668L654.289 631.668L654.289 632.702L653.254 632.702L653.254 631.668z"/>
<path class="l5" d="M684.294 600.628L685.329 600.628L685.329 601.662L684.294 601.662L684.294 600.628z"/>
<path class="l5" d="M715.334 631.668L716.369 631.668L716.369 632.702L715.334 632.702L715.334 631.668z"/>
<path class="l5" d="M746.374 631.668L747.409 631.668L747.409 632.702L746.374 632.702L746.374 631.668z"/>
<path class="l5" d="M777.414 600.628L778.449 600.628L778.449 601.662L777.414 601.662L777.414 600.628z"/>
<path class="l5" d="M808.454 631.668L809.489 631.668L809.489 632.702L808.454 632.702L808.454 631.668z"/>
<path class="l5" d="M560.134 631.668L561.169 631.668L561.169 632.702L560.134 632.702L560.134 631.668z"/>
<path class="l5" d="M591.174 600.628L592.209 600.628L592.209 601.662L591.174 601.662L591.174 600.628z"/>
<path class="l5" d="M622.214 631.668L623.249 631.668L623.249 632.702L622.214 632.702L622.214 631.668z"/>
<path class="l5" d="M932.614 631.668L933.649 631.668L933.649 632.702L932.614 632.702L932.614 631.668z"/>
<path class="l5" d="M963.654 600.628L964.689 600.628L964.689 601.662L963.654 601.662L963.654 600.628z"/>
<path class="l5" d="M994.694 631.668L995.729 631.668L995.729 632.702L994.694 632.702L994.694 631.668z"/>
<path class="l5" d="M549.787 631.668L550.822 631.668L550.822 632.702L549.787 632.702L549.787 631.668z"/>
<path class="l5" d="M467.014 786.868L468.049 786.868L468.049 787.902L467.014 787.902L467.014 786.868z"/>
<path class="l5" d="M498.054 755.828L499.089 755.828L499.089 756.862L498.054 756.862L498.054 755.828z"/>
<path class="l5" d="M529.094 786.868L530.129 786.868L530.129 787.902L529.094 787.902L529.094 786.868z"/>
<path class="l5" d="M560.134 786.868L561.169 786.868L561.169 787.902L560.134 787.902L560.134 786.868z"/>
<path class="l5" d="M591.174 755.828L592.209 755.828L592.209 756.862L591.174 756.862L591.174 755.828z"/>
<path class="l5" d="M622.214 786.868L623.249 786.868L623.249 787.902L622.214 787.902L622.214 786.868z"/>
<path class="l5" d="M653.254 786.868L654.289 786.868L654.289 787.902L653.254 787.902L653.254 786.868z"/>
<path class="l5" d="M684.294 755.828L685.329 755.828L685.329 756.862L684.294 756.862L684.294 755.828z"/>
<path class="l5" d="M715.334 786.868L716.369 786.868L716.369 787.902L715.334 787.902L715.334 786.868z"/>
<path class="l5" d="M746.374 786.868L747.409 786.868L747.409 787.902L746.374 787.902L746.374 786.868z"/>
<path class="l5" d="M777.414 755.828L778.449 755.828L778.449 756.862L777.414 756.862L777.414 755.828z"/>
<path class="l5" d="M808.454 786.868L809.489 786.868L809.489 787.902L808.454 787.902L808.454 786.868z"/>
<path class="l5" d="M839.494 786.868L840.529 786.868L840.529 787.902L839.494 787.902L839.494 786.868z"/>
<path class="l5" d="M870.534 755.828L871.569 755.828L871.569 756.862L870.534 756.862L870.534 755.828z"/>
<path class="l5" d="M901.574 786.868L902.609 786.868L902.609 787.902L901.574 787.902L901.574 786.868z"/>
<path class="l5" d="M932.614 786.868L933.649 786.868L933.649 787.902L932.614 787.902L932.614 786.868z"/>
<path class="l5" d="M963.654 755.828L964.689 755.828L964.689 756.862L963.654 756.862L963.654 755.828z"/>
<path class="l5" d="M994.694 786.868L995.729 786.868L995.729 787.902L994.694 787.902L994.694 786.868z"/>
<path class="l5" d="M1553.41 631.668L1554.45 631.668L1554.45 632.702L1553.41 632.702L1553.41 631.668z"/>
<path class="l5" d="M1522.37 600.628L1523.41 600.628L1523.41 601.662L1522.37 601.662L1522.37 600.628z"/>
<path class="l5" d="M1491.33 631.668L1492.37 631.668L1492.37 632.702L1491.33 632.702L1491.33 631.668z"/>
<path class="l5" d="M1180.93 631.668L1181.97 631.668L1181.97 632.702L1180.93 632.702L1180.93 631.668z"/>
<path class="l5" d="M1149.89 600.628L1150.93 600.628L1150.93 601.662L1149.89 601.662L1149.89 600.628z"/>
<path class="l5" d="M1118.85 631.668L1119.89 631.668L1119.89 632.702L1118.85 632.702L1118.85 631.668z"/>
<path class="l5" d="M1367.17 631.668L1368.21 631.668L1368.21 632.702L1367.17 632.702L1367.17 631.668z"/>
<path class="l5" d="M1336.13 600.628L1337.17 600.628L1337.17 601.662L1336.13 601.662L1336.13 600.628z"/>
<path class="l5" d="M1305.09 631.668L1306.13 631.668L1306.13 632.702L1305.09 632.702L1305.09 631.668z"/>
<path class="l5" d="M1274.05 631.668L1275.09 631.668L1275.09 632.702L1274.05 632.702L1274.05 631.668z"/>
<path class="l5" d="M1243.01 600.628L1244.05 600.628L1244.05 601.662L1243.01 601.662L1243.01 600.628z"/>
<path class="l5" d="M1211.97 631.668L1213.01 631.668L1213.01 632.702L1211.97 632.702L1211.97 631.668z"/>
<path class="l5" d="M1460.29 631.668L1461.33 631.668L1461.33 632.702L1460.29 632.702L1460.29 631.668z"/>
<path class="l5" d="M1429.25 600.628L1430.29 600.628L1430.29 601.662L1429.25 601.662L1429.25 600.628z"/>
<path class="l5" d="M1398.21 631.668L1399.25 631.668L1399.25 632.702L1398.21 632.702L1398.21 631.668z"/>
<path class="l5" d="M1087.81 631.668L1088.85 631.668L1088.85 632.702L1087.81 632.702L1087.81 631.668z"/>
<path class="l5" d="M1056.77 600.628L1057.81 600.628L1057.81 601.662L1056.77 601.662L1056.77 600.628z"/>
<path class="l5" d="M1025.73 631.668L1026.77 631.668L1026.77 632.702L1025.73 632.702L1025.73 631.668z"/>
<path class="l5" d="M1470.64 631.668L1471.68 631.668L1471.68 632.702L1470.64 632.702L1470.64 631.668z"/>
<path class="l5" d="M1553.41 786.868L1554.45 786.868L1554.45 787.902L1553.41 787.902L1553.41 786.868z"/>
<path class="l5" d="M1522.37 755.828L1523.41 755.828L1523.41 756.862L1522.37 756.862L1522.37 755.828z"/>
<path class="l5" d="M1491.33 786.868L1492.37 786.868L1492.37 787.902L1491.33 787.902L1491.33 786.868z"/>
<path class="l5" d="M1460.29 786.868L1461.33 786.868L1461.33 787.902L1460.29 787.902L1460.29 786.868z"/>
<path class="l5" d="M1429.25 755.828L1430.29 755.828L1430.29 756.862L1429.25 756.862L1429.25 755.828z"/>
<path class="l5" d="M1398.21 786.868L1399.25 786.868L1399.25 787.902L1398.21 787.902L1398.21 786.868z"/>
<path class="l5" d="M1367.17 786.868L1368.21 786.868L1368.21 787.902L1367.17 787.902L1367.17 786.868z"/>
<path class="l5" d="M1336.13 755.828L1337.17 755.828L1337.17 756.862L1336.13 756.862L1336.13 755.828z"/>
<path class="l5" d="M1305.09 786.868L1306.13 786.868L1306.13 787.902L1305.09 787.902L1305.09 786.868z"/>
<path class="l5" d="M1274.05 786.868L1275.09 786.868L1275.09 787.902L1274.05 787.902L1274.05 786.868z"/>
<path class="l5" d="M1243.01 755.828L1244.05 755.828L1244.05 756.862L1243.01 756.862L1243.01 755.828z"/>
<path class="l5" d="M1211.97 786.868L1213.01 786.868L1213.01 787.902L1211.97 787.902L1211.97 786.868z"/>
<path class="l5" d="M1180.93 786.868L1181.97 786.868L1181.97 787.902L1180.93 787.902L1180.93 786.868z"/>
<path class="l5" d="M1149.89 755.828L1150.93 755.828L1150.93 756.862L1149.89 756.862L1149.89 755.828z"/>
<path class="l5" d="M1118.85 786.868L1119.89 786.868L1119.89 787.902L1118.85 787.902L1118.85 786.868z"/>
<path class="l5" d="M1087.81 786.868L1088.85 786.868L1088.85 787.902L1087.81 787.902L1087.81 786.868z"/>
<path class="l5" d="M1056.77 755.828L1057.81 755.828L1057.81 756.862L1056.77 756.862L1056.77 755.828z"/>
<path class="l5" d="M1025.73 786.868L1026.77 786.868L1026.77 787.902L1025.73 787.902L1025.73 786.868z"/>
<path class="l5" d="M458.478 590.798L467.531 590.798"/>
<path class="l5" d="M449.425 590.798L453.305 595.972L462.358 595.972L458.478 590.798L462.358 585.625L453.305 585.625L449.425 590.798"/>
<path class="l5" d="M466.238 589.505L468.825 589.505L468.825 592.092L466.238 592.092L466.238 589.505z"/>
<path class="l5" d="M458.478 787.385L467.531 787.385"/>
<path class="l5" d="M449.425 787.385L453.305 792.558L462.358 792.558L458.478 787.385L462.358 782.212L453.305 782.212L449.425 787.385"/>
<path class="l5" d="M466.238 786.092L468.825 786.092L468.825 788.678L466.238 788.678L466.238 786.092z"/>
<path class="l5" d="M1005.04 786.868L1006.08 786.868L1006.08 787.902L1005.04 787.902L1005.04 786.868z"/>
<path class="l5" d="M932.614 290.228L933.649 290.228L933.649 291.262L932.614 291.262L932.614 290.228z"/>
<path class="l5" d="M963.654 321.268L964.689 321.268L964.689 322.302L963.654 322.302L963.654 321.268z"/>
<path class="l5" d="M994.694 290.228L995.729 290.228L995.729 291.262L994.694 291.262L994.694 290.228z"/>
<path class="l5" d="M839.494 290.228L840.529 290.228L840.529 291.262L839.494 291.262L839.494 290.228z"/>
<path class="l5" d="M870.534 321.268L871.569 321.268L871.569 322.302L870.534 322.302L870.534 321.268z"/>
<path class="l5" d="M901.574 290.228L902.609 290.228L902.609 291.262L901.574 291.262L901.574 290.228z"/>
<path class="l5" d="M746.374 290.228L747.409 290.228L747.409 291.262L746.374 291.262L746.374 290.228z"/>
<path class="l5" d="M777.414 321.268L778.449 321.268L778.449 322.302L777.414 322.302L777.414 321.268z"/>
<path class="l5" d="M808.454 290.228L809.489 290.228L809.489 291.262L808.454 291.262L808.454 290.228z"/>
<path class="l5" d="M653.254 290.228L654.289 290.228L654.289 291.262L653.254 291.262L653.254 290.228z"/>
<path class="l5" d="M684.294 321.268L685.329 321.268L685.329 322.302L684.294 322.302L684.294 321.268z"/>
<path class="l5" d="M715.334 290.228L716.369 290.228L716.369 291.262L715.334 291.262L715.334 290.228z"/>
<path class="l5" d="M560.134 290.228L561.169 290.228L561.169 291.262L560.134 291.262L560.134 290.228z"/>
<path class="l5" d="M591.174 321.268L592.209 321.268L592.209 322.302L591.174 322.302L591.174 321.268z"/>
<path class="l5" d="M622.214 290.228L623.249 290.228L623.249 291.262L622.214 291.262L622.214 290.228z"/>
<path class="l5" d="M467.014 290.228L468.049 290.228L468.049 291.262L467.014 291.262L467.014 290.228z"/>
<path class="l5" d="M498.054 321.268L499.089 321.268L499.089 322.302L498.054 322.302L498.054 321.268z"/>
<path class="l5" d="M529.094 290.228L530.129 290.228L530.129 291.262L529.094 291.262L529.094 290.228z"/>
<path class="l5" d="M994.694 103.988L995.729 103.988L995.729 105.022L994.694 105.022L994.694 103.988z"/>
<path class="l5" d="M963.654 135.028L964.689 135.028L964.689 136.062L963.654 136.062L963.654 135.028z"/>
<path class="l5" d="M932.614 103.988L933.649 103.988L933.649 105.022L932.614 105.022L932.614 103.988z"/>
<path class="l5" d="M622.214 103.988L623.249 103.988L623.249 105.022L622.214 105.022L622.214 103.988z"/>
<path class="l5" d="M591.174 135.028L592.209 135.028L592.209 136.062L591.174 136.062L591.174 135.028z"/>
<path class="l5" d="M560.134 103.988L561.169 103.988L561.169 105.022L560.134 105.022L560.134 103.988z"/>
<path class="l5" d="M808.454 103.988L809.489 103.988L809.489 105.022L808.454 105.022L808.454 103.988z"/>
<path class="l5" d="M777.414 135.028L778.449 135.028L778.449 136.062L777.414 136.062L777.414 135.028z"/>
<path class="l5" d="M746.374 103.988L747.409 103.988L747.409 105.022L746.374 105.022L746.374 103.988z"/>
<path class="l5" d="M715.334 103.988L716.369 103.988L716.369 105.022L715.334 105.022L715.334 103.988z"/>
<path class="l5" d="M684.294 135.028L685.329 135.028L685.329 136.062L684.294 136.062L684.294 135.028z"/>
<path class="l5" d="M653.254 103.988L654.289 103.988L654.289 105.022L653.254 105.022L653.254 103.988z"/>
<path class="l5" d="M901.574 103.988L902.609 103.988L902.609 105.022L901.574 105.022L901.574 103.988z"/>
<path class="l5" d="M870.534 135.028L871.569 135.028L871.569 136.062L870.534 136.062L870.534 135.028z"/>
<path class="l5" d="M839.494 103.988L840.529 103.988L840.529 105.022L839.494 105.022L839.494 103.988z"/>
<path class="l5" d="M529.094 103.988L530.129 103.988L530.129 105.022L529.094 105.022L529.094 103.988z"/>
<path class="l5" d="M498.054 135.028L499.089 135.028L499.089 136.062L498.054 136.062L498.054 135.028z"/>
<path class="l5" d="M467.014 103.988L468.049 103.988L468.049 105.022L467.014 105.022L467.014 103.988z"/>
<path class="l5" d="M539.441 290.228L540.475 290.228L540.475 291.262L539.441 291.262L539.441 290.228z"/>
<path class="l5" d="M1005.04 93.6409L1006.08 93.6409L1006.08 94.6756L1005.04 94.6756L1005.04 93.6409z"/>
<path class="l5" d="M1087.81 290.228L1088.85 290.228L1088.85 291.262L1087.81 291.262L1087.81 290.228z"/>
<path class="l5" d="M1056.77 321.268L1057.81 321.268L1057.81 322.302L1056.77 322.302L1056.77 321.268z"/>
<path class="l5" d="M1025.73 290.228L1026.77 290.228L1026.77 291.262L1025.73 291.262L1025.73 290.228z"/>
<path class="l5" d="M1180.93 290.228L1181.97 290.228L1181.97 291.262L1180.93 291.262L1180.93 290.228z"/>
<path class="l5" d="M1149.89 321.268L1150.93 321.268L1150.93 322.302L1149.89 322.302L1149.89 321.268z"/>
<path class="l5" d="M1118.85 290.228L1119.89 290.228L1119.89 291.262L1118.85 291.262L1118.85 290.228z"/>
<path class="l5" d="M1274.05 290.228L1275.09 290.228L1275.09 291.262L1274.05 291.262L1274.05 290.228z"/>
<path class="l5" d="M1243.01 321.268L1244.05 321.268L1244.05 322.302L1243.01 322.302L1243.01 321.268z"/>
<path class="l5" d="M1211.97 290.228L1213.01 290.228L1213.01 291.262L1211.97 291.262L1211.97 290.228z"/>
<path class="l5" d="M1367.17 290.228L1368.21 290.228L1368.21 291.262L1367.17 291.262L1367.17 290.228z"/>
<path class="l5" d="M1336.13 321.268L1337.17 321.268L1337.17 322.302L1336.13 322.302L1336.13 321.268z"/>
<path class="l5" d="M1305.09 290.228L1306.13 290.228L1306.13 291.262L1305.09 291.262L1305.09 290.228z"/>
<path class="l5" d="M1460.29 290.228L1461.33 290.228L1461.33 291.262L1460.29 291.262L1460.29 290.228z"/>
<path class="l5" d="M1429.25 321.268L1430.29 321.268L1430.29 322.302L1429.25 322.302L1429.25 321.268z"/>
<path class="l5" d="M1398.21 290.228L1399.25 290.228L1399.25 291.262L1398.21 291.262L1398.21 290.228z"/>
<path class="l5" d="M1553.41 290.228L1554.45 290.228L1554.45 291.262L1553.41 291.262L1553.41 290.228z"/>
<path class="l5" d="M1522.37 321.268L1523.41 321.268L1523.41 322.302L1522.37 322.302L1522.37 321.268z"/>
<path class="l5" d="M1491.33 290.228L1492.37 290.228L1492.37 291.262L1491.33 291.262L1491.33 290.228z"/>
<path class="l5" d="M1025.73 103.988L1026.77 103.988L1026.77 105.022L1025.73 105.022L1025.73 103.988z"/>
<path class="l5" d="M1056.77 135.028L1057.81 135.028L1057.81 136.062L1056.77 136.062L1056.77 135.028z"/>
<path class="l5" d="M1087.81 103.988L1088.85 103.988L1088.85 105.022L1087.81 105.022L1087.81 103.988z"/>
<path class="l5" d="M1398.21 103.988L1399.25 103.988L1399.25 105.022L1398.21 105.022L1398.21 103.988z"/>
<path class="l5" d="M1429.25 135.028L1430.29 135.028L1430.29 136.062L1429.25 136.062L1429.25 135.028z"/>
<path class="l5" d="M1460.29 103.988L1461.33 103.988L1461.33 105.022L1460.29 105.022L1460.29 103.988z"/>
<path class="l5" d="M1211.97 103.988L1213.01 103.988L1213.01 105.022L1211.97 105.022L1211.97 103.988z"/>
<path class="l5" d="M1243.01 135.028L1244.05 135.028L1244.05 136.062L1243.01 136.062L1243.01 135.028z"/>
<path class="l5" d="M1274.05 103.988L1275.09 103.988L1275.09 105.022L1274.05 105.022L1274.05 103.988z"/>
<path class="l5" d="M1305.09 103.988L1306.13 103.988L1306.13 105.022L1305.09 105.022L1305.09 103.988z"/>
<path class="l5" d="M1336.13 135.028L1337.17 135.028L1337.17 136.062L1336.13 136.062L1336.13 135.028z"/>
<path class="l5" d="M1367.17 103.988L1368.21 103.988L1368.21 105.022L1367.17 105.022L1367.17 103.988z"/>
<path class="l5" d="M1118.85 103.988L1119.89 103.988L1119.89 105.022L1118.85 105.022L1118.85 103.988z"/>
<path class="l5" d="M1149.89 135.028L1150.93 135.028L1150.93 136.062L1149.89 136.062L1149.89 135.028z"/>
<path class="l5" d="M1180.93 103.988L1181.97 103.988L1181.97 105.022L1180.93 105.022L1180.93 103.988z"/>
<path class="l5" d="M1491.33 103.988L1492.37 103.988L1492.37 105.022L1491.33 105.022L1491.33 103.988z"/>
<path class="l5" d="M1522.37 135.028L1523.41 135.028L1523.41 136.062L1522.37 136.062L1522.37 135.028z"/>
<path class="l5" d="M1553.41 103.988L1554.45 103.988L1554.45 105.022L1553.41 105.022L1553.41 103.988z"/>
<path class="l5" d="M1480.99 290.228L1482.02 290.228L1482.02 291.262L1480.99 291.262L1480.99 290.228z"/>
<path class="l5" d="M458.478 104.505L467.531 104.505"/>
<path class="l5" d="M449.425 104.505L453.305 109.678L462.358 109.678L458.478 104.505L462.358 99.3316L453.305 99.3316L449.425 104.505"/>
<path class="l5" d="M466.238 103.212L468.825 103.212L468.825 105.798L466.238 105.798L466.238 103.212z"/>
<path class="l5" d="M458.478 332.132L467.531 332.132"/>
<path class="l5" d="M449.425 332.132L453.305 337.305L462.358 337.305L458.478 332.132L462.358 326.958L453.305 326.958L449.425 332.132"/>
<path class="l5" d="M466.238 330.838L468.825 330.838L468.825 333.425L466.238 333.425L466.238 330.838z"/>
<path class="l5" d="M456.667 497.161L457.702 497.161L457.702 498.196L456.667 498.196L456.667 497.161z"/>
<path class="l5" d="M425.627 528.201L426.662 528.201L426.662 529.236L425.627 529.236L425.627 528.201z"/>
<path class="l5" d="M394.587 497.161L395.622 497.161L395.622 498.196L394.587 498.196L394.587 497.161z"/>
<path class="l5" d="M301.467 497.161L302.502 497.161L302.502 498.196L301.467 498.196L301.467 497.161z"/>
<path class="l5" d="M332.507 528.201L333.542 528.201L333.542 529.236L332.507 529.236L332.507 528.201z"/>
<path class="l5" d="M363.547 497.161L364.582 497.161L364.582 498.196L363.547 498.196L363.547 497.161z"/>
<path class="l5" d="M115.227 497.161L116.262 497.161L116.262 498.196L115.227 498.196L115.227 497.161z"/>
<path class="l5" d="M146.267 528.201L147.302 528.201L147.302 529.236L146.267 529.236L146.267 528.201z"/>
<path class="l5" d="M177.307 497.161L178.342 497.161L178.342 498.196L177.307 498.196L177.307 497.161z"/>
<path class="l5" d="M270.427 497.161L271.462 497.161L271.462 498.196L270.427 498.196L270.427 497.161z"/>
<path class="l5" d="M239.387 528.201L240.422 528.201L240.422 529.236L239.387 529.236L239.387 528.201z"/>
<path class="l5" d="M208.347 497.161L209.382 497.161L209.382 498.196L208.347 498.196L208.347 497.161z"/>
<path class="l5" d="M208.347 393.694L209.382 393.694L209.382 394.729L208.347 394.729L208.347 393.694z"/>
<path class="l5" d="M239.387 362.654L240.422 362.654L240.422 363.689L239.387 363.689L239.387 362.654z"/>
<path class="l5" d="M270.427 393.694L271.462 393.694L271.462 394.729L270.427 394.729L270.427 393.694z"/>
<path class="l5" d="M301.467 393.694L302.502 393.694L302.502 394.729L301.467 394.729L301.467 393.694z"/>
<path class="l5" d="M332.507 362.654L333.542 362.654L333.542 363.689L332.507 363.689L332.507 362.654z"/>
<path class="l5" d="M363.547 393.694L364.582 393.694L364.582 394.729L363.547 394.729L363.547 393.694z"/>
<path class="l5" d="M280.774 393.694L281.809 393.694L281.809 394.729L280.774 394.729L280.774 393.694z"/>
<path class="l5" d="M198.001 497.161L199.035 497.161L199.035 498.196L198.001 498.196L198.001 497.161z"/>
<path class="l5" d="M384.241 497.161L385.275 497.161L385.275 498.196L384.241 498.196L384.241 497.161z"/>
<path class="l1" d="M529.611 632.185L560.651 632.185"/>
<path class="l1" d="M622.731 632.185L653.771 632.185"/>
<path class="l1" d="M715.851 632.185L746.891 632.185"/>
<path class="l1" d="M808.971 632.185L840.011 632.185"/>
<path class="l1" d="M902.091 632.185L933.131 632.185"/>
<path class="l1" d="M591.691 590.798L591.691 601.145"/>
<path class="l1" d="M684.811 590.798L684.811 601.145"/>
<path class="l1" d="M777.931 590.798L777.931 601.145"/>
<path class="l1" d="M498.571 590.798L498.571 601.145"/>
<path class="l1" d="M871.051 590.798L871.051 601.145"/>
<path class="l1" d="M964.171 590.798L964.171 601.145"/>
<path class="l1" d="M467.531 590.798L964.171 590.798"/>
<path class="l1" d="M529.611 787.385L560.651 787.385"/>
<path class="l1" d="M622.731 787.385L653.771 787.385"/>
<path class="l1" d="M715.851 787.385L746.891 787.385"/>
<path class="l1" d="M808.971 787.385L840.011 787.385"/>
<path class="l1" d="M902.091 787.385L933.131 787.385"/>
<path class="l1" d="M498.571 745.998L498.571 756.345"/>
<path class="l1" d="M591.691 745.998L591.691 756.345"/>
<path class="l1" d="M684.811 745.998L684.811 756.345"/>
<path class="l1" d="M777.931 745.998L777.931 756.345"/>
<path class="l1" d="M871.051 745.998L871.051 756.345"/>
<path class="l1" d="M964.171 745.998L964.171 756.345"/>
<path class="l1" d="M591.691 745.998L964.171 745.998"/>
<path class="l1" d="M1460.81 632.185L1491.85 632.185"/>
<path class="l1" d="M1367.69 632.185L1398.73 632.185"/>
<path class="l1" d="M1274.57 632.185L1305.61 632.185"/>
<path class="l1" d="M1181.45 632.185L1212.49 632.185"/>
<path class="l1" d="M1088.33 632.185L1119.37 632.185"/>
<path class="l1" d="M1429.77 590.798L1429.77 601.145"/>
<path class="l1" d="M1336.65 590.798L1336.65 601.145"/>
<path class="l1" d="M1243.53 590.798L1243.53 601.145"/>
<path class="l1" d="M1522.89 590.798L1522.89 601.145"/>
<path class="l1" d="M1150.41 590.798L1150.41 601.145"/>
<path class="l1" d="M1057.29 590.798L1057.29 601.145"/>
<path class="l1" d="M1460.81 787.385L1491.85 787.385"/>
<path class="l1" d="M1367.69 787.385L1398.73 787.385"/>
<path class="l1" d="M1274.57 787.385L1305.61 787.385"/>
<path class="l1" d="M1181.45 787.385L1212.49 787.385"/>
<path class="l1" d="M1088.33 787.385L1119.37 787.385"/>
<path class="l1" d="M1522.89 745.998L1522.89 756.345"/>
<path class="l1" d="M1429.77 745.998L1429.77 756.345"/>
<path class="l1" d="M1336.65 745.998L1336.65 756.345"/>
<path class="l1" d="M1243.53 745.998L1243.53 756.345"/>
<path class="l1" d="M1150.41 745.998L1150.41 756.345"/>
<path class="l1" d="M1057.29 745.998L1057.29 756.345"/>
<path class="l1" d="M1057.29 745.998L1429.77 745.998"/>
<path class="l1" d="M995.211 787.385L1026.25 787.385"/>
<path class="l1" d="M964.171 745.998L1057.29 745.998"/>
<path class="l1" d="M995.211 632.185L1026.25 632.185"/>
<path class="l1" d="M467.531 632.185L467.531 787.385"/>
<path class="l1" d="M467.531 745.998L498.571 745.998"/>
<path class="l1" d="M1553.93 632.185L1553.93 787.385"/>
<path class="l1" d="M1522.89 745.998L1553.93 745.998"/>
<path class="l1" d="M1005.56 632.185L1005.56 745.998"/>
<path class="l1" d="M539.958 787.385L539.958 828.772"/>
<path class="l1" d="M539.958 828.772L736.545 828.772"/>
<path class="l1" d="M736.545 828.772L1471.16 828.772"/>
<path class="l1" d="M1471.16 787.385L1471.16 828.772"/>
<path class="l1" d="M633.078 745.998L633.078 787.385"/>
<path class="l1" d="M726.198 745.998L726.198 787.385"/>
<path class="l1" d="M922.785 787.385L922.785 828.772"/>
<path class="l1" d="M829.665 745.998L829.665 787.385"/>
<path class="l1" d="M1098.68 787.385L1098.68 828.772"/>
<path class="l1" d="M1191.8 745.998L1191.8 787.385"/>
<path class="l1" d="M1284.92 745.998L1284.92 787.385"/>
<path class="l1" d="M1388.38 745.998L1388.38 787.385"/>
<path class="l1" d="M1057.29 590.798L1522.89 590.798"/>
<path class="l1" d="M498.571 321.785L498.571 332.132"/>
<path class="l1" d="M591.691 321.785L591.691 332.132"/>
<path class="l1" d="M684.811 321.785L684.811 332.132"/>
<path class="l1" d="M777.931 321.785L777.931 332.132"/>
<path class="l1" d="M871.051 321.785L871.051 332.132"/>
<path class="l1" d="M964.171 321.785L964.171 332.132"/>
<path class="l1" d="M498.571 332.132L964.171 332.132"/>
<path class="l1" d="M529.611 290.745L560.651 290.745"/>
<path class="l1" d="M622.731 290.745L653.771 290.745"/>
<path class="l1" d="M715.851 290.745L746.891 290.745"/>
<path class="l1" d="M808.971 290.745L840.011 290.745"/>
<path class="l1" d="M902.091 290.745L933.131 290.745"/>
<path class="l1" d="M529.611 104.505L560.651 104.505"/>
<path class="l1" d="M622.731 104.505L653.771 104.505"/>
<path class="l1" d="M715.851 104.505L746.891 104.505"/>
<path class="l1" d="M808.971 104.505L840.011 104.505"/>
<path class="l1" d="M902.091 104.505L933.131 104.505"/>
<path class="l1" d="M467.531 104.505L467.531 290.745"/>
<path class="l1" d="M498.571 135.545L498.571 156.238"/>
<path class="l1" d="M467.531 156.238L498.571 156.238"/>
<path class="l1" d="M591.691 135.545L591.691 145.892"/>
<path class="l1" d="M591.691 145.892L964.171 145.892"/>
<path class="l1" d="M964.171 135.545L964.171 145.892"/>
<path class="l1" d="M633.078 104.505L633.078 145.892"/>
<path class="l1" d="M550.305 63.1183L550.305 104.505"/>
<path class="l1" d="M550.305 63.1183L912.438 63.1183"/>
<path class="l1" d="M912.438 63.1183L912.438 104.505"/>
<path class="l1" d="M684.811 135.545L684.811 145.892"/>
<path class="l1" d="M777.931 135.545L777.931 145.892"/>
<path class="l1" d="M871.051 135.545L871.051 145.892"/>
<path class="l1" d="M1005.56 94.1583L1005.56 104.505"/>
<path class="l1" d="M1522.89 321.785L1522.89 332.132"/>
<path class="l1" d="M1429.77 321.785L1429.77 332.132"/>
<path class="l1" d="M1336.65 321.785L1336.65 332.132"/>
<path class="l1" d="M1243.53 321.785L1243.53 332.132"/>
<path class="l1" d="M1150.41 321.785L1150.41 332.132"/>
<path class="l1" d="M1057.29 321.785L1057.29 332.132"/>
<path class="l1" d="M1057.29 332.132L1522.89 332.132"/>
<path class="l1" d="M1460.81 290.745L1491.85 290.745"/>
<path class="l1" d="M1367.69 290.745L1398.73 290.745"/>
<path class="l1" d="M1274.57 290.745L1305.61 290.745"/>
<path class="l1" d="M1181.45 290.745L1212.49 290.745"/>
<path class="l1" d="M1088.33 290.745L1119.37 290.745"/>
<path class="l1" d="M1460.81 104.505L1491.85 104.505"/>
<path class="l1" d="M1367.69 104.505L1398.73 104.505"/>
<path class="l1" d="M1274.57 104.505L1305.61 104.505"/>
<path class="l1" d="M1181.45 104.505L1212.49 104.505"/>
<path class="l1" d="M1088.33 104.505L1119.37 104.505"/>
<path class="l1" d="M1553.93 104.505L1553.93 290.745"/>
<path class="l1" d="M1522.89 135.545L1522.89 156.238"/>
<path class="l1" d="M1522.89 156.238L1553.93 156.238"/>
<path class="l1" d="M1429.77 135.545L1429.77 145.892"/>
<path class="l1" d="M1057.29 145.892L1429.77 145.892"/>
<path class="l1" d="M1057.29 135.545L1057.29 145.892"/>
<path class="l1" d="M1388.38 104.505L1388.38 145.892"/>
<path class="l1" d="M1471.16 63.1183L1471.16 104.505"/>
<path class="l1" d="M1109.02 63.1183L1471.16 63.1183"/>
<path class="l1" d="M1109.02 63.1183L1109.02 104.505"/>
<path class="l1" d="M1336.65 135.545L1336.65 145.892"/>
<path class="l1" d="M1243.53 135.545L1243.53 145.892"/>
<path class="l1" d="M1150.41 135.545L1150.41 145.892"/>
<path class="l1" d="M995.211 104.505L1026.25 104.505"/>
<path class="l1" d="M995.211 290.745L1026.25 290.745"/>
<path class="l1" d="M964.171 145.892L1057.29 145.892"/>
<path class="l1" d="M1005.56 145.892L1005.56 290.745"/>
<path class="l1" d="M912.438 63.1183L1109.02 63.1183"/>
<path class="l1" d="M1553.93 42.4249L1553.93 104.505"/>
<path class="l1" d="M467.531 42.4249L1553.93 42.4249"/>
<path class="l1" d="M467.531 42.4249L467.531 114.852"/>
<path class="l1" d="M467.531 787.385L467.531 870.158"/>
<path class="l1" d="M467.531 870.158L1553.93 870.158"/>
<path class="l1" d="M1553.93 787.385L1553.93 870.158"/>
<path class="l1" d="M467.531 332.132L498.571 332.132"/>
<path class="l1" d="M457.185 497.678L457.185 528.718"/>
<path class="l1" d="M333.025 528.718L457.185 528.718"/>
<path class="l1" d="M364.065 497.678L395.105 497.678"/>
<path class="l1" d="M115.745 497.678L115.745 528.718"/>
<path class="l1" d="M115.745 528.718L239.905 528.718"/>
<path class="l1" d="M177.825 497.678L208.865 497.678"/>
<path class="l1" d="M270.945 497.678L301.985 497.678"/>
<path class="l1" d="M239.905 528.718L333.025 528.718"/>
<path class="l1" d="M270.945 394.212L301.985 394.212"/>
<path class="l1" d="M208.865 363.172L208.865 394.212"/>
<path class="l1" d="M208.865 363.172L239.905 363.172"/>
<path class="l1" d="M333.025 363.172L364.065 363.172"/>
<path class="l1" d="M364.065 363.172L364.065 394.212"/>
<path class="l1" d="M208.865 394.212L208.865 414.905"/>
<path class="l1" d="M208.865 414.905L364.065 414.905"/>
<path class="l1" d="M364.065 394.212L364.065 414.905"/>
<path class="l1" d="M281.291 414.905L281.291 497.678"/>
<path class="l1" d="M964.171 332.132L1057.29 332.132"/>
<path class="l1" d="M964.171 590.798L1057.29 590.798"/>
<path class="l1" d="M726.198 104.505L726.198 145.892"/>
<path class="l1" d="M819.318 104.505L819.318 145.892"/>
<path class="l1" d="M1202.14 104.505L1202.14 145.892"/>
<path class="l1" d="M1284.92 104.505L1284.92 145.892"/>
<path class="l1" d="M281.291 456.292L477.878 456.292"/>
<path class="l1" d="M477.878 456.292L477.878 590.798"/>
<path class="l1" d="M53.6645 528.718L115.745 528.718"/>
<path class="l1" d="M53.6645 321.785L53.6645 528.718"/>
<path class="l1" d="M53.6645 321.785L467.531 321.785"/>
<path class="l1" d="M467.531 321.785L467.531 332.132"/>
<circle class="l1" cx="115.745" cy="528.718" r="4.13867"/>
<circle class="l1" cx="115.745" cy="528.718" r="4.13867"/>
<circle class="l1" cx="115.745" cy="528.718" r="4.13867"/>
<circle class="l1" cx="498.571" cy="332.132" r="4.13867"/>
<circle class="l1" cx="467.531" cy="114.852" r="4.13867"/>
<circle class="l1" cx="912.438" cy="63.1183" r="4.13867"/>
<circle class="l1" cx="550.305" cy="104.505" r="4.13867"/>
<circle class="l1" cx="964.171" cy="145.892" r="4.13867"/>
<circle class="l1" cx="467.531" cy="156.238" r="4.13867"/>
<circle class="l1" cx="467.531" cy="104.505" r="4.13867"/>
<circle class="l1" cx="498.571" cy="332.132" r="4.13867"/>
<circle class="l1" cx="964.171" cy="332.132" r="4.13867"/>
<circle class="l1" cx="591.691" cy="332.132" r="4.13867"/>
<circle class="l1" cx="498.571" cy="332.132" r="4.13867"/>
<circle class="l1" cx="477.878" cy="590.798" r="4.13867"/>
<circle class="l1" cx="281.291" cy="456.292" r="4.13867"/>
<circle class="l1" cx="281.291" cy="414.905" r="4.13867"/>
<circle class="l1" cx="281.291" cy="497.678" r="4.13867"/>
<circle class="l1" cx="467.531" cy="745.998" r="4.13867"/>
<circle class="l1" cx="964.171" cy="745.998" r="4.13867"/>
<circle class="l1" cx="964.171" cy="590.798" r="4.13867"/>
<circle class="l1" cx="498.571" cy="590.798" r="4.13867"/>
<circle class="l1" cx="591.691" cy="590.798" r="4.13867"/>
<circle class="l1" cx="539.958" cy="787.385" r="4.13867"/>
<circle class="l1" cx="819.318" cy="104.505" r="4.13867"/>
<circle class="l1" cx="819.318" cy="145.892" r="4.13867"/>
<circle class="l1" cx="726.198" cy="104.505" r="4.13867"/>
<circle class="l1" cx="726.198" cy="145.892" r="4.13867"/>
<circle class="l1" cx="964.171" cy="332.132" r="4.13867"/>
<circle class="l1" cx="1057.29" cy="332.132" r="4.13867"/>
<circle class="l1" cx="912.438" cy="63.1183" r="4.13867"/>
<circle class="l1" cx="1109.02" cy="63.1183" r="4.13867"/>
<circle class="l1" cx="1005.56" cy="145.892" r="4.13867"/>
<circle class="l1" cx="1005.56" cy="290.745" r="4.13867"/>
<circle class="l1" cx="964.171" cy="145.892" r="4.13867"/>
<circle class="l1" cx="1057.29" cy="145.892" r="4.13867"/>
<circle class="l1" cx="1005.56" cy="104.505" r="4.13867"/>
<circle class="l1" cx="871.051" cy="145.892" r="4.13867"/>
<circle class="l1" cx="777.931" cy="145.892" r="4.13867"/>
<circle class="l1" cx="684.811" cy="145.892" r="4.13867"/>
<circle class="l1" cx="912.438" cy="63.1183" r="4.13867"/>
<circle class="l1" cx="912.438" cy="104.505" r="4.13867"/>
<circle class="l1" cx="633.078" cy="104.505" r="4.13867"/>
<circle class="l1" cx="633.078" cy="145.892" r="4.13867"/>
<circle class="l1" cx="964.171" cy="145.892" r="4.13867"/>
<circle class="l1" cx="964.171" cy="332.132" r="4.13867"/>
<circle class="l1" cx="871.051" cy="332.132" r="4.13867"/>
<circle class="l1" cx="777.931" cy="332.132" r="4.13867"/>
<circle class="l1" cx="684.811" cy="332.132" r="4.13867"/>
<circle class="l1" cx="964.171" cy="590.798" r="4.13867"/>
<circle class="l1" cx="1057.29" cy="590.798" r="4.13867"/>
<circle class="l1" cx="829.665" cy="745.998" r="4.13867"/>
<circle class="l1" cx="829.665" cy="787.385" r="4.13867"/>
<circle class="l1" cx="726.198" cy="745.998" r="4.13867"/>
<circle class="l1" cx="726.198" cy="787.385" r="4.13867"/>
<circle class="l1" cx="633.078" cy="745.998" r="4.13867"/>
<circle class="l1" cx="633.078" cy="787.385" r="4.13867"/>
<circle class="l1" cx="1005.56" cy="632.185" r="4.13867"/>
<circle class="l1" cx="1005.56" cy="745.998" r="4.13867"/>
<circle class="l1" cx="964.171" cy="745.998" r="4.13867"/>
<circle class="l1" cx="1057.29" cy="745.998" r="4.13867"/>
<circle class="l1" cx="964.171" cy="745.998" r="4.13867"/>
<circle class="l1" cx="871.051" cy="745.998" r="4.13867"/>
<circle class="l1" cx="777.931" cy="745.998" r="4.13867"/>
<circle class="l1" cx="684.811" cy="745.998" r="4.13867"/>
<circle class="l1" cx="964.171" cy="590.798" r="4.13867"/>
<circle class="l1" cx="871.051" cy="590.798" r="4.13867"/>
<circle class="l1" cx="777.931" cy="590.798" r="4.13867"/>
<circle class="l1" cx="684.811" cy="590.798" r="4.13867"/>
<circle class="l1" cx="922.785" cy="787.385" r="4.13867"/>
<circle class="l1" cx="922.785" cy="828.772" r="4.13867"/>
<circle class="l1" cx="1284.92" cy="104.505" r="4.13867"/>
<circle class="l1" cx="1284.92" cy="145.892" r="4.13867"/>
<circle class="l1" cx="1202.14" cy="104.505" r="4.13867"/>
<circle class="l1" cx="1202.14" cy="145.892" r="4.13867"/>
<circle class="l1" cx="1150.41" cy="145.892" r="4.13867"/>
<circle class="l1" cx="1243.53" cy="145.892" r="4.13867"/>
<circle class="l1" cx="1336.65" cy="145.892" r="4.13867"/>
<circle class="l1" cx="1109.02" cy="63.1183" r="4.13867"/>
<circle class="l1" cx="1109.02" cy="104.505" r="4.13867"/>
<circle class="l1" cx="1109.02" cy="63.1183" r="4.13867"/>
<circle class="l1" cx="1388.38" cy="104.505" r="4.13867"/>
<circle class="l1" cx="1388.38" cy="145.892" r="4.13867"/>
<circle class="l1" cx="1057.29" cy="145.892" r="4.13867"/>
<circle class="l1" cx="1057.29" cy="145.892" r="4.13867"/>
<circle class="l1" cx="1057.29" cy="332.132" r="4.13867"/>
<circle class="l1" cx="1057.29" cy="332.132" r="4.13867"/>
<circle class="l1" cx="1150.41" cy="332.132" r="4.13867"/>
<circle class="l1" cx="1243.53" cy="332.132" r="4.13867"/>
<circle class="l1" cx="1336.65" cy="332.132" r="4.13867"/>
<circle class="l1" cx="1429.77" cy="332.132" r="4.13867"/>
<circle class="l1" cx="1057.29" cy="590.798" r="4.13867"/>
<circle class="l1" cx="1388.38" cy="745.998" r="4.13867"/>
<circle class="l1" cx="1388.38" cy="787.385" r="4.13867"/>
<circle class="l1" cx="1284.92" cy="745.998" r="4.13867"/>
<circle class="l1" cx="1284.92" cy="787.385" r="4.13867"/>
<circle class="l1" cx="1191.8" cy="745.998" r="4.13867"/>
<circle class="l1" cx="1191.8" cy="787.385" r="4.13867"/>
<circle class="l1" cx="1057.29" cy="745.998" r="4.13867"/>
<circle class="l1" cx="1057.29" cy="745.998" r="4.13867"/>
<circle class="l1" cx="1150.41" cy="745.998" r="4.13867"/>
<circle class="l1" cx="1243.53" cy="745.998" r="4.13867"/>
<circle class="l1" cx="1336.65" cy="745.998" r="4.13867"/>
<circle class="l1" cx="1057.29" cy="590.798" r="4.13867"/>
<circle class="l1" cx="1150.41" cy="590.798" r="4.13867"/>
<circle class="l1" cx="1243.53" cy="590.798" r="4.13867"/>
<circle class="l1" cx="1336.65" cy="590.798" r="4.13867"/>
<circle class="l1" cx="1429.77" cy="590.798" r="4.13867"/>
<circle class="l1" cx="1098.68" cy="787.385" r="4.13867"/>
<circle class="l1" cx="1098.68" cy="828.772" r="4.13867"/>
<circle class="l1" cx="1471.16" cy="104.505" r="4.13867"/>
<circle class="l1" cx="1553.93" cy="156.238" r="4.13867"/>
<circle class="l1" cx="1553.93" cy="745.998" r="4.13867"/>
<circle class="l1" cx="1471.16" cy="787.385" r="4.13867"/>
</svg>
