<?xml version="1.0" standalone="yes"?>
<!DOCTYPE svg PUBLIC "-//W3C//DTD SVG 1.1//EN"
 "http://www.w3.org/Graphics/SVG/1.1/DTD/svg11.dtd">
<svg xmlns="http://www.w3.org/2000/svg" version="1.1"
  width="100%" height="100%" viewBox="0 0 1024 768"
  style="fill: none; font-family: Helvetica;
 font: Helvetica;
">

<!-- Creator: NGspice -->

<rect x="0" y="0" width="1024" height="768" fill="black" stroke="none"/>
<text stroke="none" fill="white" font-size="16" x="358" y="752">
frequency
</text>
<text stroke="none" fill="white" font-size="16" x="10" y="16">
unknown2: Anonymous
</text>
<path stroke="white" d="M70 720l0 -666"/>
<text stroke="none" fill="white" font-size="16" x="65" y="728">
1
</text>
<path stroke="white" stroke-dasharray="1,2" d="M129 720l0 -666M146 720l0 -666M158 720l0 -666"/>
<path stroke="white" d="M168 720l0 -666"/>
<text stroke="none" fill="white" font-size="16" x="158" y="728">
10
</text>
<path stroke="white" stroke-dasharray="1,2" d="M227 720l0 -666M244 720l0 -666M256 720l0 -666"/>
<path stroke="white" d="M266 720l0 -666"/>
<text stroke="none" fill="white" font-size="16" x="251" y="728">
100
</text>
<path stroke="white" stroke-dasharray="1,2" d="M325 720l0 -666M342 720l0 -666M354 720l0 -666"/>
<path stroke="white" d="M364 720l0 -666"/>
<text stroke="none" fill="white" font-size="16" x="344" y="728">
10^3
</text>
<path stroke="white" stroke-dasharray="1,2" d="M423 720l0 -666M440 720l0 -666M452 720l0 -666"/>
<path stroke="white" d="M462 720l0 -666"/>
<text stroke="none" fill="white" font-size="16" x="442" y="728">
10^4
</text>
<path stroke="white" stroke-dasharray="1,2" d="M521 720l0 -666M538 720l0 -666M550 720l0 -666"/>
<path stroke="white" d="M560 720l0 -666"/>
<text stroke="none" fill="white" font-size="16" x="540" y="728">
10^5
</text>
<path stroke="white" stroke-dasharray="1,2" d="M619 720l0 -666M636 720l0 -666M648 720l0 -666"/>
<path stroke="white" d="M658 720l0 -666"/>
<text stroke="none" fill="white" font-size="16" x="638" y="728">
10^6
</text>
<path stroke="white" stroke-dasharray="1,2" d="M717 720l0 -666M734 720l0 -666M746 720l0 -666"/>
<path stroke="white" d="M756 720l0 -666"/>
<text stroke="none" fill="white" font-size="16" x="736" y="728">
10^7
</text>
<path stroke="white" stroke-dasharray="1,2" d="M815 720l0 -666M832 720l0 -666M844 720l0 -666"/>
<path stroke="white" d="M854 720l0 -666"/>
<text stroke="none" fill="white" font-size="16" x="834" y="728">
10^8
</text>
<path stroke="white" stroke-dasharray="1,2" d="M913 720l0 -666M930 720l0 -666M942 720l0 -666"/>
<path stroke="white" d="M952 720l0 -666"/>
<text stroke="none" fill="white" font-size="16" x="932" y="728">
10^9
</text>
<text stroke="none" fill="white" font-size="16" x="614" y="752">
Hz
</text>
<path stroke="white" stroke-dasharray="1,2" d="M70 720l882 0"/>
<text stroke="none" fill="white" font-size="16" x="8" y="728">
-350.0
</text>
<path stroke="white" stroke-dasharray="1,2" d="M70 646l882 0"/>
<text stroke="none" fill="white" font-size="16" x="8" y="654">
-300.0
</text>
<path stroke="white" stroke-dasharray="1,2" d="M70 572l882 0"/>
<text stroke="none" fill="white" font-size="16" x="8" y="580">
-250.0
</text>
<path stroke="white" stroke-dasharray="1,2" d="M70 498l882 0"/>
<text stroke="none" fill="white" font-size="16" x="8" y="506">
-200.0
</text>
<path stroke="white" stroke-dasharray="1,2" d="M70 424l882 0"/>
<text stroke="none" fill="white" font-size="16" x="8" y="432">
-150.0
</text>
<path stroke="white" stroke-dasharray="1,2" d="M70 350l882 0"/>
<text stroke="none" fill="white" font-size="16" x="8" y="358">
-100.0
</text>
<path stroke="white" stroke-dasharray="1,2" d="M70 276l882 0"/>
<text stroke="none" fill="white" font-size="16" x="18" y="284">
-50.0
</text>
<path stroke="white" d="M70 202l882 0"/>
<text stroke="none" fill="white" font-size="16" x="38" y="210">
0.0
</text>
<path stroke="white" stroke-dasharray="1,2" d="M70 128l882 0"/>
<text stroke="none" fill="white" font-size="16" x="28" y="136">
50.0
</text>
<path stroke="white" stroke-dasharray="1,2" d="M70 54l882 0"/>
<text stroke="none" fill="white" font-size="16" x="18" y="62">
100.0
</text>
<text stroke="none" fill="white" font-size="16" x="10" y="32">
     
</text>
<path stroke="red" d="M441 23l44 0"/>
<text stroke="none" fill="white" font-size="16" x="495" y="32">
tmag
</text>
<path stroke="red" d="M70 102l171 0 5 1 40 0 4 1 10 0 5 1 5 0 5 1 5 0 15 3 4 1 20 4 5 2 10 2 5 2 5 1 4 1 5 2 5 1 5 2 5 1 5 2 5 1 5 2 5 1 5 2 4 1 5 1 5 2 5 1 5 2 5 1 5 2 5 1 5 2 5 1 4 2 5 1 5 2 5 1 5 2 5 1 5 2 5 1 5 2 5 1 4 2 5 1 5 2 10 2 5 2"/>
<path stroke="red" d="M560 174l5 1 5 2 5 1 5 2 4 1 5 2 5 1 5 2 5 1 5 2 5 1 5 2 5 1 5 2 4 1 5 2 5 1 5 2 5 1 5 2 5 1 5 2 10 2 4 2 5 1 5 2 5 1 5 2 5 1 5 2 5 1 5 2 5 1 4 2 5 1 10 4 5 1 5 2 5 1 15 6 4 1 5 2 5 3 5 2 15 9 10 8 5 3 4 2 5 1 5 2 10 2 5 2"/>
<path stroke="red" d="M854 278l5 1 5 2 5 1 5 2 4 1 5 2 10 2 5 2 5 1 5 0 10 2 5 0 4 1 10 0 5 1 10 0"/>
<path stroke="blue" d="M70 23l44 0"/>
<text stroke="none" fill="white" font-size="16" x="124" y="32">
tphase
</text>
<path stroke="blue" d="M70 202l34 0 5 1 39 0 5 1 15 0 5 1 10 0 5 1 9 0 10 2 5 0 25 5 4 1 10 4 5 1 5 3 10 4 15 9 4 4 10 8 5 5 5 4 15 15 5 4 5 5 4 5 20 16 5 3 5 4 5 2 5 3 5 2 4 2 10 4 5 1 5 2 25 5 4 0 10 2 5 0 5 1 10 0 5 1 14 0 5 1 25 0 5 1 49 0"/>
<path stroke="blue" d="M570 335l5 1 34 0 5 1 19 0 5 1 10 0 5 1 5 0 5 1 5 0 10 2 4 0 20 4 5 2 5 1 15 6 4 3 5 2 5 4 5 3 10 8 5 5 10 12 5 7 4 8 5 8 5 9 10 20 5 9 5 8 5 5 5 0 5 -4 4 -4 5 -1 5 3 5 7 5 9 5 11 10 24 10 26 4 13 5 12 5 13 15 36 5 10 5 11"/>
<path stroke="blue" d="M913 632l10 18 4 9 10 14 10 12 5 5"/>
</svg>
