<svg xmlns="http://www.w3.org/2000/svg" xmlns:xlink="http://www.w3.org/1999/xlink" width="900" height="503" version="1.1">
<style type="text/css">
.l0{
 fill: #000000;
  stroke: #000000;
  stroke-linecap:round;
  stroke-linejoin:round;
  stroke-width: 2.19127;
}
.l1{
 fill: #00ccee;
  stroke: #00ccee;
  stroke-linecap:round;
  stroke-linejoin:round;
  stroke-width: 2.19127;
}
.l2{
  fill: none;
  stroke: #3f3f3f;
  stroke-linecap:round;
  stroke-linejoin:round;
  stroke-width: 2.19127;
}
.l3{
 fill: #cccccc; fill-opacity: 0.5;
  stroke: #cccccc;
  stroke-linecap:round;
  stroke-linejoin:round;
  stroke-width: 2.19127;
}
.l4{
 fill: #88dd00;
  stroke: #88dd00;
  stroke-linecap:round;
  stroke-linejoin:round;
  stroke-width: 2.19127;
}
.l5{
 fill: #bb2200;
  stroke: #bb2200;
  stroke-linecap:round;
  stroke-linejoin:round;
  stroke-width: 2.19127;
}
.l6{
 fill: #00ccee; fill-opacity: 0.5;
  stroke: #00ccee;
  stroke-linecap:round;
  stroke-linejoin:round;
  stroke-width: 2.19127;
}
.l7{
 fill: #ff0000; fill-opacity: 0.5;
  stroke: #ff0000;
  stroke-linecap:round;
  stroke-linejoin:round;
  stroke-width: 2.19127;
}
.l8{
 fill: #ffff00; fill-opacity: 0.5;
  stroke: #ffff00;
  stroke-linecap:round;
  stroke-linejoin:round;
  stroke-width: 2.19127;
}
.l9{
 fill: #ffffff; fill-opacity: 0.5;
  stroke: #ffffff;
  stroke-linecap:round;
  stroke-linejoin:round;
  stroke-width: 2.19127;
}
.l10{
 fill: #ff00ff;
  stroke: #ff00ff;
  stroke-linecap:round;
  stroke-linejoin:round;
  stroke-width: 2.19127;
}
.l11{
 fill: #00ff00; fill-opacity: 0.5;
  stroke: #00ff00;
  stroke-linecap:round;
  stroke-linejoin:round;
  stroke-width: 2.19127;
}
.l12{
 fill: #0044dd; fill-opacity: 0.5;
  stroke: #0044dd;
  stroke-linecap:round;
  stroke-linejoin:round;
  stroke-width: 2.19127;
}
.l13{
 fill: #aaaa00; fill-opacity: 0.5;
  stroke: #aaaa00;
  stroke-linecap:round;
  stroke-linejoin:round;
  stroke-width: 2.19127;
}
.l14{
  fill: none;
  stroke: #aaccaa;
  stroke-linecap:round;
  stroke-linejoin:round;
  stroke-width: 2.19127;
}
.l15{
 fill: #ff7777; fill-opacity: 0.5;
  stroke: #ff7777;
  stroke-linecap:round;
  stroke-linejoin:round;
  stroke-width: 2.19127;
}
.l16{
 fill: #bfff81; fill-opacity: 0.5;
  stroke: #bfff81;
  stroke-linecap:round;
  stroke-linejoin:round;
  stroke-width: 2.19127;
}
.l17{
  fill: none;
  stroke: #00ffcc;
  stroke-linecap:round;
  stroke-linejoin:round;
  stroke-width: 2.19127;
}
.l18{
 fill: #ce0097; fill-opacity: 0.5;
  stroke: #ce0097;
  stroke-linecap:round;
  stroke-linejoin:round;
  stroke-width: 2.19127;
}
.l19{
  fill: none;
  stroke: #d2d46b;
  stroke-linecap:round;
  stroke-linejoin:round;
  stroke-width: 2.19127;
}
.l20{
  fill: none;
  stroke: #ef6158;
  stroke-linecap:round;
  stroke-linejoin:round;
  stroke-width: 2.19127;
}
.l21{
  fill: none;
  stroke: #fdb200;
  stroke-linecap:round;
  stroke-linejoin:round;
  stroke-width: 2.19127;
}
text {font-family: Sans-Serif;}
</style>
<rect class="l0" x="0" y="0" width="900" height="503"/>
<text fill="#00ccee"  xml:space="preserve" font-size="34.8168" transform="translate(185.395, 227.152)" >B</text>
<text fill="#00ccee"  xml:space="preserve" font-size="34.8168" transform="translate(185.395, 262.658)" >A</text>
<text fill="#00ccee"  xml:space="preserve" font-size="34.8168" transform="translate(625.329, 244.905)" >Out</text>
<text fill="#cccccc"  xml:space="preserve" font-size="21.1011" transform="translate(293.089, 224.335)" >B</text>
<text fill="#cccccc"  xml:space="preserve" font-size="21.1011" transform="translate(293.089, 249.697)" >A</text>
<text fill="#cccccc"  xml:space="preserve" font-size="21.1011" transform="translate(330.102, 237.016)" >out</text>
<text fill="#cccccc"  xml:space="preserve" font-size="21.1011" transform="translate(597.431, 238.175)" >out</text>
<text fill="#cccccc"  xml:space="preserve" font-size="21.1011" transform="translate(437.652, 237.016)" >A</text>
<path class="l4" d="M247.438 213.291L288.017 213.291"/>
<path class="l4" d="M247.438 248.798L288.017 248.798"/>
<path class="l4" d="M381.856 231.045L422.435 231.045"/>
<path class="l4" d="M288.017 203.147L288.017 258.943"/>
<path class="l4" d="M288.017 258.943L348.885 258.943"/>
<path class="l4" d="M288.017 203.147L351.421 203.147"/>
<path class="l4" d="M348.885 258.943L351.421 258.943"/>
<path class="l4" style="fill:none;" d="M351.421 258.943 A29.6853 29.6853 0 0 0 351.421 203.147"/>
<circle class="l4" cx="376.783" cy="231.045" r="5.67109" style="fill:none;"/>
<path class="l4" d="M503.593 210.755L503.593 251.334"/>
<path class="l4" d="M463.014 231.045L503.593 231.045"/>
<path class="l4" d="M503.593 210.755L544.171 231.045"/>
<path class="l4" d="M503.593 251.334L544.171 231.045"/>
<path class="l4" d="M554.316 231.045L584.75 231.045"/>
<circle class="l4" cx="549.244" cy="231.045" r="5.67109" style="fill:none;"/>
<path class="l5" d="M242.365 208.219L252.51 208.219L252.51 218.364L242.365 218.364L242.365 208.219z"/>
<path class="l5" d="M242.365 243.726L252.51 243.726L252.51 253.87L242.365 253.87L242.365 243.726z"/>
<path class="l5" d="M417.362 225.972L427.507 225.972L427.507 236.117L417.362 236.117L417.362 225.972z"/>
<path class="l5" d="M579.678 225.972L589.823 225.972L589.823 236.117L579.678 236.117L579.678 225.972z"/>
<path class="l5" d="M457.941 225.972L468.086 225.972L468.086 236.117L457.941 236.117L457.941 225.972z"/>
<path class="l5" d="M237.293 213.291L247.438 213.291"/>
<path class="l5" d="M237.293 213.291L229.684 203.147L211.931 203.147L219.54 213.291L211.931 223.436L229.684 223.436L237.293 213.291"/>
<path class="l5" d="M244.901 210.755L249.974 210.755L249.974 215.828L244.901 215.828L244.901 210.755z"/>
<path class="l5" d="M237.293 248.798L247.438 248.798"/>
<path class="l5" d="M237.293 248.798L229.684 238.653L211.931 238.653L219.54 248.798L211.931 258.943L229.684 258.943L237.293 248.798"/>
<path class="l5" d="M244.901 246.262L249.974 246.262L249.974 251.334L244.901 251.334L244.901 246.262z"/>
<path class="l5" d="M584.75 231.045L602.504 231.045"/>
<path class="l5" d="M620.257 231.045L612.649 220.9L594.895 220.9L602.504 231.045L594.895 241.189L612.649 241.189L620.257 231.045"/>
<path class="l5" d="M582.214 228.509L587.287 228.509L587.287 233.581L582.214 233.581L582.214 228.509z"/>
<path class="l1" d="M422.435 231.045L463.014 231.045"/>
</svg>
