<svg xmlns="http://www.w3.org/2000/svg" xmlns:xlink="http://www.w3.org/1999/xlink" width="1228" height="670" version="1.1">
<style type="text/css">
.l0{
 fill: #000000;
  stroke: #000000;
  stroke-linecap:round;
  stroke-linejoin:round;
  stroke-width: 1.91736;
}
.l1{
 fill: #00ccee;
  stroke: #00ccee;
  stroke-linecap:round;
  stroke-linejoin:round;
  stroke-width: 1.91736;
}
.l2{
  fill: none;
  stroke: #3f3f3f;
  stroke-linecap:round;
  stroke-linejoin:round;
  stroke-width: 1.91736;
}
.l3{
 fill: #cccccc; fill-opacity: 0.5;
  stroke: #cccccc;
  stroke-linecap:round;
  stroke-linejoin:round;
  stroke-width: 1.91736;
}
.l4{
 fill: #88dd00;
  stroke: #88dd00;
  stroke-linecap:round;
  stroke-linejoin:round;
  stroke-width: 1.91736;
}
.l5{
 fill: #bb2200;
  stroke: #bb2200;
  stroke-linecap:round;
  stroke-linejoin:round;
  stroke-width: 1.91736;
}
.l6{
 fill: #00ccee; fill-opacity: 0.5;
  stroke: #00ccee;
  stroke-linecap:round;
  stroke-linejoin:round;
  stroke-width: 1.91736;
}
.l7{
 fill: #ff0000; fill-opacity: 0.5;
  stroke: #ff0000;
  stroke-linecap:round;
  stroke-linejoin:round;
  stroke-width: 1.91736;
}
.l8{
 fill: #ffff00; fill-opacity: 0.5;
  stroke: #ffff00;
  stroke-linecap:round;
  stroke-linejoin:round;
  stroke-width: 1.91736;
}
.l9{
 fill: #ffffff; fill-opacity: 0.5;
  stroke: #ffffff;
  stroke-linecap:round;
  stroke-linejoin:round;
  stroke-width: 1.91736;
}
.l10{
 fill: #ff00ff;
  stroke: #ff00ff;
  stroke-linecap:round;
  stroke-linejoin:round;
  stroke-width: 1.91736;
}
.l11{
 fill: #00ff00; fill-opacity: 0.5;
  stroke: #00ff00;
  stroke-linecap:round;
  stroke-linejoin:round;
  stroke-width: 1.91736;
}
.l12{
 fill: #0044dd; fill-opacity: 0.5;
  stroke: #0044dd;
  stroke-linecap:round;
  stroke-linejoin:round;
  stroke-width: 1.91736;
}
.l13{
 fill: #aaaa00; fill-opacity: 0.5;
  stroke: #aaaa00;
  stroke-linecap:round;
  stroke-linejoin:round;
  stroke-width: 1.91736;
}
.l14{
  fill: none;
  stroke: #aaccaa;
  stroke-linecap:round;
  stroke-linejoin:round;
  stroke-width: 1.91736;
}
.l15{
 fill: #ff7777; fill-opacity: 0.5;
  stroke: #ff7777;
  stroke-linecap:round;
  stroke-linejoin:round;
  stroke-width: 1.91736;
}
.l16{
 fill: #bfff81; fill-opacity: 0.5;
  stroke: #bfff81;
  stroke-linecap:round;
  stroke-linejoin:round;
  stroke-width: 1.91736;
}
.l17{
  fill: none;
  stroke: #00ffcc;
  stroke-linecap:round;
  stroke-linejoin:round;
  stroke-width: 1.91736;
}
.l18{
 fill: #ce0097; fill-opacity: 0.5;
  stroke: #ce0097;
  stroke-linecap:round;
  stroke-linejoin:round;
  stroke-width: 1.91736;
}
.l19{
  fill: none;
  stroke: #d2d46b;
  stroke-linecap:round;
  stroke-linejoin:round;
  stroke-width: 1.91736;
}
.l20{
  fill: none;
  stroke: #ef6158;
  stroke-linecap:round;
  stroke-linejoin:round;
  stroke-width: 1.91736;
}
.l21{
  fill: none;
  stroke: #fdb200;
  stroke-linecap:round;
  stroke-linejoin:round;
  stroke-width: 1.91736;
}
text {font-family: Sans-Serif;}
</style>
<rect class="l0" x="0" y="0" width="1228" height="670"/>
<text fill="#00ccee"  xml:space="preserve" font-size="18.4635" transform="translate(768.676, 494.612)" >GND</text>
<text fill="#00ccee"  xml:space="preserve" font-size="30.4647" transform="translate(853.005, 374.578)" >Out</text>
<text fill="#00ccee"  xml:space="preserve" font-size="18.4635" transform="translate(162.316, 259.38)" >VDD</text>
<text fill="#00ccee"  xml:space="preserve" font-size="18.4635" transform="translate(196.131, 451.338)" >GND</text>
<text fill="#00ccee"  xml:space="preserve" font-size="18.4635" transform="translate(452.445, 603.351)" >GND</text>
<text fill="#00ccee"  xml:space="preserve" font-size="18.4635" transform="translate(384.761, 604.461)" >GND</text>
<text fill="#00ccee"  xml:space="preserve" font-size="30.4647" transform="translate(404.815, 390.112)" >A</text>
<text fill="#00ccee"  xml:space="preserve" font-size="30.4647" transform="translate(337.131, 361.263)" >B</text>
<text fill="#cccccc"  xml:space="preserve" font-size="18.4635" transform="translate(501.267, 355.47)" >B</text>
<text fill="#cccccc"  xml:space="preserve" font-size="13.8476" transform="translate(540.732, 367.923)" >Out</text>
<text fill="#cccccc"  xml:space="preserve" font-size="18.4635" transform="translate(501.267, 377.662)" >A</text>
<text fill="#aaaa00"  xml:space="preserve" font-size="18.4635" transform="translate(734.485, 385.873)" >1</text>
<text fill="#aaaa00"  xml:space="preserve" font-size="18.4635" transform="translate(734.485, 461.324)" >2</text>
<text fill="#cccccc"  xml:space="preserve" font-size="18.4635" transform="translate(781.991, 399.188)" >C1</text>
<text fill="#cccccc"  xml:space="preserve" font-size="18.4635" transform="translate(781.991, 421.379)" >200f</text>
<text fill="#cccccc"  xml:space="preserve" font-size="18.4635" transform="translate(781.991, 443.571)" >m=1</text>
<text fill="#cccccc"  xml:space="preserve" font-size="18.4635" transform="translate(406.952, 453.653)" >Vin_B</text>
<text fill="#cccccc"  xml:space="preserve" font-size="18.4635" transform="translate(406.952, 480.283)" >pulse(0 1.8 1ns 1ns 1ns 4ns 12ns)</text>
<text fill="#cccccc"  xml:space="preserve" font-size="18.4635" transform="translate(474.637, 516.899)" >Vin_A</text>
<text fill="#cccccc"  xml:space="preserve" font-size="18.4635" transform="translate(474.637, 543.529)" >pulse(0 1.8 1ns 1ns 2ns 6ns 12ns)</text>
<text fill="#cccccc"  xml:space="preserve" font-size="18.4635" transform="translate(218.323, 352.681)" >Vdd</text>
<text fill="#cccccc"  xml:space="preserve" font-size="18.4635" transform="translate(218.323, 379.311)" >1.8</text>
<text fill="#cccccc"  xml:space="preserve" font-size="27.6952" transform="translate(973.949, 271.091)" >TT_MODELS</text>
<text fill="#cccccc"  xml:space="preserve" font-size="27.6952" transform="translate(907.374, 592.871)" >SPICE</text>
<text fill="#cccccc"  xml:space="preserve" font-size="27.6952" style="font-family:Monospace;" transform="translate(925.128, 637.254)" >.tran 0.01n 50n</text>
<text fill="#cccccc"  xml:space="preserve" font-size="27.6952" style="font-family:Monospace;" transform="translate(925.128, 669.02)" >.saveall</text>
<path class="l4" d="M463.541 348.026L499.048 348.026"/>
<path class="l4" d="M568.951 362.45L604.458 362.45"/>
<path class="l4" d="M463.541 376.875L499.048 376.875"/>
<path class="l4" d="M499.048 341.368L499.048 383.533"/>
<path class="l4" d="M499.048 341.368L552.308 341.368"/>
<path class="l4" d="M499.048 383.533L552.308 383.533"/>
<path class="l4" style="fill:none;" d="M552.308 383.533 A21.5774 21.5774 0 0 0 552.308 341.368"/>
<path class="l4" d="M755.361 424.587L755.361 468.97"/>
<path class="l4" d="M755.361 362.45L755.361 406.834"/>
<path class="l4" d="M737.608 406.834L773.115 406.834"/>
<path class="l4" d="M737.608 424.587L773.115 424.587"/>
<path class="l4" d="M759.8 375.765L768.676 375.765"/>
<path class="l4" d="M764.238 371.327L764.238 380.204"/>
<path class="l4" d="M755.361 468.97L755.361 491.162"/>
<path class="l4" d="M746.485 491.162L764.238 491.162"/>
<path class="l4" d="M755.361 500.039L764.238 491.162"/>
<path class="l4" d="M746.485 491.162L755.361 500.039"/>
<path class="l4" d="M182.816 278.122L182.816 295.875"/>
<path class="l4" d="M166.173 278.122L199.46 278.122"/>
<circle class="l4" cx="182.816" cy="278.122" r="6.21367" />
<path class="l4" d="M182.816 425.697L182.816 447.888"/>
<path class="l4" d="M173.94 447.888L191.693 447.888"/>
<path class="l4" d="M182.816 456.765L191.693 447.888"/>
<path class="l4" d="M173.94 447.888L182.816 456.765"/>
<path class="l4" d="M371.446 407.943L371.446 434.573"/>
<path class="l4" d="M371.446 487.833L371.446 514.463"/>
<path class="l4" d="M364.788 447.888L378.103 447.888"/>
<path class="l4" d="M371.446 441.231L371.446 454.546"/>
<path class="l4" d="M364.788 474.518L378.103 474.518"/>
<circle class="l4" cx="371.446" cy="461.203" r="26.63" style="fill:none;"/>
<path class="l4" d="M439.13 471.19L439.13 497.82"/>
<path class="l4" d="M439.13 551.08L439.13 577.71"/>
<path class="l4" d="M432.473 511.135L445.788 511.135"/>
<path class="l4" d="M439.13 504.477L439.13 517.792"/>
<path class="l4" d="M432.473 537.765L445.788 537.765"/>
<circle class="l4" cx="439.13" cy="524.45" r="26.63" style="fill:none;"/>
<path class="l4" d="M439.13 577.71L439.13 599.901"/>
<path class="l4" d="M430.254 599.901L448.007 599.901"/>
<path class="l4" d="M439.13 608.778L448.007 599.901"/>
<path class="l4" d="M430.254 599.901L439.13 608.778"/>
<path class="l4" d="M371.446 578.819L371.446 601.011"/>
<path class="l4" d="M362.569 601.011L380.322 601.011"/>
<path class="l4" d="M371.446 609.888L380.322 601.011"/>
<path class="l4" d="M362.569 601.011L371.446 609.888"/>
<path class="l4" d="M182.816 306.971L182.816 333.601"/>
<path class="l4" d="M182.816 386.861L182.816 413.491"/>
<path class="l4" d="M176.159 346.916L189.474 346.916"/>
<path class="l4" d="M182.816 340.259L182.816 353.574"/>
<path class="l4" d="M176.159 373.546L189.474 373.546"/>
<circle class="l4" cx="182.816" cy="360.231" r="26.63" style="fill:none;"/>
<path class="l4" d="M982.826 343.588L1053.84 343.588"/>
<path class="l4" d="M982.826 361.341L1018.33 361.341"/>
<path class="l4" d="M982.826 379.094L1053.84 379.094"/>
<path class="l4" d="M982.826 396.848L1036.09 396.848"/>
<path class="l4" d="M982.826 414.601L1036.09 414.601"/>
<path class="l4" d="M982.826 432.354L1107.1 432.354"/>
<path class="l4" d="M982.826 450.108L1018.33 450.108"/>
<path class="l4" d="M982.826 325.834L1071.59 325.834"/>
<path class="l4" d="M982.826 308.081L1018.33 308.081"/>
<path class="l4" d="M1124.85 308.081L1142.61 308.081"/>
<path class="l4" d="M1142.61 308.081L1142.61 485.614"/>
<path class="l4" d="M982.826 485.614L1142.61 485.614"/>
<path class="l4" d="M982.826 467.861L982.826 485.614"/>
<path class="l4" d="M1124.85 290.328L1124.85 467.861"/>
<path class="l4" d="M965.073 467.861L1124.85 467.861"/>
<path class="l4" d="M965.073 290.328L965.073 467.861"/>
<path class="l4" d="M965.073 290.328L1124.85 290.328"/>
<path class="l4" d="M898.498 603.23L1022.77 603.23"/>
<path class="l4" d="M898.498 603.23L898.498 638.737"/>
<path class="l5" d="M459.103 343.588L467.979 343.588L467.979 352.464L459.103 352.464L459.103 343.588z"/>
<path class="l5" d="M600.02 358.012L608.896 358.012L608.896 366.889L600.02 366.889L600.02 358.012z"/>
<path class="l5" d="M459.103 372.437L467.979 372.437L467.979 381.313L459.103 381.313L459.103 372.437z"/>
<path class="l5" d="M750.923 358.012L759.8 358.012L759.8 366.889L750.923 366.889L750.923 358.012z"/>
<path class="l5" d="M750.923 464.532L759.8 464.532L759.8 473.409L750.923 473.409L750.923 464.532z"/>
<path class="l5" d="M750.923 464.532L759.8 464.532L759.8 473.409L750.923 473.409L750.923 464.532z"/>
<path class="l5" d="M817.498 362.45L833.032 362.45"/>
<path class="l5" d="M848.566 362.45L841.909 353.574L826.375 353.574L833.032 362.45L826.375 371.327L841.909 371.327L848.566 362.45"/>
<path class="l5" d="M815.279 360.231L819.717 360.231L819.717 364.67L815.279 364.67L815.279 360.231z"/>
<path class="l5" d="M181.929 294.988L183.704 294.988L183.704 296.763L181.929 296.763L181.929 294.988z"/>
<path class="l5" d="M178.378 421.258L187.255 421.258L187.255 430.135L178.378 430.135L178.378 421.258z"/>
<path class="l5" d="M370.558 407.056L372.333 407.056L372.333 408.831L370.558 408.831L370.558 407.056z"/>
<path class="l5" d="M370.558 513.576L372.333 513.576L372.333 515.351L370.558 515.351L370.558 513.576z"/>
<path class="l5" d="M438.243 470.302L440.018 470.302L440.018 472.077L438.243 472.077L438.243 470.302z"/>
<path class="l5" d="M438.243 576.822L440.018 576.822L440.018 578.597L438.243 578.597L438.243 576.822z"/>
<path class="l5" d="M434.692 573.271L443.569 573.271L443.569 582.148L434.692 582.148L434.692 573.271z"/>
<path class="l5" d="M367.007 574.381L375.884 574.381L375.884 583.258L367.007 583.258L367.007 574.381z"/>
<path class="l5" d="M181.929 306.084L183.704 306.084L183.704 307.859L181.929 307.859L181.929 306.084z"/>
<path class="l5" d="M181.929 412.604L183.704 412.604L183.704 414.379L181.929 414.379L181.929 412.604z"/>
<path class="l5" d="M436.911 374.656L441.349 374.656L441.349 379.094L436.911 379.094L436.911 374.656z"/>
<path class="l5" d="M369.226 345.807L373.665 345.807L373.665 350.245L369.226 350.245L369.226 345.807z"/>
<path class="l1" d="M755.361 362.45L817.498 362.45"/>
<path class="l1" d="M439.13 376.875L463.541 376.875"/>
<path class="l1" d="M439.13 348.026L463.541 348.026"/>
<path class="l1" d="M182.816 293.656L182.816 308.081"/>
<path class="l1" d="M182.816 414.601L182.816 426.806"/>
<path class="l1" d="M382.541 348.026L439.13 348.026"/>
<path class="l1" d="M371.446 349.135L371.446 407.943"/>
<path class="l1" d="M439.13 376.875L439.13 426.806"/>
<path class="l1" d="M371.446 348.026L382.541 348.026"/>
<path class="l1" d="M371.446 348.026L371.446 349.135"/>
<path class="l1" d="M439.13 426.806L439.13 471.19"/>
<path class="l1" d="M371.446 514.463L371.446 578.819"/>
<path class="l1" d="M182.816 413.491L182.816 414.601"/>
<path class="l1" d="M604.458 362.45L755.361 362.45"/>
</svg>
