<?xml version="1.0" standalone="yes"?>
<!DOCTYPE svg PUBLIC "-//W3C//DTD SVG 1.1//EN"
 "http://www.w3.org/Graphics/SVG/1.1/DTD/svg11.dtd">
<svg xmlns="http://www.w3.org/2000/svg" version="1.1"
  width="100%" height="100%" viewBox="0 0 1024 768"
  style="fill: none; font-family: Helvetica;
 font: Helvetica;
">

<!-- Creator: NGspice -->

<rect x="0" y="0" width="1024" height="768" fill="black" stroke="none"/>
<text stroke="none" fill="white" font-size="16" x="358" y="752">
time
</text>
<text stroke="none" fill="white" font-size="16" x="10" y="16">
tran1: ** sch_path: /home/madvlsi/documents/mp1/mp1_final_schem.sch
</text>
<path stroke="white" d="M50 720l0 -670"/>
<text stroke="none" fill="white" font-size="16" x="35" y="728">
0.0
</text>
<path stroke="white" stroke-dasharray="1,2" d="M142 720l0 -670"/>
<text stroke="none" fill="white" font-size="16" x="127" y="728">
5.0
</text>
<path stroke="white" stroke-dasharray="1,2" d="M234 720l0 -670"/>
<text stroke="none" fill="white" font-size="16" x="214" y="728">
10.0
</text>
<path stroke="white" stroke-dasharray="1,2" d="M326 720l0 -670"/>
<text stroke="none" fill="white" font-size="16" x="306" y="728">
15.0
</text>
<path stroke="white" stroke-dasharray="1,2" d="M418 720l0 -670"/>
<text stroke="none" fill="white" font-size="16" x="398" y="728">
20.0
</text>
<path stroke="white" stroke-dasharray="1,2" d="M510 720l0 -670"/>
<text stroke="none" fill="white" font-size="16" x="490" y="728">
25.0
</text>
<path stroke="white" stroke-dasharray="1,2" d="M602 720l0 -670"/>
<text stroke="none" fill="white" font-size="16" x="582" y="728">
30.0
</text>
<path stroke="white" stroke-dasharray="1,2" d="M694 720l0 -670"/>
<text stroke="none" fill="white" font-size="16" x="674" y="728">
35.0
</text>
<path stroke="white" stroke-dasharray="1,2" d="M786 720l0 -670"/>
<text stroke="none" fill="white" font-size="16" x="766" y="728">
40.0
</text>
<path stroke="white" stroke-dasharray="1,2" d="M878 720l0 -670"/>
<text stroke="none" fill="white" font-size="16" x="858" y="728">
45.0
</text>
<path stroke="white" stroke-dasharray="1,2" d="M970 720l0 -670"/>
<text stroke="none" fill="white" font-size="16" x="950" y="728">
50.0
</text>
<text stroke="none" fill="white" font-size="16" x="614" y="752">
ns
</text>
<path stroke="white" stroke-dasharray="1,2" d="M50 720l920 0"/>
<text stroke="none" fill="white" font-size="16" x="8" y="728">
-0.2
</text>
<path stroke="white" d="M50 653l920 0"/>
<text stroke="none" fill="white" font-size="16" x="18" y="661">
0.0
</text>
<path stroke="white" stroke-dasharray="1,2" d="M50 586l920 0"/>
<text stroke="none" fill="white" font-size="16" x="18" y="594">
0.2
</text>
<path stroke="white" stroke-dasharray="1,2" d="M50 519l920 0"/>
<text stroke="none" fill="white" font-size="16" x="18" y="527">
0.4
</text>
<path stroke="white" stroke-dasharray="1,2" d="M50 452l920 0"/>
<text stroke="none" fill="white" font-size="16" x="18" y="460">
0.6
</text>
<path stroke="white" stroke-dasharray="1,2" d="M50 385l920 0"/>
<text stroke="none" fill="white" font-size="16" x="18" y="393">
0.8
</text>
<path stroke="white" stroke-dasharray="1,2" d="M50 318l920 0"/>
<text stroke="none" fill="white" font-size="16" x="18" y="326">
1.0
</text>
<path stroke="white" stroke-dasharray="1,2" d="M50 251l920 0"/>
<text stroke="none" fill="white" font-size="16" x="18" y="259">
1.2
</text>
<path stroke="white" stroke-dasharray="1,2" d="M50 184l920 0"/>
<text stroke="none" fill="white" font-size="16" x="18" y="192">
1.4
</text>
<path stroke="white" stroke-dasharray="1,2" d="M50 117l920 0"/>
<text stroke="none" fill="white" font-size="16" x="18" y="125">
1.6
</text>
<path stroke="white" stroke-dasharray="1,2" d="M50 50l920 0"/>
<text stroke="none" fill="white" font-size="16" x="18" y="58">
1.8
</text>
<text stroke="none" fill="white" font-size="16" x="10" y="32">
V
</text>
<path stroke="red" d="M460 23l46 0"/>
<text stroke="none" fill="white" font-size="16" x="516" y="32">
v(Out)
</text>
<path stroke="red" d="M50 653l29 0M79 654l0 -1M79 654l1 0 0 -2 1 -2 0 -10 1 -3 0 -16 1 -4 0 -13 1 -3 0 -16 1 -3 0 -13 1 -3 0 -12 1 -3 0 -16 1 -3 0 -12 1 -3 0 -15 1 -3 0 -12 1 -3 0 -15 1 -3 0 -11 1 -3 0 -12 1 -3 0 -14 1 -3 0 -11 1 -2 0 -14 1 -3"/>
<path stroke="red" d="M97 390l0 -11 1 -2 0 -14 1 -2 0 -11 1 -2 0 -11 1 -2 0 -13 1 -2 0 -10 1 -3 0 -12 1 -2 0 -9 1 -3 0 -11 1 -3 0 -8 1 -3 0 -8 1 -2 0 -11 1 -2 0 -8 1 -2 0 -10 1 -1 0 -8 1 -2 0 -8 1 -2 0 -7 1 -2 0 -8 1 -1 0 -6 1 -2 0 -6 1 -1 0 -7"/>
<path stroke="red" d="M117 152l1 -1 0 -5 1 -2 0 -6 1 -1 0 -5 1 -1 0 -5 1 -1 0 -4 1 -1 0 -4 1 -1 0 -4 1 -1 0 -4 1 0 0 -4 1 -1 0 -3 1 -1 0 -3 1 -1 0 -2 1 -1 0 -2 1 -1 0 -2 1 -1 0 -2 1 0 0 -3 1 0 0 -2 1 0 0 -2 1 -1 0 -1 1 0 0 -2 1 0 0 -2 1 0 0 -1"/>
<path stroke="red" d="M139 68l1 0 0 -2 1 0 0 -1 1 0 0 -1 1 0 0 -1 1 0 0 -1 1 -1 1 0 0 -1 1 0 0 -1 1 0 0 -1 1 0 1 -1 1 0 0 -1 2 0 0 -1 2 0 1 -1 2 0 0 -1 4 0 0 -1 6 0 0 -1 4 0 0 -1 1 0M173 55l0 -5M173 55l1 3M174 87l0 -29M174 87l1 7M175 125l0 -31"/>
<path stroke="red" d="M175 125l1 8M176 172l0 -39M176 172l1 8M177 212l0 -32M177 212l1 8M178 251l0 -31M178 251l1 7M179 297l0 -39M179 297l1 7M180 334l0 -30M180 334l1 8M181 379l0 -37M181 379l1 7M182 415l0 -29M182 415l1 8M183 458l0 -35M183 458l1 7"/>
<path stroke="red" d="M184 492l0 -27M184 492l1 7M185 524l0 -25M185 524l1 7M186 559l0 -28M186 559l1 5M187 583l0 -19M187 583l1 4M188 605l0 -18M188 605l1 3M189 618l0 -10M189 618l1 2M190 630l0 -10M190 630l1 1M191 637l0 -6M191 637l1 1M192 642l0 -4"/>
<path stroke="red" d="M192 642l1 0M193 646l0 -4M193 646l1 0M194 648l0 -2M194 648l1 0M195 650l0 -2M195 650l1 0M196 651l0 -1M196 651l1 0M197 652l0 -1M197 652l3 0M200 653l0 -1M200 653l100 0M300 654l0 -1M300 654l1 0 0 -3 1 -2 0 -11 1 -3 0 -17 1 -3"/>
<path stroke="red" d="M304 615l0 -13 1 -3 0 -16 1 -3 0 -13 1 -3 0 -12 1 -3 0 -16 1 -3 0 -12 1 -3 0 -15 1 -3 0 -12 1 -3 0 -15 1 -3 0 -11 1 -3 0 -14 1 -3 0 -12 1 -2 0 -11 1 -3 0 -14 1 -3 0 -10 1 -3 0 -13 1 -3 0 -10 1 -3 0 -13 1 -2 0 -10 1 -3 0 -10"/>
<path stroke="red" d="M323 308l1 -2 0 -12 1 -3 0 -9 1 -2 0 -12 1 -2 0 -9 1 -2 0 -11 1 -2 0 -8 1 -2 0 -8 1 -2 0 -10 1 -2 0 -7 1 -2 0 -9 1 -1 0 -7 1 -2 0 -8 1 -1 0 -6 1 -2 0 -6 1 -1 0 -7 1 -1 0 -5 1 -2 0 -6 1 -1 0 -4 1 -1 0 -6 1 -1 0 -4 1 -1 0 -5"/>
<path stroke="red" d="M344 114l1 0 0 -4 1 -1 0 -3 1 -1 0 -4 1 -1 0 -2 1 -1 0 -3 1 -1 0 -3 1 0 0 -3 1 -1 0 -2 1 0 0 -2 1 -1 0 -2 1 0 0 -2 1 0 0 -2 1 -1 0 -1 1 -1 0 -1 1 -1 0 -1 1 0 0 -1 1 0 0 -2 1 0 0 -1 1 0 0 -1 4 -4 1 0 0 -1 1 0 0 -1 1 0 1 -1"/>
<path stroke="red" d="M371 57l1 0 0 -1 2 0 0 -1 2 0 1 -1 2 0 0 -1 4 0 0 -1 6 0 0 -1 3 0 1 -1 1 1M394 58l0 -7M394 58l1 4M395 94l0 -32M395 94l1 7M396 133l0 -32M396 133l1 8M397 180l0 -39M397 180l1 8M398 220l0 -32M398 220l1 7M399 258l0 -31M399 258l1 8"/>
<path stroke="red" d="M400 304l0 -38M400 304l1 8M401 342l0 -30M401 342l1 7M402 386l0 -37M402 386l1 8M403 423l0 -29M403 423l1 7M404 465l0 -35M404 465l1 7M405 499l0 -27M405 499l1 6M406 531l0 -26M406 531l1 6M407 564l0 -27M407 564l1 5M408 587l0 -18"/>
<path stroke="red" d="M408 587l1 4M409 608l0 -17M409 608l1 2M410 620l0 -10M410 620l1 2M411 631l0 -9M411 631l1 2M412 638l0 -5M412 638l1 1M413 643l0 -4M413 643l1 1M414 646l0 -2M414 646l1 1M415 648l0 -1M415 648l1 1M416 650l0 -1M416 650l1 0M417 651l0 -1"/>
<path stroke="red" d="M417 651l1 0M418 652l0 -1M418 652l3 0M421 653l0 -1M421 653l100 0M521 654l0 -1M521 654l1 0 0 -5 1 -2 0 -12 1 -4 0 -16 1 -3 0 -13 1 -3 0 -16 1 -3 0 -13 1 -3 0 -15 1 -1 0 -15 1 -3 0 -12 1 -3 0 -15 1 -3 0 -12 1 -3 0 -15 1 -3"/>
<path stroke="red" d="M534 461l0 -11 1 -3 0 -14 1 -3 0 -11 1 -3 0 -11 1 -3 0 -14 1 -2 0 -11 1 -3 0 -13 1 -3 0 -10 1 -3 0 -12 1 -3 0 -10 1 -2 0 -10 1 -3 0 -12 1 -2 0 -9 1 -3 0 -11 1 -2 0 -9 1 -2 0 -11 1 -2 0 -8 1 -2 0 -10 1 -2 0 -8 1 -1 0 -8 1 -2"/>
<path stroke="red" d="M554 199l0 -8 1 -2 0 -7 1 -1 0 -8 1 -2 0 -6 1 -1 0 -7 1 -2 0 -5 1 -1 0 -6 1 -1 0 -6 1 -1 0 -4 1 -2 0 -5 1 -1 0 -4 1 -1 0 -4 1 -1 0 -4 1 -1 0 -3 1 -1 0 -4 1 0 0 -3 1 -1 0 -3 1 -1 0 -2 1 -1 0 -3 1 0 0 -2 1 -1 0 -2 1 -1 0 -1"/>
<path stroke="red" d="M575 79l1 -1 0 -1 1 -1 0 -2 1 0 0 -2 1 0 0 -2 1 0 0 -1 1 0 0 -2 1 0 0 -1 1 0 0 -1 1 0 0 -2 1 0 0 -1 1 0 0 -1 1 0 0 -1 1 0 1 -1 1 0 0 -1 1 0 0 -1 2 0 0 -1 2 0 0 -1 2 0 0 -1 3 0 0 -1 4 0 0 -1 6 0 0 -1 3 0 0 -1 1 0M614 51l0 -1"/>
<path stroke="red" d="M614 51l1 0M615 62l0 -11M615 62l1 5M616 101l0 -34M616 101l1 8M617 141l0 -32M617 141l1 8M618 188l0 -39M618 188l1 8M619 227l0 -31M619 227l1 8M620 272l0 -37M620 272l1 3M621 312l0 -37M621 312l1 7M622 349l0 -30M622 349l1 8M623 394l0 -37"/>
<path stroke="red" d="M623 394l1 7M624 430l0 -29M624 430l1 7M625 472l0 -35M625 472l1 7M626 505l0 -26M626 505l1 7M627 542l0 -30M627 542l1 6M628 569l0 -21M628 569l1 5M629 591l0 -17M629 591l1 3M630 610l0 -16M630 610l1 3M631 622l0 -9M631 622l1 3"/>
<path stroke="red" d="M632 633l0 -8M632 633l1 1M633 639l0 -5M633 639l1 1M634 644l0 -4M634 644l1 0M635 647l0 -3M635 647l1 0M636 649l0 -2M636 649l1 0M637 650l0 -1M637 650l1 0M638 651l0 -1M638 651l1 0M639 652l0 -1M639 652l3 0M642 653l0 -1M642 653l100 0"/>
<path stroke="red" d="M742 654l0 -1M742 654l1 -1 0 -6 1 -3 0 -13 1 -3 0 -16 1 -3 0 -13 1 -3 0 -16 1 -3 0 -13 1 -3 0 -15 1 -4 0 -12 1 -3 0 -15 1 -3 0 -12 1 -3 0 -12 1 -3 0 -15 1 -2 0 -12 1 -3 0 -14 1 -3 0 -11 1 -3 0 -14 1 -2 0 -11 1 -3 0 -11 1 -2"/>
<path stroke="red" d="M761 370l0 -14 1 -2 0 -11 1 -2 0 -13 1 -2 0 -10 1 -3 0 -12 1 -2 0 -10 1 -2 0 -10 1 -2 0 -11 1 -2 0 -9 1 -2 0 -11 1 -2 0 -8 1 -2 0 -10 1 -2 0 -7 1 -2 0 -9 1 -2 0 -7 1 -2 0 -6 1 -2 0 -8 1 -1 0 -6 1 -2 0 -7 1 -1 0 -5 1 -2 0 -6"/>
<path stroke="red" d="M781 141l1 -1 0 -5 1 -1 0 -5 1 -1 0 -5 1 -1 0 -4 1 -1 0 -4 1 -1 0 -4 1 -1 0 -4 1 0 0 -3 1 -1 0 -3 1 0 0 -4 1 0 0 -3 1 0 0 -3 1 -1 0 -2 1 0 0 -3 1 0 0 -2 1 0 0 -2 1 -1 0 -1 1 0 0 -2 1 0 0 -2 1 0 0 -1 1 -1 0 -1 1 0 0 -1 1 -1"/>
<path stroke="red" d="M804 65l0 -1 1 0 0 -1 1 0 0 -1 1 0 0 -1 1 0 0 -1 1 0 0 -1 2 0 0 -1 1 0 0 -1 2 0 0 -1 2 0 0 -1 2 0 0 -1 3 0 0 -1 4 0 0 -1 5 0 1 -1 3 0 0 -1 1 0M835 51l0 -1M835 51l1 2M836 67l0 -14M836 67l1 6M837 109l0 -36M837 109l1 8M838 149l0 -32"/>
<path stroke="red" d="M838 149l1 8M839 196l0 -39M839 196l1 8M840 235l0 -31M840 235l1 8M841 281l0 -38M841 281l1 8M842 319l0 -30M842 319l1 8M843 357l0 -30M843 357l1 7M844 401l0 -37M844 401l1 7M845 437l0 -29M845 437l1 7M846 479l0 -35M846 479l1 6"/>
<path stroke="red" d="M847 512l0 -27M847 512l1 6M848 548l0 -30M848 548l1 6M849 574l0 -20M849 574l1 4M850 598l0 -20M850 598l1 3M851 613l0 -12M851 613l1 3M852 625l0 -9M852 625l1 1M853 634l0 -8M853 634l1 1M854 640l0 -5M854 640l1 1M855 644l0 -3M855 644l1 1"/>
<path stroke="red" d="M856 647l0 -2M856 647l1 0M857 649l0 -2M857 649l1 0M858 650l0 -1M858 650l1 1 1 0M860 652l0 -1M860 652l2 0 1 1 99 0 1 1 0 -1 1 0 0 -9 1 -3 0 -16 1 -3 0 -13 1 -3 0 -13 1 -3 0 -16 1 -3 0 -13 1 -3 0 -8"/>
<path stroke="blue" d="M50 23l46 0"/>
<text stroke="none" fill="white" font-size="16" x="106" y="32">
v(A)
</text>
<path stroke="blue" d="M50 653l18 0 0 -2 1 -2 0 -29 1 -6 0 -24 1 -6 0 -30 1 -7 0 -24 1 -6 0 -30 1 -6 0 -24 1 -6 0 -30 1 -6 0 -24 1 -6 0 -24 1 -6 0 -31 1 -6 0 -24 1 -6 0 -30 1 -6 0 -24 1 -6 0 -30 1 -6 0 -24 1 -6 0 -31 1 -6 0 -24 1 -6 0 -24 1 -6"/>
<path stroke="blue" d="M87 59l0 -9 110 0M197 55l0 -5M197 55l1 3M198 70l0 -12M198 70l1 3M199 88l0 -15M199 88l1 3M200 103l0 -12M200 103l1 3M201 118l0 -12M201 118l1 3M202 136l0 -15M202 136l1 3M203 151l0 -12M203 151l1 3M204 169l0 -15M204 169l1 3"/>
<path stroke="blue" d="M205 184l0 -12M205 184l1 3M206 202l0 -15M206 202l1 3M207 217l0 -12M207 217l1 3M208 232l0 -12M208 232l1 3M209 250l0 -15M209 250l1 4M210 266l0 -12M210 266l1 3M211 284l0 -15M211 284l1 3M212 299l0 -12M212 299l1 3M213 317l0 -15"/>
<path stroke="blue" d="M213 317l1 3M214 332l0 -12M214 332l1 3M215 347l0 -12M215 347l1 3M216 365l0 -15M216 365l1 3M217 380l0 -12M217 380l1 3M218 398l0 -15M218 398l1 3M219 413l0 -12M219 413l1 3M220 431l0 -15M220 431l1 3M221 446l0 -12M221 446l1 3"/>
<path stroke="blue" d="M222 465l0 -16M222 465l1 3M223 480l0 -12M223 480l1 3M224 495l0 -12M224 495l1 3M225 513l0 -15M225 513l1 3M226 528l0 -12M226 528l1 3M227 546l0 -15M227 546l1 3M228 561l0 -12M228 561l1 3M229 579l0 -15M229 579l1 3M230 594l0 -12"/>
<path stroke="blue" d="M230 594l1 3M231 609l0 -12M231 609l1 3M232 627l0 -15M232 627l1 3M233 642l0 -12M233 642l1 3M234 653l0 -8M234 653l55 0 0 -9 1 -6 0 -24 1 -6 0 -24 1 -6 0 -31 1 -6 0 -24 1 -6 0 -30 1 -6 0 -24 1 -6 0 -30 1 -6 0 -24 1 -6 0 -31"/>
<path stroke="blue" d="M298 348l1 -6 0 -24 1 -6 0 -24 1 -6 0 -30 1 -6 0 -24 1 -6 0 -30 1 -6 0 -24 1 -7 0 -30 1 -6 0 -24 1 -6 0 -24 1 -6 0 -3 110 0M418 58l0 -8M418 58l1 3M419 73l0 -12M419 73l1 3M420 91l0 -15M420 91l1 3M421 106l0 -12M421 106l1 3"/>
<path stroke="blue" d="M422 121l0 -12M422 121l1 3M423 139l0 -15M423 139l1 3M424 154l0 -12M424 154l1 3M425 172l0 -15M425 172l1 3M426 187l0 -12M426 187l1 3M427 205l0 -15M427 205l1 3M428 220l0 -12M428 220l1 3M429 235l0 -12M429 235l1 3M430 254l0 -16"/>
<path stroke="blue" d="M430 254l1 3M431 269l0 -12M431 269l1 3M432 287l0 -15M432 287l1 3M433 302l0 -12M433 302l1 3M434 320l0 -15M434 320l1 3M435 335l0 -12M435 335l1 3M436 353l0 -15M436 353l1 3M437 368l0 -12M437 368l1 3M438 383l0 -12M438 383l1 3"/>
<path stroke="blue" d="M439 401l0 -15M439 401l1 3M440 416l0 -12M440 416l1 3M441 434l0 -15M441 434l1 3M442 449l0 -12M442 449l1 4M443 468l0 -15M443 468l1 3M444 483l0 -12M444 483l1 3M445 498l0 -12M445 498l1 3M446 516l0 -15M446 516l1 3M447 531l0 -12"/>
<path stroke="blue" d="M447 531l1 3M448 549l0 -15M448 549l1 3M449 564l0 -12M449 564l1 3M450 582l0 -15M450 582l1 3M451 597l0 -12M451 597l1 3M452 612l0 -12M452 612l1 3M453 630l0 -15M453 630l1 3M454 645l0 -12M454 645l1 3M455 653l0 -5M455 653l55 0"/>
<path stroke="blue" d="M510 653l0 -15 1 -6 0 -24 1 -6 0 -30 1 -6 0 -25 1 -6 0 -24 1 -6 0 -30 1 -6 0 -24 1 -6 0 -30 1 -6 0 -24 1 -6 0 -31 1 -6 0 -24 1 -6 0 -24 1 -6 0 -30 1 -6 0 -24 1 -6 0 -30 1 -6 0 -25 1 -6 0 -30 1 -6 0 -24 1 -6 0 -27 111 0"/>
<path stroke="blue" d="M639 61l0 -11M639 61l1 3M640 76l0 -12M640 76l1 3M641 94l0 -15M641 94l1 3M642 109l0 -12M642 109l1 3M643 127l0 -15M643 127l1 3M644 142l0 -12M644 142l1 3M645 157l0 -12M645 157l1 3M646 175l0 -15M646 175l1 3M647 190l0 -12M647 190l1 3"/>
<path stroke="blue" d="M648 208l0 -15M648 208l1 3M649 223l0 -12M649 223l1 3M650 241l0 -15M650 241l1 3M651 257l0 -13M651 257l1 3M652 272l0 -12M652 272l1 3M653 290l0 -15M653 290l1 3M654 305l0 -12M654 305l1 3M655 323l0 -15M655 323l1 3M656 338l0 -12"/>
<path stroke="blue" d="M656 338l1 3M657 356l0 -15M657 356l1 3M658 371l0 -12M658 371l1 3M659 389l0 -15M659 389l1 3M660 404l0 -12M660 404l1 3M661 419l0 -12M661 419l1 3M662 437l0 -15M662 437l1 3M663 453l0 -13M663 453l1 3M664 471l0 -15M664 471l1 3"/>
<path stroke="blue" d="M665 486l0 -12M665 486l1 3M666 504l0 -15M666 504l1 3M667 519l0 -12M667 519l1 3M668 534l0 -12M668 534l1 3M669 552l0 -15M669 552l1 3M670 567l0 -12M670 567l1 3M671 585l0 -15M671 585l1 3M672 600l0 -12M672 600l1 3M673 618l0 -15"/>
<path stroke="blue" d="M673 618l1 3M674 633l0 -12M674 633l1 3M675 648l0 -12M675 648l1 3M676 653l0 -2M676 653l55 0 0 -21 1 -6 0 -24 1 -6 0 -30 1 -6 0 -25 1 -6 0 -30 1 -6 0 -24 1 -6 0 -24 1 -6 0 -30 1 -6 0 -24 1 -6 0 -31 1 -6 0 -24 1 -6 0 -30 1 -6"/>
<path stroke="blue" d="M743 264l0 -24 1 -6 0 -24 1 -6 0 -30 1 -6 0 -25 1 -6 0 -30 1 -6 0 -24 1 -6 0 -21 111 0M860 64l0 -14M860 64l1 3M861 79l0 -12M861 79l1 3M862 97l0 -15M862 97l1 3M863 112l0 -12M863 112l1 3M864 130l0 -15M864 130l1 3M865 145l0 -12"/>
<path stroke="blue" d="M865 145l1 3M866 163l0 -15M866 163l1 3M867 178l0 -12M867 178l1 3M868 193l0 -12M868 193l1 3M869 211l0 -15M869 211l1 3M870 226l0 -12M870 226l1 3M871 244l0 -15M871 244l1 3M872 260l0 -13M872 260l1 3M873 278l0 -15M873 278l1 3"/>
<path stroke="blue" d="M874 293l0 -12M874 293l1 3M875 308l0 -12M875 308l1 3M876 326l0 -15M876 326l1 3M877 341l0 -12M877 341l1 3M878 359l0 -15M878 359l1 3M879 374l0 -12M879 374l1 3M880 392l0 -15M880 392l1 3M881 407l0 -12M881 407l1 3M882 422l0 -12"/>
<path stroke="blue" d="M882 422l1 3M883 440l0 -15M883 440l1 3M884 456l0 -13M884 456l1 3M885 474l0 -15M885 474l1 3M886 489l0 -12M886 489l1 3M887 507l0 -15M887 507l1 3M888 522l0 -12M888 522l1 3M889 540l0 -15M889 540l1 3M890 555l0 -12M890 555l1 3"/>
<path stroke="blue" d="M891 570l0 -12M891 570l1 3M892 588l0 -15M892 588l1 3M893 603l0 -12M893 603l1 3M894 621l0 -15M894 621l1 3M895 636l0 -12M895 636l1 3M896 653l0 -14M896 653l56 0 0 -27 1 -6 0 -24 1 -6 0 -30 1 -6 0 -25 1 -6 0 -30 1 -6 0 -24"/>
<path stroke="blue" d="M957 463l1 -6 0 -30 1 -6 0 -24 1 -6 0 -24 1 -6 0 -31 1 -6 0 -24 1 -6 0 -30 1 -6 0 -24 1 -6 0 -30 1 -6 0 -24 1 -6 0 -25 1 -6 0 -30 1 -6 0 -24 1 -6 0 -15"/>
<path stroke="#FFA500" d="M460 39l46 0"/>
<text stroke="none" fill="white" font-size="16" x="516" y="48">
v(B)
</text>
<path stroke="#FFA500" d="M50 653l18 0 0 -2 1 -2 0 -29 1 -6 0 -24 1 -6 0 -30 1 -7 0 -24 1 -6 0 -30 1 -6 0 -24 1 -6 0 -30 1 -6 0 -24 1 -6 0 -24 1 -6 0 -31 1 -6 0 -24 1 -6 0 -30 1 -6 0 -24 1 -6 0 -30 1 -6 0 -24 1 -6 0 -31 1 -6 0 -24 1 -6 0 -24"/>
<path stroke="#FFA500" d="M86 65l1 -6 0 -9 73 0M160 52l0 -2M160 52l1 2M161 83l0 -29M161 83l1 6M162 113l0 -24M162 113l1 6M163 149l0 -30M163 149l1 7M164 180l0 -24M164 180l1 6M165 216l0 -30M165 216l1 6M166 246l0 -24M166 246l1 6M167 282l0 -30M167 282l1 6"/>
<path stroke="#FFA500" d="M168 312l0 -24M168 312l1 6M169 342l0 -24M169 342l1 6M170 379l0 -31M170 379l1 6M171 409l0 -24M171 409l1 6M172 445l0 -30M172 445l1 6M173 475l0 -24M173 475l1 6M174 511l0 -30M174 511l1 6M175 541l0 -24M175 541l1 6M176 578l0 -31"/>
<path stroke="#FFA500" d="M176 578l1 6M177 608l0 -24M177 608l1 6M178 638l0 -24M178 638l1 6M179 653l0 -9M179 653l110 0 0 -9 1 -6 0 -24 1 -6 0 -24 1 -6 0 -31 1 -6 0 -24 1 -6 0 -30 1 -6 0 -24 1 -6 0 -30 1 -6 0 -24 1 -6 0 -31 1 -6 0 -24 1 -6 0 -24"/>
<path stroke="#FFA500" d="M300 288l1 -6 0 -30 1 -6 0 -24 1 -6 0 -30 1 -6 0 -24 1 -7 0 -30 1 -6 0 -24 1 -6 0 -24 1 -6 0 -3 73 0M381 59l0 -9M381 59l1 6M382 89l0 -24M382 89l1 6M383 119l0 -24M383 119l1 6M384 156l0 -31M384 156l1 6M385 186l0 -24M385 186l1 6"/>
<path stroke="#FFA500" d="M386 222l0 -30M386 222l1 6M387 252l0 -24M387 252l1 6M388 288l0 -30M388 288l1 6M389 318l0 -24M389 318l1 6M390 355l0 -31M390 355l1 6M391 385l0 -24M391 385l1 6M392 415l0 -24M392 415l1 6M393 451l0 -30M393 451l1 6M394 481l0 -24"/>
<path stroke="#FFA500" d="M394 481l1 6M395 517l0 -30M395 517l1 6M396 547l0 -24M396 547l1 7M397 584l0 -30M397 584l1 6M398 614l0 -24M398 614l1 6M399 644l0 -24M399 644l1 6M400 653l0 -3M400 653l110 0 0 -15 1 -6 0 -24 1 -6 0 -30 1 -6 0 -25 1 -6 0 -24"/>
<path stroke="#FFA500" d="M514 511l1 -6 0 -30 1 -6 0 -24 1 -6 0 -30 1 -6 0 -24 1 -6 0 -31 1 -6 0 -24 1 -6 0 -24 1 -6 0 -30 1 -6 0 -24 1 -6 0 -30 1 -6 0 -25 1 -6 0 -30 1 -6 0 -24 1 -6 0 -27 74 0M602 65l0 -15M602 65l1 6M603 95l0 -24M603 95l1 6"/>
<path stroke="#FFA500" d="M604 131l0 -30M604 131l1 6M605 162l0 -25M605 162l1 6M606 192l0 -24M606 192l1 6M607 228l0 -30M607 228l1 6M608 258l0 -24M608 258l1 6M609 294l0 -30M609 294l1 6M610 324l0 -24M610 324l1 6M611 361l0 -31M611 361l1 6M612 391l0 -24"/>
<path stroke="#FFA500" d="M612 391l1 6M613 427l0 -30M613 427l1 6M614 457l0 -24M614 457l1 6M615 487l0 -24M615 487l1 6M616 523l0 -30M616 523l1 6M617 554l0 -25M617 554l1 6M618 590l0 -30M618 590l1 6M619 620l0 -24M619 620l1 6M620 653l0 -27M620 653l111 0"/>
<path stroke="#FFA500" d="M731 653l0 -21 1 -6 0 -24 1 -6 0 -30 1 -6 0 -25 1 -6 0 -30 1 -6 0 -24 1 -6 0 -24 1 -6 0 -30 1 -6 0 -24 1 -6 0 -31 1 -6 0 -24 1 -6 0 -30 1 -6 0 -24 1 -6 0 -24 1 -6 0 -30 1 -6 0 -25 1 -6 0 -30 1 -6 0 -24 1 -6 0 -21 74 0"/>
<path stroke="#FFA500" d="M823 71l0 -21M823 71l1 6M824 101l0 -24M824 101l1 6M825 137l0 -30M825 137l1 6M826 168l0 -25M826 168l1 6M827 204l0 -30M827 204l1 6M828 234l0 -24M828 234l1 6M829 264l0 -24M829 264l1 6M830 300l0 -30M830 300l1 6M831 330l0 -24"/>
<path stroke="#FFA500" d="M831 330l1 6M832 367l0 -31M832 367l1 6M833 397l0 -24M833 397l1 6M834 433l0 -30M834 433l1 6M835 463l0 -24M835 463l1 6M836 493l0 -24M836 493l1 6M837 529l0 -30M837 529l1 6M838 560l0 -25M838 560l1 6M839 596l0 -30M839 596l1 6"/>
<path stroke="#FFA500" d="M840 626l0 -24M840 626l1 6M841 653l0 -21M841 653l111 0 0 -27 1 -6 0 -24 1 -6 0 -30 1 -6 0 -25 1 -6 0 -30 1 -6 0 -24 1 -6 0 -30 1 -6 0 -24 1 -6 0 -24 1 -6 0 -31 1 -6 0 -24 1 -6 0 -30 1 -6 0 -24 1 -6 0 -30 1 -6 0 -24 1 -6"/>
<path stroke="#FFA500" d="M967 162l0 -25 1 -6 0 -30 1 -6 0 -24 1 -6 0 -15"/>
</svg>
