<?xml version="1.0" standalone="yes"?>
<!DOCTYPE svg PUBLIC "-//W3C//DTD SVG 1.1//EN"
 "http://www.w3.org/Graphics/SVG/1.1/DTD/svg11.dtd">
<svg xmlns="http://www.w3.org/2000/svg" version="1.1"
  width="100%" height="100%" viewBox="0 0 1024 768"
  style="fill: none; font-family: Helvetica;
 font: Helvetica;
">

<!-- Creator: NGspice -->

<rect x="0" y="0" width="1024" height="768" fill="black" stroke="none"/>
<text stroke="none" fill="white" font-size="16" x="358" y="752">
time
</text>
<text stroke="none" fill="white" font-size="16" x="10" y="16">
tran1: ** sch_path: /home/madvlsi/documents/mp1/mp1_final_schem.sch
</text>
<path stroke="white" d="M50 720l0 -670"/>
<text stroke="none" fill="white" font-size="16" x="35" y="728">
0.0
</text>
<path stroke="white" stroke-dasharray="1,2" d="M142 720l0 -670"/>
<text stroke="none" fill="white" font-size="16" x="127" y="728">
0.1
</text>
<path stroke="white" stroke-dasharray="1,2" d="M234 720l0 -670"/>
<text stroke="none" fill="white" font-size="16" x="219" y="728">
0.2
</text>
<path stroke="white" stroke-dasharray="1,2" d="M326 720l0 -670"/>
<text stroke="none" fill="white" font-size="16" x="311" y="728">
0.3
</text>
<path stroke="white" stroke-dasharray="1,2" d="M418 720l0 -670"/>
<text stroke="none" fill="white" font-size="16" x="403" y="728">
0.4
</text>
<path stroke="white" stroke-dasharray="1,2" d="M510 720l0 -670"/>
<text stroke="none" fill="white" font-size="16" x="495" y="728">
0.5
</text>
<path stroke="white" stroke-dasharray="1,2" d="M602 720l0 -670"/>
<text stroke="none" fill="white" font-size="16" x="587" y="728">
0.6
</text>
<path stroke="white" stroke-dasharray="1,2" d="M694 720l0 -670"/>
<text stroke="none" fill="white" font-size="16" x="679" y="728">
0.7
</text>
<path stroke="white" stroke-dasharray="1,2" d="M786 720l0 -670"/>
<text stroke="none" fill="white" font-size="16" x="771" y="728">
0.8
</text>
<path stroke="white" stroke-dasharray="1,2" d="M878 720l0 -670"/>
<text stroke="none" fill="white" font-size="16" x="863" y="728">
0.9
</text>
<path stroke="white" stroke-dasharray="1,2" d="M970 720l0 -670"/>
<text stroke="none" fill="white" font-size="16" x="955" y="728">
1.0
</text>
<text stroke="none" fill="white" font-size="16" x="614" y="752">
us
</text>
<path stroke="white" stroke-dasharray="1,2" d="M50 720l920 0"/>
<text stroke="none" fill="white" font-size="16" x="8" y="728">
-0.2
</text>
<path stroke="white" d="M50 653l920 0"/>
<text stroke="none" fill="white" font-size="16" x="18" y="661">
0.0
</text>
<path stroke="white" stroke-dasharray="1,2" d="M50 586l920 0"/>
<text stroke="none" fill="white" font-size="16" x="18" y="594">
0.2
</text>
<path stroke="white" stroke-dasharray="1,2" d="M50 519l920 0"/>
<text stroke="none" fill="white" font-size="16" x="18" y="527">
0.4
</text>
<path stroke="white" stroke-dasharray="1,2" d="M50 452l920 0"/>
<text stroke="none" fill="white" font-size="16" x="18" y="460">
0.6
</text>
<path stroke="white" stroke-dasharray="1,2" d="M50 385l920 0"/>
<text stroke="none" fill="white" font-size="16" x="18" y="393">
0.8
</text>
<path stroke="white" stroke-dasharray="1,2" d="M50 318l920 0"/>
<text stroke="none" fill="white" font-size="16" x="18" y="326">
1.0
</text>
<path stroke="white" stroke-dasharray="1,2" d="M50 251l920 0"/>
<text stroke="none" fill="white" font-size="16" x="18" y="259">
1.2
</text>
<path stroke="white" stroke-dasharray="1,2" d="M50 184l920 0"/>
<text stroke="none" fill="white" font-size="16" x="18" y="192">
1.4
</text>
<path stroke="white" stroke-dasharray="1,2" d="M50 117l920 0"/>
<text stroke="none" fill="white" font-size="16" x="18" y="125">
1.6
</text>
<path stroke="white" stroke-dasharray="1,2" d="M50 50l920 0"/>
<text stroke="none" fill="white" font-size="16" x="18" y="58">
1.8
</text>
<text stroke="none" fill="white" font-size="16" x="10" y="32">
V
</text>
<path stroke="red" d="M460 23l46 0"/>
<text stroke="none" fill="white" font-size="16" x="516" y="32">
v(Out)
</text>
<path stroke="red" d="M50 653l1 0M51 654l0 -1M51 654l1 0 0 -312 1 -2 0 -204 1 -1 0 -68 1 0 0 -14 1 0M56 319l0 -269M56 319l1 8M57 652l0 -325M57 652l1 0M58 653l0 -1M58 653l4 0 1 1 0 -298 1 -2 0 -213 1 -1 0 -72 1 0 0 -15 1 0M67 281l0 -231M67 281l1 8"/>
<path stroke="red" d="M68 652l0 -363M68 652l1 0M69 653l0 -1M69 653l5 0M74 654l0 -287 1 -3 0 -218 1 -1 0 -75 1 0 0 -16 1 0M78 251l0 -201M78 251l1 7M79 652l0 -394M79 652l1 0M80 653l0 -1M80 653l5 0M85 654l0 -276 1 -3 0 -222 1 -2 0 -80 1 0 0 -17"/>
<path stroke="red" d="M88 54l1 0M89 212l0 -162M89 212l1 8M90 652l0 -432M90 652l1 0M91 653l0 -1M91 653l5 0M96 654l0 -263 1 -3 0 -230 1 -1 0 -85 1 0 0 -18 1 0M100 180l0 -130M100 180l1 8M101 651l0 -463M101 651l1 0M102 653l0 -2M102 653l5 0M107 654l0 -252"/>
<path stroke="red" d="M107 402l1 -3 0 -235 1 -2 0 -88 1 0 0 -20 1 0M111 149l0 -99M111 149l1 8M112 650l0 -493M112 650l1 0M113 653l0 -3M113 653l5 0M118 654l0 -241 1 -3 0 -239 1 -1 0 -94 1 -1 0 -20 1 0M122 109l0 -59M122 109l1 8M123 649l0 -532M123 649l1 0"/>
<path stroke="red" d="M124 653l0 -4M124 653l5 0M129 654l0 -227 1 -3 0 -246 1 -2 0 -99 1 0 0 -22 1 0M133 80l0 -30M133 80l1 7M134 648l0 -561M134 648l1 0M135 653l0 -5M135 653l5 0M140 654l0 -216 1 -2 0 -252 1 -2 0 -102 1 -1 0 -24 1 0M144 58l0 -8"/>
<path stroke="red" d="M144 58l1 4M145 646l0 -584M145 646l1 0M146 653l0 -7M146 653l5 0M151 654l0 -204 1 -3 0 -255 1 -1 0 -110 1 0 0 -25 1 0 0 -6 1 1M156 643l0 -592M156 643l1 1M157 653l0 -9M157 653l5 0M162 654l0 -190 1 -3 0 -262 1 -1 0 -115 1 0"/>
<path stroke="red" d="M165 83l0 -27 1 0 0 -6 1 0M167 640l0 -590M167 640l1 1M168 653l0 -12M168 653l5 0M173 654l0 -178 1 -3 0 -266 1 -2 0 -119 1 -1 0 -28 1 0 0 -6 1 0M178 634l0 -584M178 634l1 1M179 653l0 -18M179 653l5 0M184 654l0 -166 1 -3 0 -269"/>
<path stroke="red" d="M185 216l1 -2 0 -126 1 0 0 -31 1 0 0 -6 1 0M189 628l0 -578M189 628l1 2M190 653l0 -23M190 653l5 0M195 654l0 -151 1 -3 0 -276 1 -2 0 -132 1 0 0 -32 1 0 0 -7 1 0M200 620l0 -570M200 620l1 2M201 653l0 -31M201 653l5 0M206 654l0 -139"/>
<path stroke="red" d="M206 515l1 -3 0 -280 1 -2 0 -136 1 -1 0 -35 1 0 0 -7 1 0M211 608l0 -558M211 608l1 2M212 653l0 -43M212 653l5 0M217 654l0 -127 1 -3 0 -282 1 -2 0 -144 1 0 0 -37 1 0 0 -7 1 0M222 594l0 -544M222 594l1 4M223 653l0 -55M223 653l5 0"/>
<path stroke="red" d="M228 654l0 -111 1 -4 0 -288 1 -2 0 -150 1 -1 0 -39 1 0 0 -7 1 0M233 578l0 -528M233 578l1 5M234 653l0 -70M234 653l5 0M239 654l0 -99 1 -3 0 -293 1 -2 0 -154 1 -1 0 -42 1 0 0 -8 1 0M244 554l0 -504M244 554l1 5M245 653l0 -94"/>
<path stroke="red" d="M245 653l5 0M250 654l0 -83 1 -4 0 -296 1 -3 0 -162 1 -1 0 -44 1 -1 0 -8 1 0M255 531l0 -481M255 531l1 6M256 653l0 -116M256 653l5 0M261 654l0 -71 1 -3 0 -300 1 -3 0 -168 1 -1 0 -46 1 -1 0 -9 1 0M266 505l0 -455M266 505l1 7"/>
<path stroke="red" d="M267 653l0 -141M267 653l5 0M272 654l0 -58 1 -3 0 -302 1 -2 0 -175 1 -1 0 -51 1 0 0 -10 1 0M277 472l0 -422M277 472l1 7M278 653l0 -174M278 653l5 0M283 654l0 -42 1 -3 0 -308 1 -2 0 -182 1 -1 0 -53 1 0 0 -11 1 0M288 444l0 -394"/>
<path stroke="red" d="M288 444l1 7M289 653l0 -202M289 653l5 0M294 654l0 -29 1 -3 0 -311 1 -3 0 -186 1 -1 0 -57 1 0 0 -11 1 -1M299 415l0 -365M299 415l1 8M300 653l0 -230M300 653l5 0M305 654l0 -16 1 -3 0 -312 1 -2 0 -195 1 -1 0 -60 1 0 0 -12 1 0"/>
<path stroke="red" d="M310 379l0 -329M310 379l1 7M311 653l0 -267M311 653l5 0M316 654l0 -3 1 -2 0 -316 1 -2 0 -200 1 -2 0 -63 1 0 0 -13 1 0M321 349l0 -299M321 349l1 8M322 653l0 -296M322 653l5 0M327 654l0 -1M327 654l1 0 0 -311 1 -2 0 -205 1 -1"/>
<path stroke="red" d="M330 135l0 -68 1 0 0 -14 1 0M332 319l0 -269M332 319l1 8M333 652l0 -325M333 652l1 0M334 653l0 -1M334 653l4 0 1 1 0 -298 1 -2 0 -213 1 -1 0 -72 1 0 0 -15 1 0M343 281l0 -231M343 281l1 8M344 652l0 -363M344 652l1 0M345 653l0 -1"/>
<path stroke="red" d="M345 653l5 0M350 654l0 -287 1 -3 0 -218 1 -1 0 -75 1 0 0 -16 1 0M354 251l0 -201M354 251l1 7M355 652l0 -394M355 652l1 0M356 653l0 -1M356 653l5 0M361 654l0 -276 1 -3 0 -222 1 -2 0 -80 1 0 0 -17 1 0M365 212l0 -162M365 212l1 8"/>
<path stroke="red" d="M366 652l0 -432M366 652l1 0M367 653l0 -1M367 653l5 0M372 654l0 -263 1 -3 0 -230 1 -1 0 -85 1 0 0 -18 1 0M376 180l0 -130M376 180l1 8M377 651l0 -463M377 651l1 0M378 653l0 -2M378 653l5 0M383 654l0 -252 1 -3 0 -235 1 -2 0 -88"/>
<path stroke="red" d="M385 74l1 0 0 -20 1 0M387 149l0 -99M387 149l1 8M388 650l0 -493M388 650l1 0M389 653l0 -3M389 653l5 0M394 654l0 -241 1 -3 0 -239 1 -1 0 -94 1 -1 0 -20 1 0M398 109l0 -59M398 109l1 8M399 649l0 -532M399 649l1 0M400 653l0 -4M400 653l5 0"/>
<path stroke="red" d="M405 654l0 -227 1 -3 0 -246 1 -2 0 -99 1 0 0 -22 1 0M409 80l0 -30M409 80l1 7M410 648l0 -561M410 648l1 0M411 653l0 -5M411 653l5 0M416 654l0 -216 1 -2 0 -252 1 -2 0 -102 1 -1 0 -24 1 0M420 58l0 -8M420 58l1 4M421 646l0 -584"/>
<path stroke="red" d="M421 646l1 0M422 653l0 -7M422 653l5 0M427 654l0 -204 1 -3 0 -255 1 -1 0 -110 1 0 0 -25 1 0 0 -6 1 1M432 643l0 -592M432 643l1 1M433 653l0 -9M433 653l5 0M438 654l0 -190 1 -3 0 -262 1 -1 0 -115 1 0 0 -27 1 0 0 -6 1 0M443 640l0 -590"/>
<path stroke="red" d="M443 640l1 1M444 653l0 -12M444 653l5 0M449 654l0 -178 1 -3 0 -266 1 -2 0 -119 1 -1 0 -28 1 0 0 -6 1 0M454 634l0 -584M454 634l1 1M455 653l0 -18M455 653l5 0M460 654l0 -166 1 -3 0 -269 1 -2 0 -126 1 0 0 -31 1 0 0 -6 1 0M465 628l0 -578"/>
<path stroke="red" d="M465 628l1 2M466 653l0 -23M466 653l5 0M471 654l0 -151 1 -3 0 -276 1 -2 0 -132 1 0 0 -32 1 0 0 -7 1 0M476 620l0 -570M476 620l1 2M477 653l0 -31M477 653l5 0M482 654l0 -139 1 -3 0 -280 1 -2 0 -136 1 -1 0 -35 1 0 0 -7 1 0M487 608l0 -558"/>
<path stroke="red" d="M487 608l1 2M488 653l0 -43M488 653l5 0M493 654l0 -127 1 -3 0 -282 1 -2 0 -144 1 0 0 -37 1 0 0 -7 1 0M498 594l0 -544M498 594l1 4M499 653l0 -55M499 653l5 0M504 654l0 -111 1 -4 0 -288 1 -2 0 -150 1 -1 0 -39 1 0 0 -7 1 0M509 578l0 -528"/>
<path stroke="red" d="M509 578l1 5M510 653l0 -70M510 653l5 0M515 654l0 -99 1 -3 0 -293 1 -2 0 -154 1 -1 0 -42 1 0 0 -8 1 0M520 554l0 -504M520 554l1 5M521 653l0 -94M521 653l5 0M526 654l0 -83 1 -4 0 -296 1 -3 0 -162 1 -1 0 -44 1 -1 0 -8 1 0M531 531l0 -481"/>
<path stroke="red" d="M531 531l1 6M532 653l0 -116M532 653l5 0M537 654l0 -71 1 -3 0 -300 1 -3 0 -168 1 -1 0 -46 1 -1 0 -9 1 0M542 505l0 -455M542 505l1 7M543 653l0 -141M543 653l5 0M548 654l0 -58 1 -3 0 -302 1 -2 0 -175 1 -1 0 -51 1 0 0 -10 1 0"/>
<path stroke="red" d="M553 472l0 -422M553 472l1 7M554 653l0 -174M554 653l5 0M559 654l0 -42 1 -3 0 -308 1 -2 0 -182 1 -1 0 -53 1 0 0 -11 1 0M564 444l0 -394M564 444l1 7M565 653l0 -202M565 653l5 0M570 654l0 -29 1 -3 0 -311 1 -3 0 -186 1 -1 0 -57"/>
<path stroke="red" d="M573 64l1 0 0 -11 1 -1M575 415l0 -365M575 415l1 8M576 653l0 -230M576 653l5 0M581 654l0 -16 1 -3 0 -312 1 -2 0 -195 1 -1 0 -60 1 0 0 -12 1 0M586 379l0 -329M586 379l1 7M587 653l0 -267M587 653l5 0M592 654l0 -3 1 -2 0 -316 1 -2"/>
<path stroke="red" d="M594 331l0 -200 1 -2 0 -63 1 0 0 -13 1 0M597 349l0 -299M597 349l1 8M598 653l0 -296M598 653l5 0M603 654l0 -1M603 654l1 0 0 -311 1 -2 0 -205 1 -1 0 -68 1 0 0 -14 1 0M608 319l0 -269M608 319l1 8M609 652l0 -325M609 652l1 0M610 653l0 -1"/>
<path stroke="red" d="M610 653l4 0 1 1 0 -298 1 -2 0 -213 1 -1 0 -72 1 0 0 -15 1 0M619 281l0 -231M619 281l1 8M620 652l0 -363M620 652l1 0M621 653l0 -1M621 653l5 0M626 654l0 -287 1 -3 0 -218 1 -1 0 -75 1 0 0 -16 1 0M630 251l0 -201M630 251l1 7M631 652l0 -394"/>
<path stroke="red" d="M631 652l1 0M632 653l0 -1M632 653l5 0M637 654l0 -276 1 -3 0 -222 1 -2 0 -80 1 0 0 -17 1 0M641 212l0 -162M641 212l1 8M642 652l0 -432M642 652l1 0M643 653l0 -1M643 653l5 0M648 654l0 -263 1 -3 0 -230 1 -1 0 -85 1 0 0 -18 1 0"/>
<path stroke="red" d="M652 180l0 -130M652 180l1 8M653 651l0 -463M653 651l1 0M654 653l0 -2M654 653l5 0M659 654l0 -252 1 -3 0 -235 1 -2 0 -88 1 0 0 -20 1 0M663 149l0 -99M663 149l1 8M664 650l0 -493M664 650l1 0M665 653l0 -3M665 653l5 0M670 654l0 -241"/>
<path stroke="red" d="M670 413l1 -3 0 -239 1 -1 0 -94 1 -1 0 -20 1 0M674 109l0 -59M674 109l1 8M675 649l0 -532M675 649l1 0M676 653l0 -4M676 653l5 0M681 654l0 -227 1 -3 0 -246 1 -2 0 -99 1 0 0 -22 1 0M685 80l0 -30M685 80l1 7M686 648l0 -561M686 648l1 0"/>
<path stroke="red" d="M687 653l0 -5M687 653l5 0M692 654l0 -216 1 -2 0 -252 1 -2 0 -102 1 -1 0 -24 1 0M696 58l0 -8M696 58l1 4M697 646l0 -584M697 646l1 0M698 653l0 -7M698 653l5 0M703 654l0 -204 1 -3 0 -255 1 -1 0 -110 1 0 0 -25 1 0 0 -6 1 1M708 643l0 -592"/>
<path stroke="red" d="M708 643l1 1M709 653l0 -9M709 653l5 0M714 654l0 -190 1 -3 0 -262 1 -1 0 -115 1 0 0 -27 1 0 0 -6 1 0M719 640l0 -590M719 640l1 1M720 653l0 -12M720 653l5 0M725 654l0 -178 1 -3 0 -266 1 -2 0 -119 1 -1 0 -28 1 0 0 -6 1 0M730 634l0 -584"/>
<path stroke="red" d="M730 634l1 1M731 653l0 -18M731 653l5 0M736 654l0 -166 1 -3 0 -269 1 -2 0 -126 1 0 0 -31 1 0 0 -6 1 0M741 628l0 -578M741 628l1 2M742 653l0 -23M742 653l5 0M747 654l0 -151 1 -3 0 -276 1 -2 0 -132 1 0 0 -32 1 0 0 -7 1 0M752 620l0 -570"/>
<path stroke="red" d="M752 620l1 2M753 653l0 -31M753 653l5 0M758 654l0 -139 1 -3 0 -280 1 -2 0 -136 1 -1 0 -35 1 0 0 -7 1 0M763 608l0 -558M763 608l1 2M764 653l0 -43M764 653l5 0M769 654l0 -127 1 -3 0 -282 1 -2 0 -144 1 0 0 -37 1 0 0 -7 1 0M774 594l0 -544"/>
<path stroke="red" d="M774 594l1 4M775 653l0 -55M775 653l5 0M780 654l0 -111 1 -4 0 -288 1 -2 0 -150 1 -1 0 -39 1 0 0 -7 1 0M785 578l0 -528M785 578l1 5M786 653l0 -70M786 653l5 0M791 654l0 -99 1 -3 0 -293 1 -2 0 -154 1 -1 0 -42 1 0 0 -8 1 0M796 554l0 -504"/>
<path stroke="red" d="M796 554l1 5M797 653l0 -94M797 653l5 0M802 654l0 -83 1 -4 0 -296 1 -3 0 -162 1 -1 0 -44 1 -1 0 -8 1 0M807 531l0 -481M807 531l1 6M808 653l0 -116M808 653l5 0M813 654l0 -71 1 -3 0 -300 1 -3 0 -168 1 -1 0 -46 1 -1 0 -9 1 0M818 505l0 -455"/>
<path stroke="red" d="M818 505l1 7M819 653l0 -141M819 653l5 0M824 654l0 -58 1 -3 0 -302 1 -2 0 -175 1 -1 0 -51 1 0 0 -10 1 0M829 472l0 -422M829 472l1 7M830 653l0 -174M830 653l5 0M835 654l0 -42 1 -3 0 -308 1 -2 0 -182 1 -1 0 -53 1 0 0 -11 1 0"/>
<path stroke="red" d="M840 444l0 -394M840 444l1 7M841 653l0 -202M841 653l5 0M846 654l0 -29 1 -3 0 -311 1 -3 0 -186 1 -1 0 -57 1 0 0 -11 1 -1M851 415l0 -365M851 415l1 8M852 653l0 -230M852 653l5 0M857 654l0 -16 1 -3 0 -312 1 -2 0 -195 1 -1 0 -60"/>
<path stroke="red" d="M860 65l1 0 0 -12 1 0M862 379l0 -329M862 379l1 7M863 653l0 -267M863 653l5 0M868 654l0 -3 1 -2 0 -316 1 -2 0 -200 1 -2 0 -63 1 0 0 -13 1 0M873 349l0 -299M873 349l1 8M874 653l0 -296M874 653l5 0M879 654l0 -1M879 654l1 0 0 -311"/>
<path stroke="red" d="M880 343l1 -2 0 -205 1 -1 0 -68 1 0 0 -14 1 0M884 319l0 -269M884 319l1 8M885 652l0 -325M885 652l1 0M886 653l0 -1M886 653l4 0 1 1 0 -298 1 -2 0 -213 1 -1 0 -72 1 0 0 -15 1 0M895 281l0 -231M895 281l1 8M896 652l0 -363M896 652l1 0"/>
<path stroke="red" d="M897 653l0 -1M897 653l5 0M902 654l0 -287 1 -3 0 -218 1 -1 0 -75 1 0 0 -16 1 0M906 251l0 -201M906 251l1 7M907 652l0 -394M907 652l1 0M908 653l0 -1M908 653l5 0M913 654l0 -276 1 -3 0 -222 1 -2 0 -80 1 0 0 -17 1 0M917 212l0 -162"/>
<path stroke="red" d="M917 212l1 8M918 652l0 -432M918 652l1 0M919 653l0 -1M919 653l5 0M924 654l0 -263 1 -3 0 -230 1 -1 0 -85 1 0 0 -18 1 0M928 180l0 -130M928 180l1 8M929 651l0 -463M929 651l1 0M930 653l0 -2M930 653l5 0M935 654l0 -252 1 -3 0 -235"/>
<path stroke="red" d="M936 164l1 -2 0 -88 1 0 0 -20 1 0M939 149l0 -99M939 149l1 8M940 650l0 -493M940 650l1 0M941 653l0 -3M941 653l5 0M946 654l0 -241 1 -3 0 -239 1 -1 0 -94 1 -1 0 -20 1 0M950 109l0 -59M950 109l1 8M951 649l0 -532M951 649l1 0M952 653l0 -4"/>
<path stroke="red" d="M952 653l5 0M957 654l0 -227 1 -3 0 -246 1 -2 0 -99 1 0 0 -22 1 0M961 80l0 -30M961 80l1 7M962 648l0 -561M962 648l1 0M963 653l0 -5M963 653l5 0M968 654l0 -216 1 -2 0 -252 1 -2 0 -67"/>
<path stroke="blue" d="M50 23l46 0"/>
<text stroke="none" fill="white" font-size="16" x="106" y="32">
v(A)
</text>
<path stroke="blue" d="M50 653l1 0 0 -377 1 -6 0 -220 5 0M57 94l0 -44M57 94l1 3M58 422l0 -325M58 422l1 3M59 653l0 -228M59 653l3 0 0 -353 1 -6 0 -244 5 0M68 82l0 -32M68 82l1 3M69 410l0 -325M69 410l1 3M70 653l0 -240M70 653l3 0 0 -323 1 -6 0 -274"/>
<path stroke="blue" d="M74 50l5 0M79 70l0 -20M79 70l1 3M80 395l0 -322M80 395l1 3M81 653l0 -255M81 653l3 0 0 -298 1 -7 0 -298 5 0M90 55l0 -5M90 55l1 3M91 383l0 -325M91 383l1 3M92 653l0 -267M92 653l3 0 0 -274 1 -6 0 -323 6 0M102 371l0 -321M102 371l1 3"/>
<path stroke="blue" d="M103 653l0 -279M103 653l3 0 0 -244 1 -6 0 -353 6 0M113 356l0 -306M113 356l1 3M114 653l0 -294M114 653l3 0 0 -220 1 -6 0 -377 6 0M124 344l0 -294M124 344l1 3M125 653l0 -306M125 653l3 0 0 -196 1 -6 0 -401 6 0M135 329l0 -279"/>
<path stroke="blue" d="M135 329l1 3M136 653l0 -321M136 653l3 0 0 -166 1 -6 0 -431 6 0M146 317l0 -267M146 317l1 3M147 645l0 -325M147 645l1 3M148 653l0 -5M148 653l2 0 0 -142 1 -6 0 -455 6 0M157 305l0 -255M157 305l1 3M158 630l0 -322M158 630l1 3"/>
<path stroke="blue" d="M159 653l0 -20M159 653l2 0 0 -118 1 -6 0 -479 6 0M168 290l0 -240M168 290l1 3M169 618l0 -325M169 618l1 3M170 653l0 -32M170 653l2 0 0 -87 1 -6 0 -510 6 0M179 278l0 -228M179 278l1 3M180 606l0 -325M180 606l1 3M181 653l0 -44"/>
<path stroke="blue" d="M181 653l2 0 0 -63 1 -6 0 -534 6 0M190 266l0 -216M190 266l1 3M191 591l0 -322M191 591l1 3M192 653l0 -59M192 653l2 0 0 -39 1 -6 0 -558 6 0M201 250l0 -200M201 250l1 4M202 579l0 -325M202 579l1 3M203 653l0 -71M203 653l2 0 0 -9"/>
<path stroke="blue" d="M205 644l1 -6 0 -588 6 0M212 238l0 -188M212 238l1 3M213 567l0 -326M213 567l1 3M214 653l0 -83M214 653l3 0 0 -603 6 0M223 226l0 -176M223 226l1 3M224 552l0 -323M224 552l1 3M225 653l0 -98M225 653l3 0 0 -603 6 0M234 211l0 -161"/>
<path stroke="blue" d="M234 211l1 3M235 540l0 -326M235 540l1 3M236 653l0 -110M236 653l3 0 0 -588 1 -6 0 -9 5 0M245 199l0 -149M245 199l1 3M246 528l0 -326M246 528l1 3M247 653l0 -122M247 653l3 0 0 -558 1 -6 0 -39 5 0M256 187l0 -137M256 187l1 3M257 513l0 -323"/>
<path stroke="blue" d="M257 513l1 3M258 653l0 -137M258 653l3 0 0 -534 1 -6 0 -63 5 0M267 172l0 -122M267 172l1 3M268 501l0 -326M268 501l1 3M269 653l0 -149M269 653l3 0 0 -510 1 -6 0 -87 5 0M278 160l0 -110M278 160l1 3M279 489l0 -326M279 489l1 3"/>
<path stroke="blue" d="M280 653l0 -161M280 653l3 0 0 -479 1 -6 0 -118 5 0M289 148l0 -98M289 148l1 3M290 474l0 -323M290 474l1 3M291 653l0 -176M291 653l3 0 0 -455 1 -6 0 -142 5 0M300 133l0 -83M300 133l1 3M301 462l0 -326M301 462l1 3M302 653l0 -188"/>
<path stroke="blue" d="M302 653l3 0 0 -431 1 -6 0 -166 5 0M311 121l0 -71M311 121l1 3M312 449l0 -325M312 449l1 4M313 653l0 -200M313 653l3 0 0 -401 1 -6 0 -196 5 0M322 109l0 -59M322 109l1 3M323 434l0 -322M323 434l1 3M324 653l0 -216M324 653l3 0"/>
<path stroke="blue" d="M327 653l0 -377 1 -6 0 -220 5 0M333 94l0 -44M333 94l1 3M334 422l0 -325M334 422l1 3M335 653l0 -228M335 653l3 0 0 -353 1 -6 0 -244 5 0M344 82l0 -32M344 82l1 3M345 410l0 -325M345 410l1 3M346 653l0 -240M346 653l3 0 0 -323 1 -6"/>
<path stroke="blue" d="M350 324l0 -274 5 0M355 70l0 -20M355 70l1 3M356 395l0 -322M356 395l1 3M357 653l0 -255M357 653l3 0 0 -298 1 -7 0 -298 5 0M366 55l0 -5M366 55l1 3M367 383l0 -325M367 383l1 3M368 653l0 -267M368 653l3 0 0 -274 1 -6 0 -323 6 0"/>
<path stroke="blue" d="M378 371l0 -321M378 371l1 3M379 653l0 -279M379 653l3 0 0 -244 1 -6 0 -353 6 0M389 356l0 -306M389 356l1 3M390 653l0 -294M390 653l3 0 0 -220 1 -6 0 -377 6 0M400 344l0 -294M400 344l1 3M401 653l0 -306M401 653l3 0 0 -196 1 -6"/>
<path stroke="blue" d="M405 451l0 -401 6 0M411 329l0 -279M411 329l1 3M412 653l0 -321M412 653l3 0 0 -166 1 -6 0 -431 6 0M422 317l0 -267M422 317l1 3M423 645l0 -325M423 645l1 3M424 653l0 -5M424 653l2 0 0 -142 1 -6 0 -455 6 0M433 305l0 -255M433 305l1 3"/>
<path stroke="blue" d="M434 630l0 -322M434 630l1 3M435 653l0 -20M435 653l2 0 0 -118 1 -6 0 -479 6 0M444 290l0 -240M444 290l1 3M445 618l0 -325M445 618l1 3M446 653l0 -32M446 653l2 0 0 -87 1 -6 0 -510 6 0M455 278l0 -228M455 278l1 3M456 606l0 -325"/>
<path stroke="blue" d="M456 606l1 3M457 653l0 -44M457 653l2 0 0 -63 1 -6 0 -534 6 0M466 266l0 -216M466 266l1 3M467 591l0 -322M467 591l1 3M468 653l0 -59M468 653l2 0 0 -39 1 -6 0 -558 6 0M477 250l0 -200M477 250l1 4M478 579l0 -325M478 579l1 3M479 653l0 -71"/>
<path stroke="blue" d="M479 653l2 0 0 -9 1 -6 0 -588 6 0M488 238l0 -188M488 238l1 3M489 567l0 -326M489 567l1 3M490 653l0 -83M490 653l3 0 0 -603 6 0M499 226l0 -176M499 226l1 3M500 552l0 -323M500 552l1 3M501 653l0 -98M501 653l3 0 0 -603 6 0M510 211l0 -161"/>
<path stroke="blue" d="M510 211l1 3M511 540l0 -326M511 540l1 3M512 653l0 -110M512 653l3 0 0 -588 1 -6 0 -9 5 0M521 199l0 -149M521 199l1 3M522 528l0 -326M522 528l1 3M523 653l0 -122M523 653l3 0 0 -558 1 -6 0 -39 5 0M532 187l0 -137M532 187l1 3M533 513l0 -323"/>
<path stroke="blue" d="M533 513l1 3M534 653l0 -137M534 653l3 0 0 -534 1 -6 0 -63 5 0M543 172l0 -122M543 172l1 3M544 501l0 -326M544 501l1 3M545 653l0 -149M545 653l3 0 0 -510 1 -6 0 -87 5 0M554 160l0 -110M554 160l1 3M555 489l0 -326M555 489l1 3"/>
<path stroke="blue" d="M556 653l0 -161M556 653l3 0 0 -479 1 -6 0 -118 5 0M565 148l0 -98M565 148l1 3M566 474l0 -323M566 474l1 3M567 653l0 -176M567 653l3 0 0 -455 1 -6 0 -142 5 0M576 133l0 -83M576 133l1 3M577 462l0 -326M577 462l1 3M578 653l0 -188"/>
<path stroke="blue" d="M578 653l3 0 0 -431 1 -6 0 -166 5 0M587 121l0 -71M587 121l1 3M588 449l0 -325M588 449l1 4M589 653l0 -200M589 653l3 0 0 -401 1 -6 0 -196 5 0M598 109l0 -59M598 109l1 3M599 434l0 -322M599 434l1 3M600 653l0 -216M600 653l3 0"/>
<path stroke="blue" d="M603 653l0 -377 1 -6 0 -220 5 0M609 94l0 -44M609 94l1 3M610 422l0 -325M610 422l1 3M611 653l0 -228M611 653l3 0 0 -353 1 -6 0 -244 5 0M620 82l0 -32M620 82l1 3M621 410l0 -325M621 410l1 3M622 653l0 -240M622 653l3 0 0 -323 1 -6"/>
<path stroke="blue" d="M626 324l0 -274 5 0M631 70l0 -20M631 70l1 3M632 395l0 -322M632 395l1 3M633 653l0 -255M633 653l3 0 0 -298 1 -7 0 -298 5 0M642 55l0 -5M642 55l1 3M643 383l0 -325M643 383l1 3M644 653l0 -267M644 653l3 0 0 -274 1 -6 0 -323 6 0"/>
<path stroke="blue" d="M654 371l0 -321M654 371l1 3M655 653l0 -279M655 653l3 0 0 -244 1 -6 0 -353 6 0M665 356l0 -306M665 356l1 3M666 653l0 -294M666 653l3 0 0 -220 1 -6 0 -377 6 0M676 344l0 -294M676 344l1 3M677 653l0 -306M677 653l3 0 0 -196 1 -6"/>
<path stroke="blue" d="M681 451l0 -401 6 0M687 329l0 -279M687 329l1 3M688 653l0 -321M688 653l3 0 0 -166 1 -6 0 -431 6 0M698 317l0 -267M698 317l1 3M699 645l0 -325M699 645l1 3M700 653l0 -5M700 653l2 0 0 -142 1 -6 0 -455 6 0M709 305l0 -255M709 305l1 3"/>
<path stroke="blue" d="M710 630l0 -322M710 630l1 3M711 653l0 -20M711 653l2 0 0 -118 1 -6 0 -479 6 0M720 290l0 -240M720 290l1 3M721 618l0 -325M721 618l1 3M722 653l0 -32M722 653l2 0 0 -87 1 -6 0 -510 6 0M731 278l0 -228M731 278l1 3M732 606l0 -325"/>
<path stroke="blue" d="M732 606l1 3M733 653l0 -44M733 653l2 0 0 -63 1 -6 0 -534 6 0M742 266l0 -216M742 266l1 3M743 591l0 -322M743 591l1 3M744 653l0 -59M744 653l2 0 0 -39 1 -6 0 -558 6 0M753 250l0 -200M753 250l1 4M754 579l0 -325M754 579l1 3M755 653l0 -71"/>
<path stroke="blue" d="M755 653l2 0 0 -9 1 -6 0 -588 6 0M764 238l0 -188M764 238l1 3M765 567l0 -326M765 567l1 3M766 653l0 -83M766 653l3 0 0 -603 6 0M775 226l0 -176M775 226l1 3M776 552l0 -323M776 552l1 3M777 653l0 -98M777 653l3 0 0 -603 6 0M786 211l0 -161"/>
<path stroke="blue" d="M786 211l1 3M787 540l0 -326M787 540l1 3M788 653l0 -110M788 653l3 0 0 -588 1 -6 0 -9 5 0M797 199l0 -149M797 199l1 3M798 528l0 -326M798 528l1 3M799 653l0 -122M799 653l3 0 0 -558 1 -6 0 -39 5 0M808 187l0 -137M808 187l1 3M809 513l0 -323"/>
<path stroke="blue" d="M809 513l1 3M810 653l0 -137M810 653l3 0 0 -534 1 -6 0 -63 5 0M819 172l0 -122M819 172l1 3M820 501l0 -326M820 501l1 3M821 653l0 -149M821 653l3 0 0 -510 1 -6 0 -87 5 0M830 160l0 -110M830 160l1 3M831 489l0 -326M831 489l1 3"/>
<path stroke="blue" d="M832 653l0 -161M832 653l3 0 0 -479 1 -6 0 -118 5 0M841 148l0 -98M841 148l1 3M842 474l0 -323M842 474l1 3M843 653l0 -176M843 653l3 0 0 -455 1 -6 0 -142 5 0M852 133l0 -83M852 133l1 3M853 462l0 -326M853 462l1 3M854 653l0 -188"/>
<path stroke="blue" d="M854 653l3 0 0 -431 1 -6 0 -166 5 0M863 121l0 -71M863 121l1 3M864 449l0 -325M864 449l1 4M865 653l0 -200M865 653l3 0 0 -401 1 -6 0 -196 5 0M874 109l0 -59M874 109l1 3M875 434l0 -322M875 434l1 3M876 653l0 -216M876 653l3 0"/>
<path stroke="blue" d="M879 653l0 -377 1 -6 0 -220 5 0M885 94l0 -44M885 94l1 3M886 422l0 -325M886 422l1 3M887 653l0 -228M887 653l3 0 0 -353 1 -6 0 -244 5 0M896 82l0 -32M896 82l1 3M897 410l0 -325M897 410l1 3M898 653l0 -240M898 653l3 0 0 -323 1 -6"/>
<path stroke="blue" d="M902 324l0 -274 5 0M907 70l0 -20M907 70l1 3M908 395l0 -322M908 395l1 3M909 653l0 -255M909 653l3 0 0 -298 1 -7 0 -298 5 0M918 55l0 -5M918 55l1 3M919 383l0 -325M919 383l1 3M920 653l0 -267M920 653l3 0 0 -274 1 -6 0 -323 6 0"/>
<path stroke="blue" d="M930 371l0 -321M930 371l1 3M931 653l0 -279M931 653l3 0 0 -244 1 -6 0 -353 6 0M941 356l0 -306M941 356l1 3M942 653l0 -294M942 653l3 0 0 -220 1 -6 0 -377 6 0M952 344l0 -294M952 344l1 3M953 653l0 -306M953 653l3 0 0 -196 1 -6"/>
<path stroke="blue" d="M957 451l0 -401 6 0M963 329l0 -279M963 329l1 3M964 653l0 -321M964 653l3 0 0 -166 1 -6 0 -431 2 0"/>
<path stroke="#FFA500" d="M460 39l46 0"/>
<text stroke="none" fill="white" font-size="16" x="516" y="48">
v(B)
</text>
<path stroke="#FFA500" d="M50 653l1 0 0 -377 1 -6 0 -220 4 0M56 653l0 -603M56 653l6 0 0 -353 1 -6 0 -244 4 0M67 653l0 -603M67 653l6 0 0 -323 1 -6 0 -274 4 0M78 638l0 -588M78 638l1 6M79 653l0 -9M79 653l5 0 0 -298 1 -7 0 -298 4 0M89 608l0 -558"/>
<path stroke="#FFA500" d="M89 608l1 6M90 653l0 -39M90 653l5 0 0 -274 1 -6 0 -323 4 0M100 584l0 -534M100 584l1 6M101 653l0 -63M101 653l5 0 0 -244 1 -6 0 -353 4 0M111 560l0 -510M111 560l1 6M112 653l0 -87M112 653l5 0 0 -220 1 -6 0 -377 4 0M122 529l0 -479"/>
<path stroke="#FFA500" d="M122 529l1 6M123 653l0 -118M123 653l5 0 0 -196 1 -6 0 -401 4 0M133 505l0 -455M133 505l1 6M134 653l0 -142M134 653l5 0 0 -166 1 -6 0 -431 4 0M144 481l0 -431M144 481l1 6M145 653l0 -166M145 653l5 0 0 -142 1 -6 0 -455 4 0"/>
<path stroke="#FFA500" d="M155 451l0 -401M155 451l1 6M156 653l0 -196M156 653l5 0 0 -118 1 -6 0 -479 4 0M166 427l0 -377M166 427l1 6M167 653l0 -220M167 653l5 0 0 -87 1 -6 0 -510 4 0M177 403l0 -353M177 403l1 6M178 653l0 -244M178 653l5 0 0 -63 1 -6"/>
<path stroke="#FFA500" d="M184 584l0 -534 4 0M188 373l0 -323M188 373l1 6M189 653l0 -274M189 653l5 0 0 -39 1 -6 0 -558 4 0M199 348l0 -298M199 348l1 7M200 653l0 -298M200 653l5 0 0 -9 1 -6 0 -588 4 0M210 324l0 -274M210 324l1 6M211 653l0 -323M211 653l6 0"/>
<path stroke="#FFA500" d="M217 653l0 -603 4 0M221 294l0 -244M221 294l1 6M222 653l0 -353M222 653l6 0 0 -603 4 0M232 270l0 -220M232 270l1 6M233 653l0 -377M233 653l6 0 0 -588 1 -6 0 -9 3 0M243 246l0 -196M243 246l1 6M244 653l0 -401M244 653l6 0 0 -558"/>
<path stroke="#FFA500" d="M250 95l1 -6 0 -39 3 0M254 216l0 -166M254 216l1 6M255 653l0 -431M255 653l6 0 0 -534 1 -6 0 -63 3 0M265 192l0 -142M265 192l1 6M266 653l0 -455M266 653l6 0 0 -510 1 -6 0 -87 3 0M276 168l0 -118M276 168l1 6M277 653l0 -479"/>
<path stroke="#FFA500" d="M277 653l6 0 0 -479 1 -6 0 -118 3 0M287 137l0 -87M287 137l1 6M288 653l0 -510M288 653l6 0 0 -455 1 -6 0 -142 3 0M298 113l0 -63M298 113l1 6M299 653l0 -534M299 653l6 0 0 -431 1 -6 0 -166 3 0M309 89l0 -39M309 89l1 6M310 653l0 -558"/>
<path stroke="#FFA500" d="M310 653l6 0 0 -401 1 -6 0 -196 3 0M320 59l0 -9M320 59l1 6M321 653l0 -588M321 653l6 0 0 -377 1 -6 0 -220 4 0M332 653l0 -603M332 653l6 0 0 -353 1 -6 0 -244 4 0M343 653l0 -603M343 653l6 0 0 -323 1 -6 0 -274 4 0M354 638l0 -588"/>
<path stroke="#FFA500" d="M354 638l1 6M355 653l0 -9M355 653l5 0 0 -298 1 -7 0 -298 4 0M365 608l0 -558M365 608l1 6M366 653l0 -39M366 653l5 0 0 -274 1 -6 0 -323 4 0M376 584l0 -534M376 584l1 6M377 653l0 -63M377 653l5 0 0 -244 1 -6 0 -353 4 0M387 560l0 -510"/>
<path stroke="#FFA500" d="M387 560l1 6M388 653l0 -87M388 653l5 0 0 -220 1 -6 0 -377 4 0M398 529l0 -479M398 529l1 6M399 653l0 -118M399 653l5 0 0 -196 1 -6 0 -401 4 0M409 505l0 -455M409 505l1 6M410 653l0 -142M410 653l5 0 0 -166 1 -6 0 -431 4 0"/>
<path stroke="#FFA500" d="M420 481l0 -431M420 481l1 6M421 653l0 -166M421 653l5 0 0 -142 1 -6 0 -455 4 0M431 451l0 -401M431 451l1 6M432 653l0 -196M432 653l5 0 0 -118 1 -6 0 -479 4 0M442 427l0 -377M442 427l1 6M443 653l0 -220M443 653l5 0 0 -87 1 -6"/>
<path stroke="#FFA500" d="M449 560l0 -510 4 0M453 403l0 -353M453 403l1 6M454 653l0 -244M454 653l5 0 0 -63 1 -6 0 -534 4 0M464 373l0 -323M464 373l1 6M465 653l0 -274M465 653l5 0 0 -39 1 -6 0 -558 4 0M475 348l0 -298M475 348l1 7M476 653l0 -298M476 653l5 0"/>
<path stroke="#FFA500" d="M481 653l0 -9 1 -6 0 -588 4 0M486 324l0 -274M486 324l1 6M487 653l0 -323M487 653l6 0 0 -603 4 0M497 294l0 -244M497 294l1 6M498 653l0 -353M498 653l6 0 0 -603 4 0M508 270l0 -220M508 270l1 6M509 653l0 -377M509 653l6 0 0 -588"/>
<path stroke="#FFA500" d="M515 65l1 -6 0 -9 3 0M519 246l0 -196M519 246l1 6M520 653l0 -401M520 653l6 0 0 -558 1 -6 0 -39 3 0M530 216l0 -166M530 216l1 6M531 653l0 -431M531 653l6 0 0 -534 1 -6 0 -63 3 0M541 192l0 -142M541 192l1 6M542 653l0 -455"/>
<path stroke="#FFA500" d="M542 653l6 0 0 -510 1 -6 0 -87 3 0M552 168l0 -118M552 168l1 6M553 653l0 -479M553 653l6 0 0 -479 1 -6 0 -118 3 0M563 137l0 -87M563 137l1 6M564 653l0 -510M564 653l6 0 0 -455 1 -6 0 -142 3 0M574 113l0 -63M574 113l1 6M575 653l0 -534"/>
<path stroke="#FFA500" d="M575 653l6 0 0 -431 1 -6 0 -166 3 0M585 89l0 -39M585 89l1 6M586 653l0 -558M586 653l6 0 0 -401 1 -6 0 -196 3 0M596 59l0 -9M596 59l1 6M597 653l0 -588M597 653l6 0 0 -377 1 -6 0 -220 4 0M608 653l0 -603M608 653l6 0 0 -353"/>
<path stroke="#FFA500" d="M614 300l1 -6 0 -244 4 0M619 653l0 -603M619 653l6 0 0 -323 1 -6 0 -274 4 0M630 638l0 -588M630 638l1 6M631 653l0 -9M631 653l5 0 0 -298 1 -7 0 -298 4 0M641 608l0 -558M641 608l1 6M642 653l0 -39M642 653l5 0 0 -274 1 -6 0 -323"/>
<path stroke="#FFA500" d="M648 50l4 0M652 584l0 -534M652 584l1 6M653 653l0 -63M653 653l5 0 0 -244 1 -6 0 -353 4 0M663 560l0 -510M663 560l1 6M664 653l0 -87M664 653l5 0 0 -220 1 -6 0 -377 4 0M674 529l0 -479M674 529l1 6M675 653l0 -118M675 653l5 0"/>
<path stroke="#FFA500" d="M680 653l0 -196 1 -6 0 -401 4 0M685 505l0 -455M685 505l1 6M686 653l0 -142M686 653l5 0 0 -166 1 -6 0 -431 4 0M696 481l0 -431M696 481l1 6M697 653l0 -166M697 653l5 0 0 -142 1 -6 0 -455 4 0M707 451l0 -401M707 451l1 6M708 653l0 -196"/>
<path stroke="#FFA500" d="M708 653l5 0 0 -118 1 -6 0 -479 4 0M718 427l0 -377M718 427l1 6M719 653l0 -220M719 653l5 0 0 -87 1 -6 0 -510 4 0M729 403l0 -353M729 403l1 6M730 653l0 -244M730 653l5 0 0 -63 1 -6 0 -534 4 0M740 373l0 -323M740 373l1 6M741 653l0 -274"/>
<path stroke="#FFA500" d="M741 653l5 0 0 -39 1 -6 0 -558 4 0M751 348l0 -298M751 348l1 7M752 653l0 -298M752 653l5 0 0 -9 1 -6 0 -588 4 0M762 324l0 -274M762 324l1 6M763 653l0 -323M763 653l6 0 0 -603 4 0M773 294l0 -244M773 294l1 6M774 653l0 -353"/>
<path stroke="#FFA500" d="M774 653l6 0 0 -603 4 0M784 270l0 -220M784 270l1 6M785 653l0 -377M785 653l6 0 0 -588 1 -6 0 -9 3 0M795 246l0 -196M795 246l1 6M796 653l0 -401M796 653l6 0 0 -558 1 -6 0 -39 3 0M806 216l0 -166M806 216l1 6M807 653l0 -431"/>
<path stroke="#FFA500" d="M807 653l6 0 0 -534 1 -6 0 -63 3 0M817 192l0 -142M817 192l1 6M818 653l0 -455M818 653l6 0 0 -510 1 -6 0 -87 3 0M828 168l0 -118M828 168l1 6M829 653l0 -479M829 653l6 0 0 -479 1 -6 0 -118 3 0M839 137l0 -87M839 137l1 6M840 653l0 -510"/>
<path stroke="#FFA500" d="M840 653l6 0 0 -455 1 -6 0 -142 3 0M850 113l0 -63M850 113l1 6M851 653l0 -534M851 653l6 0 0 -431 1 -6 0 -166 3 0M861 89l0 -39M861 89l1 6M862 653l0 -558M862 653l6 0 0 -401 1 -6 0 -196 3 0M872 59l0 -9M872 59l1 6M873 653l0 -588"/>
<path stroke="#FFA500" d="M873 653l6 0 0 -377 1 -6 0 -220 4 0M884 653l0 -603M884 653l6 0 0 -353 1 -6 0 -244 4 0M895 653l0 -603M895 653l6 0 0 -323 1 -6 0 -274 4 0M906 638l0 -588M906 638l1 6M907 653l0 -9M907 653l5 0 0 -298 1 -7 0 -298 4 0M917 608l0 -558"/>
<path stroke="#FFA500" d="M917 608l1 6M918 653l0 -39M918 653l5 0 0 -274 1 -6 0 -323 4 0M928 584l0 -534M928 584l1 6M929 653l0 -63M929 653l5 0 0 -244 1 -6 0 -353 4 0M939 560l0 -510M939 560l1 6M940 653l0 -87M940 653l5 0 0 -220 1 -6 0 -377 4 0M950 529l0 -479"/>
<path stroke="#FFA500" d="M950 529l1 6M951 653l0 -118M951 653l5 0 0 -196 1 -6 0 -401 4 0M961 505l0 -455M961 505l1 6M962 653l0 -142M962 653l5 0 0 -166 1 -6 0 -431 2 0"/>
</svg>
